<?xml version="1.0" encoding="utf-8"?>
<!-- Generator: Adobe Illustrator 22.1.0, SVG Export Plug-In . SVG Version: 6.00 Build 0)  -->
<svg version="1.1" id="Layer_1" xmlns="http://www.w3.org/2000/svg" xmlns:xlink="http://www.w3.org/1999/xlink" x="0px" y="0px"
	 viewBox="0 0 640 640" style="enable-background:new 0 0 640 640;" xml:space="preserve">
<style type="text/css">
	.st0{fill:#FFFFFF;}
</style>
<g>
	<path class="st0" d="M151.5,397.3c-5.8,0-9.7-4.9-21.5-4.9c-17.4,0-26.4,14.8-26.4,31.9c0,16.7,9.1,31.1,26.4,31.1
		c11.8,0,16.6-5.9,22.4-5.9c6.3,0,9.3,6.3,9.3,9.6c0,13.5-21.2,16.6-31.6,16.6c-28.5,0-48.4-22.6-48.4-51.7
		c0-29.2,19.7-51.7,48.4-51.7c10.3,0,30.2,3.4,30.2,15.7C160.3,392.9,156.8,397.3,151.5,397.3 M243.8,474.7c-5.9,0-8.9-3.1-10.3-7.3
		l-4.2-13.2h-39.1l-4.2,13.1c-1.4,4.4-4.4,7.5-10.1,7.5c-5.6,0-10.4-4.2-10.4-9.9c0-2.2,0.7-3.9,1-4.6l28.3-76.5
		c2.4-6.5,7.9-11.7,15-11.7c7.5,0,12.7,4.9,15.1,11.7l27.5,76.5c0.8,2.2,1.1,4.2,1.1,5.2C253.5,470.9,249,474.7,243.8,474.7
		 M209.9,394h-0.3l-13.4,40.8H223L209.9,394z M309.8,396.6c-5.8,0-10.3-4.2-18.7-4.2c-6,0-11.5,3.2-11.5,9.1c0,14.5,47,5.2,47,41.5
		c0,20.1-16.6,32.6-36,32.6c-10.8,0-34.2-2.5-34.2-15.7c0-5.5,3.7-10,9.4-10c6.6,0,14.5,5.5,23.6,5.5c9.3,0,14.3-5.2,14.3-12.1
		c0-16.6-47-6.6-47-39.2c0-19.7,16.2-31.9,34.9-31.9c7.9,0,27.6,2.9,27.6,14.1C319.2,391.6,315.6,396.6,309.8,396.6 M346.1,474.7
		c-6,0-10.6-3.9-10.6-11v-79.9c0-7,4.5-11,10.6-11c6,0,10.5,3.9,10.5,11v79.9C356.6,470.8,352.1,474.7,346.1,474.7 M443.2,474.7
		c-2.7,0-6.9-2.1-8.9-4.6l-44.6-58.8h-0.3v52.4c0,7-4.5,11-10.6,11c-6,0-10.5-3.9-10.5-11v-79.9c0-7,4.5-11,10.5-11
		c2.7,0,7,2.1,8.9,4.6l44.6,59.5h0.3v-53.1c0-7,4.5-11,10.6-11c6,0,10.6,3.9,10.6,11v79.9C453.8,470.8,449.2,474.7,443.2,474.7
		 M510,475.6c-28.5,0-48.4-22.6-48.4-51.7c0-29.2,19.7-51.7,48.4-51.7c28.3,0,48.4,23.2,48.4,51.7
		C558.3,452.9,538.8,475.6,510,475.6 M510,391.5c-17.6,0-26.4,15.3-26.4,32.3c0,17.1,8.6,32.3,26.4,32.3c17.9,0,26.4-15.2,26.4-32.3
		C536.4,406.8,527.5,391.5,510,391.5"/>
	<path class="st0" d="M165.5,578.6l23.9,25.6c2,2.1,2.8,4.2,2.8,6.2c0,5.5-4.4,10.8-10.5,10.8c-2.5,0-5.9-1-8.2-3.7l-31.2-37.8H142
		v30.5c0,7-4.5,11-10.5,11c-6,0-10.6-3.9-10.6-11v-79c0-6.7,3.8-11,10.8-11h24.7c21.7,0,35,9.7,35,31.8
		C191.5,567.5,179.8,576.3,165.5,578.6 M156.5,539.6H142v24.9h14.5c7.7,0,13.1-4.6,13.1-12.5C169.6,544,164.2,539.6,156.5,539.6
		 M247,622c-28.6,0-48.4-22.6-48.4-51.7c0-29.2,19.7-51.7,48.4-51.7c28.2,0,48.3,23.2,48.3,51.7C295.4,599.4,275.8,622,247,622
		 M247,537.9c-17.6,0-26.5,15.3-26.5,32.3c0,17.1,8.6,32.3,26.5,32.3c17.8,0,26.4-15.2,26.4-32.3C273.4,553.3,264.6,537.9,247,537.9
		 M348.5,622c-28.6,0-48.4-22.6-48.4-51.7c0-29.2,19.7-51.7,48.4-51.7c28.3,0,48.4,23.2,48.4,51.7C396.8,599.4,377.3,622,348.5,622
		 M348.5,537.9c-17.6,0-26.4,15.3-26.4,32.3c0,17.1,8.6,32.3,26.4,32.3c17.8,0,26.4-15.2,26.4-32.3
		C374.9,553.3,366.1,537.9,348.5,537.9 M504.9,621.2c-7.2,0-10-3.2-11-9.8l-8.3-57.2h-0.3L468.5,613c-1,3.4-3.6,8.1-11.2,8.1
		c-7.6,0-10.3-4.8-11.3-8.1l-16.9-58.9h-0.3l-8.3,57.2c-1,6.6-3.8,9.8-11,9.8c-5.6,0-10.1-3.9-10.1-10.1c0-0.7,0-1.6,0.1-2.4
		l13.1-78.4c0.8-5.1,6.3-10.8,13.8-10.8c7,0,12.5,5.1,14.1,10.1l16.6,55.7h0.3l16.6-55.7c1.5-5.1,7-10.1,14.1-10.1
		c7.5,0,12.9,5.8,13.8,10.8l13.1,78.4c0.1,0.8,0.1,1.7,0.1,2.4C515,617.2,510.5,621.2,504.9,621.2"/>
	<path class="st0" d="M511.8,18c-43.9,0-81.6,27.3-97,65.8c-15.5-38.5-53.1-65.8-97-65.8c-43.7,0-81.2,27-96.8,65.1
		C205.3,45,167.8,18,124.2,18h-7.8v273.6h96.8h15.6h178.5h15.1h97.3V18H511.8z M406.7,276h-178V122.6c0-49.1,39.9-89,89-89
		s89,39.9,89,89V276z"/>
</g>
</svg>
