<svg xmlns="http://www.w3.org/2000/svg" viewBox="0 0 375.51 88.51"><title>Casumo</title><g id="Layer_2" data-name="Layer 2"><g id="Casumo"><path d="M19.08,50.18V55.1a17,17,0,0,0,1.21,8.37c2.76,7,7.89,10.68,15.52,11.15a24.45,24.45,0,0,0,16.77-5.53,16.78,16.78,0,0,0,5-5.54C60,58.82,61.4,53.65,64,49A47.44,47.44,0,0,1,74,36.62c2-1.79,4.47-3,6.36-4.92l.16-.07a13,13,0,0,0,1.36-.36c4.07-1.48,8-3.57,12.54-3.07a7.1,7.1,0,0,0,1.39-.27,23.83,23.83,0,0,1,11.22,1c3.21,1.23,6.39,2.47,8.15,6a6.84,6.84,0,0,1,1,3.71,2,2,0,0,1-2.66,1.87,33.81,33.81,0,0,0-7.77-2A28.76,28.76,0,0,0,91.6,40a22.92,22.92,0,0,0-6.66,4c-5.44,4.39-8.07,10.31-9.23,16.87a16.31,16.31,0,0,0,.63,8.16c.9,2.63,2,4,4.72,4.36,3.52.51,7.69-1.33,9.13-4.5a62.92,62.92,0,0,0,3.15-9.18,26.3,26.3,0,0,1,2.78-7.21A12.06,12.06,0,0,1,109,47.44c.94.22,2.19.54,2.17,1.82s.27,2.54-.51,3.83a21.65,21.65,0,0,0-1.27,3c-1.18,2.91-1.35,6-2.06,9-.48,2-.34,4.26,1.58,5.81a.17.17,0,0,1,.1.24c.49,1.74,1.8,2.15,3.39,2.11l1.08,0A6,6,0,0,0,119.2,70a16.55,16.55,0,0,1,5.8-6.19,4.58,4.58,0,0,1,4.73-.19c1.56.85.81,2.57.82,3.94,0,.3-.26.59-.32.9-.53,2.79,1.68,6.63,4.37,7.1s5.26,1,8,.16c2.11-.61,3.86-1.6,4.74-3.54,1.22-2.7.09-5.17-1.75-7.08a13.77,13.77,0,0,0-4.38-2.83A37.89,37.89,0,0,1,133.9,58c-3.53-2.59-5.35-6.28-6.09-10.6-1-5.71,1.75-12.68,6.76-15.45,3.44-1.91,6.91-4.21,11.21-3.69a1.55,1.55,0,0,0,.48,0c5.42-.93,10.66-.61,15.65,2,1.84,1,2.61.72,3.71-1.14,1.86-3.15,4.91-4.82,7.91-6.52a8.4,8.4,0,0,1,2.57-1.08A30.36,30.36,0,0,1,186.43,21,17.4,17.4,0,0,1,195,24.59c4.56,3.78,5.53,9.22,4.35,14.77a55.19,55.19,0,0,1-3.9,10.85,85.2,85.2,0,0,0-5.26,14.91,10.36,10.36,0,0,0-.17,3.32c.2,2.3,2.12,3.47,4.37,3.11,2.85-.45,4.63-2.36,6.24-4.38a42,42,0,0,0,5.9-9.43c1-2.38,2.05-4.78,2.85-7.21a77.13,77.13,0,0,0,2.77-10.47c.61-3.28.86-6.57,1.29-9.85a2.49,2.49,0,0,1,1.27-1.89c2.48-1.57,10.12.13,11.59,2.69s2.95,5.31,2.42,8.54c.23,4.23-1.28,8.09-2.67,12-1.83,5.11-4.42,9.92-6.2,15.06a4.42,4.42,0,0,0,1.14,5c1.21,1,3.95,1.08,5.58.19,4-2.18,6-6,7.9-9.79a61.69,61.69,0,0,0,4.76-15.1,52.84,52.84,0,0,0,1.2-12.56c-.14-3.24,1-4.68,4.23-5.18,3.09-.48,6-.31,8.62,1.6,2.47,1.78,3,4.53,3.62,7.24a3.73,3.73,0,0,0,.4,1.79c1-1.12,2-2.16,2.84-3.3a25.92,25.92,0,0,1,9.05-7.52,15.07,15.07,0,0,1,13.44-.35,8.23,8.23,0,0,1,4.46,5.84,3.4,3.4,0,0,0,1,2.06,26.57,26.57,0,0,1,6.54-6.24,19.15,19.15,0,0,1,14.62-2.66A9.42,9.42,0,0,1,317,34.93a22.52,22.52,0,0,1,.07,9.07c-1,6-3.93,11.12-6.5,16.42A72.94,72.94,0,0,0,307,68.59c-.85,2.56.81,3.91,2.75,3.78,3.38-.22,5.95-1.85,8.27-4.12a17.33,17.33,0,0,0,3.75-6.31,36,36,0,0,1,5.3-9.73,14.51,14.51,0,0,1,10.28-5.69,4.4,4.4,0,0,1,1,0c3.07.35,4.44,2.47,3,5.2a23.31,23.31,0,0,0-2.45,12.82c.14,2.39.2,4.87,1.45,7.12a4.81,4.81,0,0,0,6.57,2.22c3.52-1.74,5.65-4.8,7.35-8.13a31.5,31.5,0,0,0,3.54-12.2c.17-2.38.56-4.69,0-7.09a10.3,10.3,0,0,0-10-8.24,19.9,19.9,0,0,0-9.15,1.23,5.18,5.18,0,0,1-3.49.39c-2.06-.57-2.69-2.06-1.69-4,1.67-3.17,4.65-4.8,7.69-6a33.91,33.91,0,0,1,15.79-2.56A18.51,18.51,0,0,1,368.74,33c6.92,7.13,7.75,15.8,5.94,25A39.48,39.48,0,0,1,362,80a31.91,31.91,0,0,1-12.83,7.36c-6.93,2-13.52,1.65-19.64-2.55a16.28,16.28,0,0,1-4.09-4.55c-.94-1.37-1.11-1.46-2.32-.35a32.47,32.47,0,0,1-11.27,6.88c-5.57,1.93-11.36,2.57-17,.43-3.84-1.45-5.81-4.65-6.25-8.74-.48-4.35,1-8.35,2.52-12.25,2.19-5.63,4.76-11.11,7.17-16.65a6.94,6.94,0,0,0,.38-2.59c.07-2.39-.47-2.76-2.86-2.1-2.66.74-4.4,2.69-6.19,4.59-3.25,3.45-5.42,7.58-7.49,11.76a81.22,81.22,0,0,0-5.59,14.86c-.58,2.16-1.43,4.37-1.26,6.72a6.37,6.37,0,0,1-1.47,4A3,3,0,0,1,272,88.14c-7.22,1.3-12.75-2.86-12.73-9.69a31.63,31.63,0,0,1,2.3-11.1c1.21-3.27,2.62-6.46,4-9.68a3.9,3.9,0,0,1,.55-.75c1.14-.61,1-1.9,1.49-2.87a30,30,0,0,0,2.35-6.7c.4-1.87-1-3.78-2.38-3.2-1.65.68-3.45,1.13-4.79,2.51a47.72,47.72,0,0,0-9.1,14,90.92,90.92,0,0,0-5.94,17.45,34.06,34.06,0,0,0-1.18,5.06c-.25,3.37-1.76,4.76-5.16,4.87a9.5,9.5,0,0,1-8.17-4c-1.72-2.2-1.7-2.18-4-.54-4.23,3-8.72,5.12-14.1,4.51-.24,0-.48,0-.72,0-3.33-.27-6.19-1.34-8.31-4.19-1-1.38-1.49-3.06-2.68-4.46-1,.89-2.05,1.64-2.91,2.54a23.5,23.5,0,0,1-6.8,4.8c-.75.36-1.54.32-2.28.62a14.72,14.72,0,0,1-9.11.31c-3.82-.93-6.15-3.8-7.47-7.37a21.34,21.34,0,0,1-1.15-10.92,50.42,50.42,0,0,1,2.81-11.19c.69-1.75,1.12-3.61,1.66-5.41l.14-.62c1.33-.22.87-1.55,1.27-2.3a50.15,50.15,0,0,0,3.72-10.17,4.35,4.35,0,0,0-.4-3.21c-1.69-3.31-8.55-4.52-11.23-.58a10.84,10.84,0,0,0-1.7,6c0,2.34-.43,4.57-2.51,6.1-.81.59-1.58,1.24-2.34,1.9C163.6,51.18,161.8,51,160.14,51c-1.1,0-1.67-1.11-1.71-2.26,0-1,0-1.92,0-2.87-.21-3.17-1.48-5.71-4.67-6.78a13.36,13.36,0,0,0-4.4-.83c-3.58,0-6.6,3-5.62,7,.72,3,2.9,4.58,5.3,6,3.11,1.84,6.46,3.25,9.54,5.2a12.55,12.55,0,0,1,6,10.7,16.19,16.19,0,0,1-2.54,9.18,20.84,20.84,0,0,1-8,8,27.66,27.66,0,0,1-14.49,3.74c-1.92,0-3.84.12-5.74,0-3.76-.32-7.36-1.28-10.29-3.77-1.06-.9-1.91-1.06-2.9-.26a23.49,23.49,0,0,1-4.71,2.71c-3.5,1.69-7.23,1.64-10.93,1.13a7.37,7.37,0,0,1-3.86-1.67,12.4,12.4,0,0,1-3.4-5c-.55-1.43-1.26-1.67-2.08-.57a17.61,17.61,0,0,1-6.59,5A22.81,22.81,0,0,1,81,88a63.26,63.26,0,0,1-6.46,0,11,11,0,0,1-5.68-1.41c-2.59-1.61-5.2-3.32-6.59-6.34-.76-1.65-1.76-1.71-3.26-.67a29.47,29.47,0,0,1-2.61,2c-3.43,1.93-6.78,3.84-10.73,4.74-3.56.82-7,1.74-10.72,1.65-2,0-4,0-6,0a12.77,12.77,0,0,1-3.1-.09c-4.5-1.21-8.95-2.43-12.94-5.09a24.34,24.34,0,0,1-8.52-9.71A32,32,0,0,1,.91,60.47a.76.76,0,0,0-.6-.66,13.5,13.5,0,0,1-.1-5.26c1-.26.67-1.12.7-1.77.06-1.67-.32-3.47.18-5,1.42-4.31,2.27-8.77,4-13a79.15,79.15,0,0,1,11.58-19.4c1.68-2.12,3.92-3.7,5.36-6a.27.27,0,0,1,.31-.2c1.92.18,3-1.47,4.19-2.38A36.33,36.33,0,0,1,37.39,1.26C42.7-.49,48.08.14,53.45,0a3.08,3.08,0,0,1,1.14.28A56.59,56.59,0,0,1,61.14,3a18.9,18.9,0,0,1,8.73,10.66,15.19,15.19,0,0,1,.07,9.52A19.12,19.12,0,0,1,60.6,35.47a20.3,20.3,0,0,1-11.43,2.31,10.1,10.1,0,0,1-3.43-.84c-2.05-.87-2.44-2.77-1-4.43.53-.59,1.11-1.14,1.69-1.69a12.73,12.73,0,0,0,4.31-10.39,6.57,6.57,0,0,0-6.53-6.62c-3-.15-5.46,1.26-7.9,2.7-3,1.78-5.05,4.5-7.06,7.23-1,1.41-2.41,2.69-2.58,4.61a.26.26,0,0,1-.12.29,2.45,2.45,0,0,0-1.74,1.78,58.87,58.87,0,0,1-2.67,6.28A31.74,31.74,0,0,0,19.08,50.18Z" style="fill:#fff"/></g></g></svg>