<svg id="Layer_1" data-name="Layer 1" xmlns="http://www.w3.org/2000/svg" xmlns:xlink="http://www.w3.org/1999/xlink" viewBox="0 0 1425.8 392"><defs><style>.cls-1{fill:url(#linear-gradient);}.cls-2{fill:url(#linear-gradient-2);}.cls-3{fill:url(#linear-gradient-3);}.cls-4{fill:url(#linear-gradient-5);}.cls-5{fill:#fff;}</style><linearGradient id="linear-gradient" x1="119.57" y1="-606.15" x2="1074.72" y2="-606.15" gradientTransform="translate(0 716)" gradientUnits="userSpaceOnUse"><stop offset="0" stop-color="#8f329f"/><stop offset="1" stop-color="#3ab0ed"/></linearGradient><linearGradient id="linear-gradient-2" x1="119.57" y1="-606.05" x2="1074.72" y2="-606.05" gradientTransform="translate(0 726.3)" xlink:href="#linear-gradient"/><linearGradient id="linear-gradient-3" x1="119.57" y1="-606.8" x2="1074.72" y2="-606.8" gradientTransform="translate(0 726.3)" xlink:href="#linear-gradient"/><linearGradient id="linear-gradient-5" x1="119.57" y1="-606.05" x2="1074.72" y2="-606.05" xlink:href="#linear-gradient"/></defs><title>genesis_logo_d</title><path class="cls-1" d="M119.3,135.6h52.8q-2.25,22.35-21,38.4c-12.5,10.7-26.7,16-42.4,15.9q-27.75,0-51.4-21.2Q32,145.75,31.9,110.4q0-34.2,22.8-57c15.2-15.4,34-23.2,56.4-23.2q37.35,0,63.5,34.7l22.8-21.8C184.1,27.9,170.7,17,156.9,10.2A107.43,107.43,0,0,0,110.6,0Q64.4,0,32.2,32.2T0,110.3q0,45.15,31.7,77.3t76.1,32.1q45.45,0,75-33.2a89.24,89.24,0,0,0,18.5-31.8c3.8-12.2,5.6-26.3,5.6-42.2v-7H119.4v30.1Z" transform="translate(0 10.3)"/><polygon class="cls-2" points="289 226.1 405.8 226.1 405.8 196.1 321 196.1 321 125.3 403.4 125.3 403.4 95.3 321 95.3 321 44.4 405.8 44.4 405.8 14.4 289 14.4 289 226.1"/><polygon class="cls-3" points="644.3 161.5 489.9 0 489.9 226.1 521.8 226.1 521.8 77.9 676.2 239 676.2 14.4 644.3 14.4 644.3 161.5"/><polygon class="cls-2" points="769.1 226.1 885.9 226.1 885.9 196.1 801 196.1 801 125.3 883.4 125.3 883.4 95.3 801 95.3 801 44.4 885.9 44.4 885.9 14.4 769.1 14.4 769.1 226.1"/><path class="cls-4" d="M1045.5,89.9l-21.1-8.6c-15.3-6.3-23-14.6-23-25a23.6,23.6,0,0,1,8.8-18.7c5.8-5,13.2-7.4,22.1-7.4,7.2,0,13.1,1.5,17.7,4.4,4.4,2.6,9,8,13.8,16.5l25.9-15.3Q1069.15.1,1032.5.1q-27.15,0-45.4,16.2c-12.2,10.8-18.2,24.1-18.2,39.9q0,35.4,43.5,53.8l20.4,8.5a85,85,0,0,1,13.7,7.2,42.85,42.85,0,0,1,9.4,8.1,27,27,0,0,1,5.3,9.5,33.71,33.71,0,0,1,1.7,11.3c0,10.2-3.3,18.7-9.9,25.4s-14.9,10-24.8,10c-12.6,0-22.2-4.6-28.8-13.7-3.7-4.8-6.2-13.4-7.7-25.8l-32.4,7.1q4.35,29.55,22.1,45.9,18,16.35,45.5,16.3,29.1,0,48.7-19.2,19.5-19,19.5-48.3c0-14.5-4-26.8-11.9-36.8S1062.7,96.9,1045.5,89.9Z" transform="translate(0 10.3)"/><rect class="cls-4" x="1175.8" y="14.4" width="31.9" height="211.7"/><path class="cls-4" d="M1413.9,115.4c-8-10-20.5-18.5-37.7-25.4l-21.1-8.6c-15.3-6.3-23-14.6-23-25a23.6,23.6,0,0,1,8.8-18.7c5.8-5,13.2-7.5,22.1-7.5,7.2,0,13.1,1.5,17.7,4.4,4.4,2.6,9,8,13.8,16.5l25.9-15.3Q1399.85.1,1363.2.1q-27.15,0-45.4,16.2c-12.2,10.8-18.2,24.1-18.2,39.9q0,35.4,43.5,53.8l20.4,8.5a89.45,89.45,0,0,1,13.7,7.2,42.85,42.85,0,0,1,9.4,8.1,27,27,0,0,1,5.3,9.5,33.71,33.71,0,0,1,1.7,11.3c0,10.2-3.3,18.7-9.9,25.4s-14.8,10-24.8,10c-12.6,0-22.2-4.6-28.8-13.7-3.7-4.8-6.2-13.4-7.7-25.8l-32.4,7.1q4.35,29.55,22.1,45.9,18,16.35,45.5,16.3,29.1,0,48.7-19.2t19.5-48.2C1425.9,137.7,1421.9,125.4,1413.9,115.4Z" transform="translate(0 10.3)"/><path class="cls-5" d="M334.2,336.4v-.3c0-25,18.7-45.7,44.7-45.7,16,0,25.6,5.7,34.5,14l-6.8,7.3c-7.5-7.1-15.8-12.1-27.8-12.1-19.6,0-34.2,15.9-34.2,36.2v.2c0,20.5,14.8,36.5,34.2,36.5,12.1,0,20.1-4.7,28.5-12.7l6.6,6.4c-9.2,9.3-19.3,15.5-35.3,15.5C353,381.8,334.2,361.7,334.2,336.4Z" transform="translate(0 10.3)"/><path class="cls-5" d="M515.8,291.3h9.3l40.3,89H554.7L544.4,357H496.2l-10.5,23.3H475.5ZM540.4,348l-20.1-45.1L500.1,348Z" transform="translate(0 10.3)"/><path class="cls-5" d="M627,367.4l6.2-7.3c9.2,8.3,18,12.5,30.3,12.5,11.9,0,19.7-6.3,19.7-15v-.2c0-8.2-4.4-12.9-23-16.8-20.3-4.4-29.7-11-29.7-25.5v-.3c0-13.9,12.2-24.1,29-24.1,12.9,0,22.1,3.7,31,10.8l-5.8,7.7c-8.2-6.7-16.4-9.6-25.5-9.6-11.5,0-18.8,6.3-18.8,14.3v.2c0,8.3,4.6,13,24,17.2,19.7,4.3,28.8,11.5,28.8,25v.2c0,15.2-12.6,25-30.2,25C649,381.5,637.6,376.9,627,367.4Z" transform="translate(0 10.3)"/><path class="cls-5" d="M766.2,291.9h10v88.3h-10Z" transform="translate(0 10.3)"/><path class="cls-5" d="M853.8,291.9h9.3l55.7,70.8V291.9h9.7v88.3h-8l-57.1-72.5v72.5h-9.7Z" transform="translate(0 10.3)"/><path class="cls-5" d="M1001.3,336.4v-.3c0-24.4,18.3-45.7,45.2-45.7s44.9,21.1,44.9,45.4v.2c0,24.4-18.3,45.7-45.2,45.7S1001.3,360.7,1001.3,336.4Zm79.8,0v-.3c0-20.1-14.6-36.5-34.8-36.5s-34.6,16.2-34.6,36.2v.2c0,20.1,14.6,36.5,34.8,36.5S1081.1,356.4,1081.1,336.4Z" transform="translate(0 10.3)"/></svg>