<svg id="Layer_2" data-name="Layer 2" xmlns="http://www.w3.org/2000/svg" viewBox="0 0 124.77 47.46"><defs><style>.cls-2{fill:#428c41}.cls-3{fill:#397b3b}.cls-4{fill:#2f6230}.cls-6{fill:#3c8245}.cls-7{fill:#307439}.cls-11{fill:#377237}.cls-12{fill:#437939}.cls-15{fill:#4b8e41}.cls-17{fill:#7eb742}.cls-18{fill:#41823e}.cls-19{fill:#42873f}.cls-20{fill:#539843}.cls-21{fill:#75a340}.cls-22{fill:#357238}.cls-26{fill:#2f6431}.cls-29{fill:#36763a}.cls-37{fill:#428940}.cls-38{fill:#357539}.cls-47{fill:#2b242e}.cls-48{fill:#ef384b}.cls-49{fill:#84ab41}.cls-50{fill:#629640}.cls-51{fill:#8ab343}.cls-52{fill:#558a3e}.cls-53{fill:#5d843a}.cls-54{fill:#628439}.cls-55{fill:#4a7b3a}.cls-66{fill:#79973c}.cls-72{fill:#4c9149}.cls-77{fill:#5d9841}.cls-81{fill:#5ba545}.cls-82{fill:#58823a}.cls-83{fill:#010101}.cls-84{fill:#a6c856}.cls-85{fill:#b3d672}.cls-86{fill:#8bba41}.cls-87{fill:#81aa40}.cls-88{fill:#82ab40}.cls-89{fill:#70a542}.cls-90{fill:#8ebc3f}.cls-91{fill:#5a9842}.cls-92{fill:#619640}.cls-93{fill:#28c3f3}.cls-94{fill:#77cfe1}.cls-95{fill:#3c5581}.cls-96{fill:#387fc2}.cls-97{fill:#482826}.cls-98{fill:#0170a0}.cls-99{fill:#159cd1}.cls-100{fill:#77d0e8}.cls-101{fill:#58c8e0}.cls-102{fill:#55391e}</style></defs><path d="M91.62 14.72a2.65 2.65 0 0 1 .32-1.63c.46-.62 1.22-2-1.54-3.93a9.25 9.25 0 0 0-5.2-2c-1-.12-1.85-.88-1.65-.16a21.54 21.54 0 0 0 .45 3.11c.54 2.13 2 4.5 3.46 5s3.01-.63 4.16-.39z" transform="translate(-2.92 -2.97)" fill="#579943"/><path class="cls-2" d="M84 10.11a9.28 9.28 0 0 0 2.4 4.31 1.56 1.56 0 0 0-.41-1.2c-.64-.7-1.67-2.78-1.08-2.63s1.46 1 1.31.57-.63-2.65.78-2.24 1.19 1.95 2.2 1.91a2.29 2.29 0 0 1 2.39 1 1.63 1.63 0 0 0 .69.57c.25-.74.13-1.87-1.9-3.28a9.25 9.25 0 0 0-5.2-2c-1-.12-1.85-.88-1.65-.16a21.54 21.54 0 0 0 .47 3.15z" transform="translate(-2.92 -2.97)"/><path class="cls-3" d="M83.9 9.61c.19-.35.38-.59.39-.28 0 .62-.06-.05.34 0s.13.34.76.45 1.49 1.74 2.38 2.35c1.37.94 1.51 1.57-.78-1.16-1.91-2.27-2-2.77-1.66-2.83s.41.29.87 0 1.11-.4 2.11.44.28 1.49 1.23 1.35 1-.43 1.71.75c.27.42.66 1.16 1 1.79.29-.75.22-1.9-1.87-3.35a9.25 9.25 0 0 0-5.2-2c-1-.12-1.85-.88-1.65-.16s-.01.98.37 2.65z" transform="translate(-2.92 -2.97)"/><path class="cls-4" d="M83.72 8.67a.47.47 0 0 0 .44-.46c0-.4.65-.74 1.31-1h-.27c-1-.12-1.85-.88-1.65-.16.13.44.04.74.17 1.62z" transform="translate(-2.92 -2.97)"/><path d="M87.54 15.08c1.45.41 2.94-.6 4.08-.36a2.65 2.65 0 0 1 .32-1.63 1.91 1.91 0 0 0 .37-1.77c-.58-.07-1.1.13-1 .48.13.76-1-.18-1.6 0s-.49 1.41-.61 1.77-.61.5-1.45-.3-1-.23-.65.6a7.74 7.74 0 0 0 .54 1.21z" transform="translate(-2.92 -2.97)" fill="#469443"/><path class="cls-6" d="M91.94 13.09l.12-.17c-.34.27-.85 1.5-1.12 1.31s-.65-.51-.78-.36 0 .71-.45.73c-.32 0-.11.06.34.28a3.82 3.82 0 0 1 1.57-.16 2.65 2.65 0 0 1 .32-1.63z" transform="translate(-2.92 -2.97)"/><path class="cls-7" d="M90.63 14.11a6.07 6.07 0 0 1-1-.59l-.48-.33-.44-.38A21.31 21.31 0 0 1 87 11.22c-.55-.56-1-1.15-1.57-1.72a4.88 4.88 0 0 1-.37-.45c-.11-.16-.24-.31-.34-.47l-.32-.48-.28-.5c-.06-.12-.08-.11 0 0l.27.5.31.49.34.48a5.07 5.07 0 0 0 .36.45c.51.59 1 1.19 1.54 1.76s1.08 1.13 1.69 1.63l.44.39.48.34a6.51 6.51 0 0 0 1 .62 1.6 1.6 0 0 0 .58.17h.19c-.01 0-.07 0-.19-.09s-.26-.15-.5-.23z" transform="translate(-2.92 -2.97)"/><path class="cls-7" d="M89 12.8a5 5 0 0 0 .09-2.88 4.83 4.83 0 0 1-.24 2.78c-.18.3.01.41.15.1z" transform="translate(-2.92 -2.97)"/><path class="cls-7" d="M88.56 12.72l-.81-.26-.75-.31q-.39-.15-.78-.33l-.79-.35.77.39.78.37.79.35.8.3c.32.12.36-.03-.01-.16zM86.83 10.83c0-.18 0-.36-.08-.54l-.11-.52c-.08-.36-.21-.7-.31-1 .08.35.18.69.23 1l.07.52v.52c0 .17.21.26.2.02zM89.6 13.64a16.6 16.6 0 0 1-2.42.35 14.67 14.67 0 0 0 2.47-.18c.27-.02.22-.23-.05-.17zM90.45 13.85a3.33 3.33 0 0 0 .67-1.45 3 3 0 0 0-.19-1.66c0-.05 0 0 0 0a2.79 2.79 0 0 1 .1 1.61 3.2 3.2 0 0 1-.72 1.36c-.11.13-.14.22-.1.26s.12.03.24-.12z" transform="translate(-2.92 -2.97)"/><path class="cls-7" d="M88.33 12.65l.31.27.44.39.48.34a6.51 6.51 0 0 0 1 .62 1.6 1.6 0 0 0 .58.17h.19c-.01 0-.07 0-.19-.09s-.28-.12-.52-.2a6.07 6.07 0 0 1-1-.59l-.48-.33-.36-.31a4.88 4.88 0 0 0-.45-.27zM84.4 8.11l.31.49.34.48a5.07 5.07 0 0 0 .36.45l.7.82v-.16l-.62-.69a4.88 4.88 0 0 1-.37-.45c-.11-.16-.24-.31-.34-.47l-.32-.48-.28-.5c-.06-.12-.08-.11 0 0z" transform="translate(-2.92 -2.97)"/><path d="M80.39 13.66a5.86 5.86 0 0 1-3.58-1.53c-1.46-1.46-1.6-2.7-2.07-4a17.75 17.75 0 0 0-.93-2.48c-.25-.41.25.33 1.1.61s1.57 0 3.28.82 2.06 2.84 2.53 4.35 1.13 2.22-.33 2.23z" transform="translate(-2.92 -2.97)" fill="#469644"/><path d="M76.81 12.13a5.17 5.17 0 0 0 2.08 1.23 2.09 2.09 0 0 0-.53-.94c-.67-.7-1.25-.73-1.56-1.68-.24-.74-1.2-4.26-2.45-3.74l.39 1.13c.47 1.3.61 2.54 2.07 4z" transform="translate(-2.92 -2.97)" fill="#448e44"/><path d="M78.19 7.06a6.76 6.76 0 0 0-1.39-.51c.18.27.78.92.84 1.09a3.89 3.89 0 0 1 .16 1.17c.1 1.33 1 .9 1.48 1.85s-.47 1.76-.48 2.67a6.29 6.29 0 0 0 1.59.33c1.46 0 .8-.73.33-2.25s-.82-3.52-2.53-4.35z" transform="translate(-2.92 -2.97)" fill="#408c41"/><path class="cls-11" d="M73.81 5.63a17.75 17.75 0 0 1 .93 2.48A8.79 8.79 0 0 0 76.63 12a8.32 8.32 0 0 0-.38-.93c-.19-.35-.79-1-.74-1.4 0-.26.38-.17.39-.3 0-.77-.76-1-.83-1.59s.8-.78.87-1.32a4.93 4.93 0 0 1-1-.17c-.88-.29-1.38-1.07-1.13-.66z" transform="translate(-2.92 -2.97)"/><path class="cls-3" d="M80.39 11.76c.43 2.44-1.93 1.18-3.12.6a.5.5 0 0 0 0 .13 6 6 0 0 0 3.17 1.17c1.46 0 .8-.73.33-2.25-.18-.57-.34-1.22-.56-1.84a6.24 6.24 0 0 0 .18 2.19z" transform="translate(-2.92 -2.97)"/><path class="cls-3" d="M80.86 13.05A17.94 17.94 0 0 1 79.18 12a7.54 7.54 0 0 1-1.44-1.38 1.28 1.28 0 0 1-.14-.21.92.92 0 0 1-.13-.21l-.1-.23-.1-.23c-.07-.16-.12-.32-.2-.47l-.24-.45a9.7 9.7 0 0 0-1.25-1.6c-.11-.14-.15-.12 0 0a8.59 8.59 0 0 1 1.21 1.61l.23.45.2.46.19.47c.07.16.09.15.13.23a1.53 1.53 0 0 0 .14.21 7.5 7.5 0 0 0 1.45 1.42 15.54 15.54 0 0 0 1.69 1.13c.29.16.45.2.47.17s-.14-.15-.43-.32z" transform="translate(-2.92 -2.97)"/><path class="cls-3" d="M80.66 12.86c-.16-.35-.32-.7-.45-1.06a4 4 0 0 1-.29-1.1 3.92 3.92 0 0 0 .23 1.13 11.12 11.12 0 0 0 .42 1.09c.04.17.16.08.09-.06zM79.63 12.36l-1.14-.18c-.19 0-.39-.06-.57-.11l-.56-.13s-.07 0 0 0l.55.17.57.13a10.92 10.92 0 0 0 1.14.22c.17.06.19-.08.01-.1zM78.87 11.53c0-.55 0-1.11-.09-1.67a7.83 7.83 0 0 0-.1-.83l-.07-.41-.11-.41c0-.08-.06-.07 0 0l.09.41.06.41c0 .28 0 .55.07.83v1.67c.01.27.15.27.15 0zM77.84 10.84A6.28 6.28 0 0 1 76 10s-.06 0 0 0l.2.16.21.14a4 4 0 0 0 .46.24 6.61 6.61 0 0 0 1 .38c.13.08.13-.03-.03-.08zM77.38 9.86c0-.4 0-.8-.07-1.19a5.14 5.14 0 0 0-.22-1.17c0-.06 0 0 0 0a5 5 0 0 1 .17 1.17v1.18c.02.2.13.2.12.01zM76.7 8.69l-.7-.43-.38-.26-.34-.24.34.26.38.28c.23.16.47.31.71.45s.1.01-.01-.06z" transform="translate(-2.92 -2.97)"/><path class="cls-12" d="M69.46 22.06A17.23 17.23 0 0 1 71 17.24a9 9 0 0 1 .66-1.07l.4-.47a1.15 1.15 0 0 1 .22-.22l.23-.21a5.74 5.74 0 0 1 2.18-1.16l.67-.17.69-.13c.46-.08.94-.18 1.39-.22s.92-.06 1.39-.06h1.41a75.98 75.98 0 0 1 10.24 1.15c.75.13 1.5.3 2.24.48a16.21 16.21 0 0 1 2.18.68 9.76 9.76 0 0 1 2 1.12 14.44 14.44 0 0 1 1.77 1.46 22.76 22.76 0 0 1 3 3.52c.2.29.33.33.19.08a18.77 18.77 0 0 0-2.49-3.27 17.39 17.39 0 0 0-1.66-1.53 12 12 0 0 0-2-1.3l-.26-.14-.27-.12-.55-.23c-.37-.12-.74-.25-1.12-.35s-.75-.21-1.12-.29l-1.12-.24a87.85 87.85 0 0 0-9.92-1.28c-.47 0-.94-.06-1.42-.07H77.07c-.24 0-.47.07-.7.11l-.7.12a7.93 7.93 0 0 0-2.71.93 5.8 5.8 0 0 0-2 2 10.1 10.1 0 0 0-1.12 2.62c-.07.22-.15.45-.2.68l-.15.69c-.11.46-.17.93-.24 1.39-.06.78.06 1.02.21.32z" transform="translate(-2.92 -2.97)"/><path class="cls-12" d="M62.24 18.66a3.08 3.08 0 0 0 1.38-1.21 7.11 7.11 0 0 0 .37-.81 2.59 2.59 0 0 1 .42-.68l.15-.16.17-.15a3.17 3.17 0 0 1 .36-.28 5.33 5.33 0 0 1 .8-.46 8.18 8.18 0 0 1 1.78-.55 18.9 18.9 0 0 1 3.08-.36 17.27 17.27 0 0 1 3.12.16c.12 0 .16-.07.07-.1-1.65-.61-4.13-.35-5.93-.05a9.58 9.58 0 0 0-1.88.47 5.59 5.59 0 0 0-1.69 1l-.35.35a3.71 3.71 0 0 0-.28.41c-.16.29-.26.6-.39.88a3 3 0 0 1-.52.78l-.34.32-.38.28c-.13.09-.18.27.06.16z" transform="translate(-2.92 -2.97)"/><path d="M72.91 13.42c-.11.92-1.9 2.3-3.8 1.24a25 25 0 0 1-3.19-2.24c-.67-.43-1.17-.48-.26-.74a6.37 6.37 0 0 1 3.15-.54c1.51.16 4.35.27 4.1 2.28z" transform="translate(-2.92 -2.97)" fill="#60a346"/><path d="M65.66 11.68c-.91.26-.41.31.26.74.49.32 1 .81 2 1.48a1.82 1.82 0 0 1 .31-.36c.28-.24.8-.47.83-.79s-.72-.73-.76-1.22a1.21 1.21 0 0 0-.14-.43 7.8 7.8 0 0 0-2.5.58z" transform="translate(-2.92 -2.97)" fill="#74aa42"/><path class="cls-15" d="M69.79 11.72c.4.47 1.27.92 1 1.68-.21.51-1.36.79-1.86.69s-1.06-1.07-1.73-.76v.07a16.28 16.28 0 0 0 1.93 1.26c1.9 1.06 3.69-.32 3.8-1.24.22-1.74-1.88-2.05-3.43-2.21a5.55 5.55 0 0 0 .29.51z" transform="translate(-2.92 -2.97)"/><path d="M72 11.81c-.2.91.32 1.41-.17 2.26a3 3 0 0 1-.78.92 2.28 2.28 0 0 0 1.84-1.57 1.49 1.49 0 0 0-.89-1.61z" transform="translate(-2.92 -2.97)" fill="#45873f"/><path class="cls-17" d="M65.66 11.68c-.91.26-.41.31.26.74a6 6 0 0 1 .49.36c-.28-.45-.42-.84 0-1a1.62 1.62 0 0 0 .89-.64 14.12 14.12 0 0 0-1.64.54z" transform="translate(-2.92 -2.97)"/><path class="cls-18" d="M72.56 13.39a7.68 7.68 0 0 1-1.44-.06c-.12 0-.24-.05-.35-.07a2 2 0 0 1-.35-.09l-.69-.23-.73-.25c-.23-.08-.46-.14-.7-.21-.46-.14-.94-.26-1.41-.37-.13 0-.14 0 0 0 .47.12.94.25 1.4.4.23.08.47.14.69.23l.68.26.69.25a2.37 2.37 0 0 0 .36.09 2.33 2.33 0 0 0 .36.08 7.21 7.21 0 0 0 1.47.07c.23 0 .35-.07.34-.11s-.09-.01-.32.01z" transform="translate(-2.92 -2.97)"/><path class="cls-18" d="M72.16 13.34c-.14-.27-.29-.53-.45-.79a4.37 4.37 0 0 0-.55-.75 4.17 4.17 0 0 1 .49.77l.42.81c.04.16.16.09.09-.04zM71.77 13.5c-.29.23-.59.45-.9.65a3.58 3.58 0 0 1-1 .5c-.05 0-.05 0 0 0a3.7 3.7 0 0 0 1-.45 8 8 0 0 0 .93-.63c.2-.08.1-.17-.03-.07zM71.09 13.24a11.58 11.58 0 0 0-.74-1l-.41-.45a2.36 2.36 0 0 0-.5-.38s-.07 0 0 0a1.73 1.73 0 0 1 .46.39 5.71 5.71 0 0 1 .39.47c.25.33.47.66.7 1 .09.21.21.13.1-.03zM70.1 13.15a4.34 4.34 0 0 1-1.51.28 3.61 3.61 0 0 0 1.56-.19c.12 0 .06-.13-.05-.09zM69.18 12.71a6.72 6.72 0 0 0-.86-.91c.3.29.53.63.8.94.04.11.12.05.06-.03zM68.23 12.51l-.39.17a1 1 0 0 1-.4.1 1.15 1.15 0 0 0 .41-.08 2.78 2.78 0 0 0 .4-.16c.06-.01.04-.06-.02-.03z" transform="translate(-2.92 -2.97)"/><path class="cls-19" d="M72.67 14.62c-.42-.37-2.26.17-2.55 2.15s.38 3 .16 4.2-.12.91.6.63 1.43 0 2.47-1.87 1-4 .44-4.6-.79-.2-1.12-.51z" transform="translate(-2.92 -2.97)"/><path class="cls-3" d="M72.67 14.62c-.38-.34-2 .09-2.45 1.71.65-.19 1.09-1.29 1.9-1.3a2 2 0 0 1 1.74 1.55c0 .88-.25 1.78-.29 2.7.8-1.78.75-3.57.22-4.15s-.79-.2-1.12-.51z" transform="translate(-2.92 -2.97)"/><path class="cls-20" d="M70.06 17.37c-.09 1.6.41 2.49.22 3.6s-.12.91.6.63 1.26 0 2.11-1.28a11.6 11.6 0 0 0-.14-1.65c-.11-.55-.41-2.12-1.25-1.91-.33.08-.34.67-.7.79s-.52-.09-.84-.18z" transform="translate(-2.92 -2.97)"/><path class="cls-21" d="M70.28 21c-.22 1.23-.12.91.6.63.51-.19 1-.09 1.65-.7-.31-.06-.85.25-1 .15s-.25-.94-.48-1.19-.77.09-.56-.65c.08-.29 0-1.28-.43-1.37 0 1.28.39 2.13.22 3.13z" transform="translate(-2.92 -2.97)"/><path class="cls-22" d="M72.66 15a6.7 6.7 0 0 0-.6 1.34 5.25 5.25 0 0 0-.24 1.46 9.06 9.06 0 0 1-.55 2.84c0 .13 0 .15 0 0 .84-1.79.32-3.94 1.47-5.59.12-.2.15-.32.12-.34s-.08.09-.2.29z" transform="translate(-2.92 -2.97)"/><path class="cls-22" d="M72.34 15.5a6 6 0 0 0-1.54.94 7.68 7.68 0 0 1 1.57-.85c.16-.02.1-.15-.03-.09zM72.6 15.44a4.84 4.84 0 0 1 .79 2c0 .06 0 .06 0 0a4.4 4.4 0 0 0-.72-2.09c-.05-.14-.17-.06-.07.09zM72 16.89a6.72 6.72 0 0 1 .91 2.11c0 .06 0 .05 0 0a5.62 5.62 0 0 0-.8-2.2c-.06-.14-.17-.06-.11.09zM71.8 17.71A6.23 6.23 0 0 0 70.67 19s0 .05 0 0a8.49 8.49 0 0 1 1.18-1.22.12.12 0 0 0 0-.08h-.05a.09.09 0 0 0 0 .01zM71.79 18.75l.53 1.33c-.15-.45-.28-.92-.46-1.36-.02-.12-.11-.08-.07.03zM71.56 19.74a1.64 1.64 0 0 1-.22.14l-.22.15a3.62 3.62 0 0 0 .48-.25s0-.07-.04-.04z" transform="translate(-2.92 -2.97)"/><path d="M67 14.54c-.15.46-1.81 1.64-3.7 1.91s-2.76-.45-3.3-.16-1.19.55-.76 0A5.41 5.41 0 0 1 61.67 14c1.45-.58 5.74-.55 5.33.54z" transform="translate(-2.92 -2.97)" fill="#48873f"/><path class="cls-11" d="M64.44 13.63c.19.86 2.69.43 1.16 2a.27.27 0 0 0-.07.08A3.45 3.45 0 0 0 67 14.54c.26-.63-1.1-.91-2.56-.91z" transform="translate(-2.92 -2.97)"/><path d="M62.49 14.37s0-.27-.07-.57a3.84 3.84 0 0 0-.75.2 5 5 0 0 0-2.3 2 1.73 1.73 0 0 0 .35.37l.24-.1c.49-.21 1.23.26 2.62.23a5.11 5.11 0 0 1 .66-.77c.29-.22 1.27-.47.72-1-.39-.28-1.1.18-1.47-.36z" transform="translate(-2.92 -2.97)" fill="#5a9747"/><path d="M59.2 16.26c-.43.58.17.28.76 0a.9.9 0 0 1 .55 0c-.24-.34-.27-.21-.11-.79a11.13 11.13 0 0 0 .87-1.28 5.73 5.73 0 0 0-2.07 2.07z" transform="translate(-2.92 -2.97)" fill="#79a34e"/><path class="cls-26" d="M66.71 14.3a20.68 20.68 0 0 0-2.94.23 9.58 9.58 0 0 0-2.82.85c-.13.06-.11.1 0 0a9.17 9.17 0 0 1 2.82-.78 23.74 23.74 0 0 1 2.92-.2c.49.05.49-.09.02-.1z" transform="translate(-2.92 -2.97)"/><path class="cls-26" d="M65.23 14.32a8.89 8.89 0 0 0-2.35-.32c-.06 0-.06 0 0 0a10.69 10.69 0 0 1 2.31.43c.18.08.22-.06.04-.11zM65.87 14.41c-.36.24-.72.48-1.1.71a5.76 5.76 0 0 1-1.16.59s0 .06 0 0a6 6 0 0 0 1.21-.54 13 13 0 0 0 1.18-.65c.13-.12.05-.23-.13-.11zM63.36 14.69l-.76.56a4.14 4.14 0 0 1-.8.48 3.93 3.93 0 0 0 .83-.45c.27-.17.52-.36.77-.55s.08-.13-.04-.04z" transform="translate(-2.92 -2.97)"/><path class="cls-19" d="M63.9 16.81c-.58.69-.08.73-1.13 2.54a6.74 6.74 0 0 1-3.93 3c-1.14.33-2.17 1.12-1.82.36a27.14 27.14 0 0 1 1.41-2.69c.88-1.55 1.32-1.32 2.85-2.11s2.91-1.45 2.62-1.1z" transform="translate(-2.92 -2.97)"/><path class="cls-20" d="M60.77 19.49c-.19-.17-.54.18-.81 0s-.2-.54-.15-.83a3 3 0 0 0-1.38 1.45A27.14 27.14 0 0 0 57 22.75c-.35.76.68 0 1.82-.36A7 7 0 0 0 61 21.34c0-.39-.1-.78-.12-1-.07-.48.18-.58-.11-.85z" transform="translate(-2.92 -2.97)"/><path class="cls-21" d="M59.16 19.06a4.16 4.16 0 0 0-.73 1A27.14 27.14 0 0 0 57 22.75c-.35.76.68 0 1.82-.36a6.93 6.93 0 0 0 .79-.28c-.17-.31-1.05.11-1.45.11s-.54-.1-.44-.3a14.8 14.8 0 0 1 1.38-2.13.56.56 0 0 0 .06-.73z" transform="translate(-2.92 -2.97)"/><path class="cls-3" d="M61.86 20.57a6.36 6.36 0 0 0 .91-1.22c1-1.81.55-1.85 1.13-2.54.27-.33-1 .29-2.43 1l.48-.07c.75-.11.83.66.36 1.48a4.25 4.25 0 0 0-.45 1.35z" transform="translate(-2.92 -2.97)"/><path class="cls-22" d="M63.55 16.88a12.15 12.15 0 0 0-2.63 2.28l-.56.66-.28.34c-.09.11-.2.2-.3.3a8.53 8.53 0 0 1-.62.59l-.33.28-.35.26c-.13.1-.11.13 0 0l.35-.25.33-.27c.24-.18.43-.39.65-.59l.31-.3.28-.33.57-.66A13.34 13.34 0 0 1 63.63 17c.46-.31.37-.43-.08-.12z" transform="translate(-2.92 -2.97)"/><path class="cls-22" d="M61.43 18.56a9.89 9.89 0 0 0-1.43.74s0 .05 0 0a13 13 0 0 1 1.47-.67c.12-.02.08-.12-.04-.07zM62.21 18c-.13.35-.26.7-.4 1a7 7 0 0 1-.46 1c0 .05 0 .06 0 0a7.17 7.17 0 0 0 .52-1l.42-1c.08-.13-.02-.17-.08 0zM60 20.37a5.84 5.84 0 0 1-.15.6 1.49 1.49 0 0 1-.24.56 1.59 1.59 0 0 0 .28-.55c.06-.2.12-.4.16-.6s-.05-.1-.05-.01z" transform="translate(-2.92 -2.97)"/><path d="M69.05 22.13c-.87.29-1.54 1.24-1 3.39s1.27 3 1.29 4.16-.69 2.5 0 1.76a6.94 6.94 0 0 0 2.26-4 6.71 6.71 0 0 0-1-4.51c-.72-.78-1.07-.93-1.55-.8z" transform="translate(-2.92 -2.97)" fill="#519543"/><path d="M69.05 22.13c-.87.29-1.54 1.24-1 3.39 0 .19.09.36.13.53a2.31 2.31 0 0 0 .4-.3c.29-.27.15-.6.61-.76.06 0 .67-.09.64 0-.16.56.59 1.41.8 1.9a10.75 10.75 0 0 0 .52 1.51l.16.22a4.43 4.43 0 0 0 .29-1.23 6.71 6.71 0 0 0-1-4.51c-.72-.73-1.07-.88-1.55-.75z" transform="translate(-2.92 -2.97)" fill="#498c40"/><path class="cls-3" d="M68 25.52l.06.23v-.05c.39-.56-.24-1.64.1-2.2.9-1.46 1.49.47 1.86.92s.76.28 1 1c.18.59.13 1.27.27 1.88a2.32 2.32 0 0 0 .18.55 3.4 3.4 0 0 0 .07-.46 6.71 6.71 0 0 0-1-4.51c-.66-.75-1-.94-1.49-.77-.87.31-1.54 1.26-1.05 3.41z" transform="translate(-2.92 -2.97)"/><path class="cls-20" d="M69.3 29.68c0 1.12-.69 2.5 0 1.76a12.47 12.47 0 0 0 1.42-1.72c.16-1 0-2-1.08-2.24-.14 0-.34.15-.49.07s-.25-.53-.49-.64a1 1 0 0 0-.27-.08 10.85 10.85 0 0 1 .91 2.85z" transform="translate(-2.92 -2.97)"/><path class="cls-21" d="M69.3 31.44l.61-.66a2.17 2.17 0 0 1-.14-.39 7 7 0 0 0-1-2.7 2.21 2.21 0 0 1 0 .25 4.91 4.91 0 0 1 .48 1.74c.08 1.12-.64 2.5.05 1.76z" transform="translate(-2.92 -2.97)"/><path class="cls-29" d="M69.08 22.45a3 3 0 0 0 .27 1.66 9.67 9.67 0 0 1 .5 1.58 15.25 15.25 0 0 1 .3 1.64c0 .28.06.55.07.83a4.5 4.5 0 0 1 0 .82c0 .15 0 .16 0 0a4.74 4.74 0 0 0 0-.84 7.91 7.91 0 0 0-.06-.83 13.19 13.19 0 0 0-.16-1.64 9.91 9.91 0 0 0-.47-1.61 2.76 2.76 0 0 1-.26-1.59c0-.25.07-.38 0-.4s-.14.1-.19.38z" transform="translate(-2.92 -2.97)"/><path class="cls-29" d="M69.14 23.15l1.17 1.19c-.37-.42-.71-.86-1.09-1.26-.07-.08-.17-.03-.08.07zM69.55 24.71a6 6 0 0 1-.28 2.14s0 .06 0 0a5.11 5.11 0 0 0 .38-2.16c.02-.17-.12-.15-.1.02zM70 26a2.22 2.22 0 0 1 .72 1.16 2.1 2.1 0 0 0-.66-1.27c-.06-.05-.16.11-.06.11z" transform="translate(-2.92 -2.97)"/><path d="M97.45 12.77a1.76 1.76 0 0 1-2.22-.38c-.81-1-.84-2.75-.59-4.43s.19-2.56.41-1.92a9.52 9.52 0 0 0 1.27 2.56c.99 1.59 2.07 3.62 1.13 4.17z" transform="translate(-2.92 -2.97)" fill="#3f823d"/><path class="cls-2" d="M95.34 8a2.76 2.76 0 0 0 .52.71 2.11 2.11 0 0 1 .53.72 1.21 1.21 0 0 1 0 .75 1.09 1.09 0 0 0-.08.31v.39c0 .13-.09.5 0 .76s.21.39.3.59a3.41 3.41 0 0 1 .2.76 2.24 2.24 0 0 0 .64-.21c.94-.55-.14-2.58-1.13-4.17a18.7 18.7 0 0 1-.81-1.42.3.3 0 0 0-.15.07c-.21.17-.11.52-.02.74z" transform="translate(-2.92 -2.97)"/><path d="M94.9 8a.24.24 0 0 0-.27 0c-.23 1.65-.19 3.37.6 4.34a1.63 1.63 0 0 0 1.43.61 1.37 1.37 0 0 0 0-.19.65.65 0 0 0-.05-.2c0-.11-.07-.23-.1-.34a1.18 1.18 0 0 0-.12-.28.91.91 0 0 1-.08-.13 2.5 2.5 0 0 0-.15-.38 1.06 1.06 0 0 1-.16-.34 1.64 1.64 0 0 0-.16-.29c0-.1-.09-.21-.14-.31a4.86 4.86 0 0 1-.25-.63 2.91 2.91 0 0 1-.17-.66 2.3 2.3 0 0 0-.07-.58c0-.09-.08-.18-.11-.27a.54.54 0 0 0-.2-.35z" transform="translate(-2.92 -2.97)" fill="#6ca843"/><path class="cls-3" d="M97.28 10.38c.1.24.19.67-.07.85s-.42-.27-.52-.41-.08-.12-.14-.08 0 .16 0 .21-.06.35-.06.53v.48c0 .16 0 .23-.13.24s-.42-.2-.53.08a1 1 0 0 0 0 .54 1.9 1.9 0 0 0 1.7-.05c.7-.41.28-1.64-.39-2.91a4.77 4.77 0 0 0 .14.52z" transform="translate(-2.92 -2.97)"/><path class="cls-4" d="M97 12.66a11.57 11.57 0 0 1-1.13-1.88 7.52 7.52 0 0 1-.39-1 4.36 4.36 0 0 1-.18-1.08c0-.1 0-.1 0 0a5 5 0 0 0 .16 1.09 6.51 6.51 0 0 0 .36 1.05 10.32 10.32 0 0 0 1.12 1.93c.15.23.26.17.06-.11z" transform="translate(-2.92 -2.97)"/><path class="cls-4" d="M97 12.56a5.14 5.14 0 0 0 0-1.24v1.2a.07.07 0 1 0 0 .04zM96.48 12a3.32 3.32 0 0 1-1.2-.84 2.9 2.9 0 0 0 .53.52 3.87 3.87 0 0 0 .64.41c.07.12.13-.01.03-.09zM96 9.92a4.36 4.36 0 0 1 0 1.35l.07.09a.09.09 0 0 0 0-.06 3.57 3.57 0 0 0 0-1.42s-.07.01-.07.04zM95.46 10a1.79 1.79 0 0 1-.53-.87 1.67 1.67 0 0 0 .5.93c.05.01.09-.06.03-.06z" transform="translate(-2.92 -2.97)"/><path class="cls-4" d="M97.76 12.16a.49.49 0 0 1-.11.23c-.07.09-.21.32-.33.32s-.31-.28-.38-.39-.15-.3-.23-.44a1 1 0 0 0 .06.42c0 .12.06.32-.07.39s-.3-.06-.43-.09a3.08 3.08 0 0 1-.43 0 2 2 0 0 1-.61-.43A2.41 2.41 0 0 1 95 12a1.75 1.75 0 0 1-.13-.28.51.51 0 0 0-.09-.13 2.83 2.83 0 0 0 .46.84 1.76 1.76 0 0 0 2.22.38.83.83 0 0 0 .35-.87 2.34 2.34 0 0 1-.05.22z" transform="translate(-2.92 -2.97)"/><path d="M95.1 12.21a2.84 2.84 0 0 1 0-.41 3.44 3.44 0 0 1 .11-.38 1.1 1.1 0 0 0 0-.51l-.25-.82a2.48 2.48 0 0 1-.12-.54 5.81 5.81 0 0 1 0-.59.65.65 0 0 1 .1-.41c.08-.09.22-.11.29-.21s.06-.21.07-.33.06-.27.21-.21.25.24.37.34.31.29.46.44A9.39 9.39 0 0 1 95.05 6c-.22-.64-.16.24-.41 1.92s-.22 3.28.46 4.29z" transform="translate(-2.92 -2.97)" fill="#71b143"/><path d="M94.51 9.4a1.57 1.57 0 0 0 0-.23c0-.24 0-.49.06-.74s.09-.48.12-.73a1.23 1.23 0 0 1 .07-.29c0-.12 0-.25.09-.36S95 7 95 6.93s0-.16.07-.21.21.26.24.33a4.14 4.14 0 0 0 .48.7A8.21 8.21 0 0 1 95.05 6c-.22-.64-.16.24-.41 1.92a11.85 11.85 0 0 0-.13 1.48z" transform="translate(-2.92 -2.97)" fill="#98c73c"/><path d="M81.14 13.39c-.91.33-1.77.24-2.81 1a5.42 5.42 0 0 0-2.1 5.76c.77 3 1.49 3.41 1.1 4.08s.09.3.67 0a6.87 6.87 0 0 0 3.14-2.81c.88-1.74 1.13-4.71.52-5.62s-.77-1.67-.47-2 .28-.53-.05-.41z" transform="translate(-2.92 -2.97)" fill="#56a345"/><path class="cls-17" d="M81 21.76a4 4 0 0 0-.42-1.36c-.77-1.33-1 1.28-1.19 1.55-.36.68-1.8 1.39-1.11 2.19A6.65 6.65 0 0 0 81 21.76z" transform="translate(-2.92 -2.97)"/><path d="M81.14 13.39a9.3 9.3 0 0 0-2.56.86c-.38.53-.94 1.36-.9 1.69 0 .48.61.55.69 1 0 .29-.22.53-.27.8a3.69 3.69 0 0 0 0 1.62c.08.38 0 1.93.13 2.15.39.62.62.06.73-.42.18-.76-.22-1.7 0-2.44 0-.09.22-.16.21-.14s.23-.61.21-.6c.3-.29-.21-.46.49-.08a1.88 1.88 0 0 1 .53.65 4.63 4.63 0 0 1 .6 2.33 2.75 2.75 0 0 0 .09.74l.06-.09c.88-1.74 1.13-4.71.52-5.62s-.77-1.67-.47-2 .27-.57-.06-.45z" transform="translate(-2.92 -2.97)" fill="#459644"/><path class="cls-17" d="M77.21 15.53a5.17 5.17 0 0 0-1 4.66c.68 2.62 1.31 3.27 1.2 3.83.44-.07.84-.27.91-.67s-.25-.23-.53-.61a1.82 1.82 0 0 1-.31-1.16 3.44 3.44 0 0 0 0-1.24c-.23-.52-.42-.51-.55-1.11-.21-1 .37-2 .35-3a2.73 2.73 0 0 0-.07-.7z" transform="translate(-2.92 -2.97)"/><path d="M76.75 20.94c0-.45-.12-.65-.47-.58.75 2.85 1.43 3.26 1 3.91s.09.3.67 0a8.45 8.45 0 0 0 2.18-1.5c-.46.29-1.24.66-1.61.43s-.2-1.16-.19-1.6c-.74.22-.25 1.92-1.2 1-.29-.39-.13-1.24-.38-1.66z" transform="translate(-2.92 -2.97)" fill="#99ca3c"/><path class="cls-37" d="M78.33 14.43a6.19 6.19 0 0 0-1.73 2 3.76 3.76 0 0 0 .55-.32c.29-.2.57-.42.86-.61a3.91 3.91 0 0 1 1.52-.77c.27 0 .37.14.42.38a2.79 2.79 0 0 0 .27.86c.16.27.35.5.5.77s.25.49.37.74A6.86 6.86 0 0 1 81.6 19c.06.25.1.5.14.75.35-1.55.35-3.23-.08-3.87-.61-.91-.77-1.67-.47-2s.28-.55 0-.43c-.96.27-1.82.18-2.86.98z" transform="translate(-2.92 -2.97)"/><path class="cls-38" d="M81.38 13.38a1.68 1.68 0 0 0-.45.21 4.52 4.52 0 0 0-1.77 1.88 4 4 0 0 0-.39 1.25c0 .44-.06.87-.08 1.3 0 .86-.1 1.72-.19 2.58a11.14 11.14 0 0 1-.5 2.51c-.08.23 0 .25 0 0a12 12 0 0 0 .52-2.52c.1-.86.15-1.72.21-2.58 0-.43 0-.87.1-1.29a4.28 4.28 0 0 1 .39-1.21 4.44 4.44 0 0 1 1.78-1.8l.4-.24s0-.07-.02-.09z" transform="translate(-2.92 -2.97)"/><path class="cls-38" d="M79.58 14.7a3.5 3.5 0 0 0-1.72 1s0 .06 0 0a3.81 3.81 0 0 1 1.72-.93c.18.02.15-.12 0-.07zM79.88 14.63a2.67 2.67 0 0 0 .08.89c0 .07.05.14.07.22a.75.75 0 0 0 .1.2l.12.2.12.17c.17.24.34.48.49.72a3.22 3.22 0 0 1 .39.76c0 .07 0 .08 0 0-.25-1.12-1.42-1.94-1.25-3.15a.57.57 0 0 0 0-.14v-.07h-.06a.32.32 0 0 0-.06.2zM79 16.17a6 6 0 0 0 .28 1.11 4.47 4.47 0 0 0 .55 1 4.87 4.87 0 0 1 .86 2.05c0 .11 0 .11 0 0a3 3 0 0 0-.28-1.09 7.46 7.46 0 0 0-.53-1 5.29 5.29 0 0 1-.52-1 6.66 6.66 0 0 1-.26-1.09c0-.18-.06-.27-.1-.26s0 .11 0 .28zM78.73 18.54a5.26 5.26 0 0 0 .6 1.57 4.22 4.22 0 0 1 .38.73 3.15 3.15 0 0 1 .16.81c0 .08 0 .08 0 0a3 3 0 0 0-.14-.83 3.27 3.27 0 0 0-.37-.75 6.12 6.12 0 0 1-.56-1.55c-.03-.26-.13-.25-.07.02zM78.56 20.67l.12.63.07.31.09.32a2.94 2.94 0 0 1 .16 1.25c0 .06 0 .06 0 0a3.05 3.05 0 0 0-.13-1.27l-.08-.31-.06-.32c0-.2-.08-.42-.12-.63s-.08-.19-.05.02zM78.76 16.23a6.23 6.23 0 0 0-1.12.78 4.45 4.45 0 0 0-.48.49 2.25 2.25 0 0 0-.35.6c0 .06 0 .07 0 0a1.88 1.88 0 0 1 .37-.56 4.24 4.24 0 0 1 .49-.46 7.42 7.42 0 0 1 1.12-.73.19.19 0 0 0 .08-.07v-.06c0-.01 0 0 0 0zM78.58 18.11a3.84 3.84 0 0 0-1.44 2.26c0 .06 0 .07 0 0a4 4 0 0 1 1.48-2.19c.2-.11.15-.18-.04-.07zM78.52 19.9c-.19.32-.4.67-.57 1a5.14 5.14 0 0 0-.39 1.1c0 .06 0 .06 0 0a4.64 4.64 0 0 1 .44-1c.18-.35.39-.67.6-1 .11-.24.01-.26-.08-.1z" transform="translate(-2.92 -2.97)"/><path class="cls-3" d="M79.85 13.72c-.13.1-.41.35-.31.45s.14 0 .2 0h.19c.13 0 .24-.09.37-.08s.25.2.3.34l.25.68a5.79 5.79 0 0 0 .42.67l.34.53.33.44a2.22 2.22 0 0 0-.28-.92c-.61-.91-.77-1.67-.47-2s.28-.55 0-.43a12.87 12.87 0 0 1-1.34.32z" transform="translate(-2.92 -2.97)"/><path d="M99.27 21.36c.3.4-.78.44-1.4 1.21a3 3 0 0 1-3.59.53 8.36 8.36 0 0 0-3.14-.92c-.52.06-.13-.4.83-1.27s2.48-1.93 4.11-1.38a9.77 9.77 0 0 1 3.19 1.83z" transform="translate(-2.92 -2.97)" fill="#529b44"/><path d="M93.35 19.9a.86.86 0 0 0 .57.63l.41.13c.19.08.39.12.58.19s.25.11.26.25a.35.35 0 0 1-.19.3c-.12.06-.25.1-.37.17s-.23.12-.26.23a.9.9 0 0 0 0 .28 1.74 1.74 0 0 0 .1.59 1 1 0 0 0 .44.4 3 3 0 0 0 .85.36 3.06 3.06 0 0 0 .87-.1 1.77 1.77 0 0 0 .77-.74 5.09 5.09 0 0 0 .49-2v-.17a10 10 0 0 0-1.83-.86 3.32 3.32 0 0 0-2.69.34z" transform="translate(-2.92 -2.97)" fill="#469343"/><path d="M97 22.16a.85.85 0 0 0-.69.15c-.23.18-.39.47-.68.57a1.26 1.26 0 0 1-.72-.08c-.37-.11-.72-.28-1.09-.39a2.29 2.29 0 0 0-.94 0 .53.53 0 0 0-.27.08c.48.15 1 .37 1.72.65a3.38 3.38 0 0 0 2.89 0 1 1 0 0 0 .15-.5.43.43 0 0 0-.37-.48z" transform="translate(-2.92 -2.97)" fill="#689b41"/><path class="cls-37" d="M95.87 19.48a.32.32 0 0 0 0 .23 1.21 1.21 0 0 0 .5.39c.31.15.74.32.83.7a.94.94 0 0 1-.24.83c-.07.08-.16.13-.19.23a2.36 2.36 0 0 0 0 .38c0 .13-.06.25-.08.38a1.34 1.34 0 0 1-.2.58.71.71 0 0 1-.27.21 2.49 2.49 0 0 0 1.63-.84c.62-.77 1.7-.81 1.4-1.21a9.77 9.77 0 0 0-3.19-1.83z" transform="translate(-2.92 -2.97)"/><path class="cls-22" d="M99 21.41a7.67 7.67 0 0 0-1.59-.18 2.71 2.71 0 0 0-.4 0 2.56 2.56 0 0 0-.39 0l-.79.12a5.12 5.12 0 0 1-.78.06h-.79a3.67 3.67 0 0 0-1.58.1c-.15.05-.13.08 0 0a3.47 3.47 0 0 1 1.57-.06h.79a4.14 4.14 0 0 0 .79 0l.79-.11a15.25 15.25 0 0 1 .78 0 8.11 8.11 0 0 1 1.56.19c.24.05.37.06.38 0s-.12-.06-.34-.12z" transform="translate(-2.92 -2.97)"/><path class="cls-22" d="M98.39 21.31a2 2 0 0 0-.87.11 1.16 1.16 0 0 0-.65.58 2.16 2.16 0 0 1-.24.35l-.14.15-.15.13a2.91 2.91 0 0 1-.73.41c-.07 0-.06.07 0 0a2.82 2.82 0 0 0 .75-.39 2.17 2.17 0 0 0 .58-.63 1.06 1.06 0 0 1 .6-.52 2.05 2.05 0 0 1 .82-.09c.28.07.31-.06.03-.1zM96.91 21.14c-.14-.17-.28-.35-.44-.51a1.65 1.65 0 0 0-.57-.39l-.32-.1a1.87 1.87 0 0 0-.32-.08 5.24 5.24 0 0 0-.67-.12c-.06 0-.06 0 0 0 .22 0 .44.09.65.15s.21.05.31.09l.31.13a1.34 1.34 0 0 1 .51.38 5.15 5.15 0 0 1 .43.5.41.41 0 0 0 .1.09h.06a.18.18 0 0 0-.05-.14zM95.67 21.51a6.26 6.26 0 0 1-.51.52c-.09.07-.18.15-.29.22l-.15.09-.16.07.17-.06.16-.09a3.06 3.06 0 0 0 .29-.21 5.13 5.13 0 0 0 .53-.51c.09-.07.04-.11-.04-.03zM95 21.43c-.57-.32-1.17-.59-1.75-.87l1.73.91c.15.09.19.03.02-.04zM93.93 21.45a4 4 0 0 1-.39.29 1.24 1.24 0 0 1-.42.23 1.46 1.46 0 0 0 .44-.2 4.27 4.27 0 0 0 .44-.27c0-.05 0-.1-.07-.05z" transform="translate(-2.92 -2.97)"/><path class="cls-3" d="M98 20.54a1.38 1.38 0 0 0 .3.34c.11.09.24.15.33.24s-.09.36-.2.45-.36.18-.4.35a1 1 0 0 1-.18.43 1.14 1.14 0 0 1-.16.15 1.45 1.45 0 0 0-.26.29 2.16 2.16 0 0 1-.24.31h-.05a2.06 2.06 0 0 0 .74-.57c.62-.77 1.7-.81 1.4-1.21a6.69 6.69 0 0 0-1.37-1 1.14 1.14 0 0 0 .09.22z" transform="translate(-2.92 -2.97)"/><path d="M92 20.91c-1 .87-1.35 1.33-.83 1.27a7.18 7.18 0 0 1 2.71.74.67.67 0 0 0-.19-.26 3.61 3.61 0 0 0-.57-.24c-.12-.06-.24-.13-.37-.18l-.55-.2c-.23-.08-.53-.26-.31-.53a1.9 1.9 0 0 1 .55-.37 1.56 1.56 0 0 0 .37-.31 2.13 2.13 0 0 1 .42-.3 1.28 1.28 0 0 0 .38-.39 2.3 2.3 0 0 1 .35-.47l.09-.08A6.47 6.47 0 0 0 92 20.91z" transform="translate(-2.92 -2.97)" fill="#6fac43"/><path d="M92.56 15a4.89 4.89 0 0 0-2.28.6c-.54.37-1.36-.35-3.66.73a5.45 5.45 0 0 0-2.94 4.48c-.14 1.11-1.31 2.49-.7 2.32s2.12.14 3.57-.41a5 5 0 0 0 3.59-3.62c.87-2.55.81-3.1 1.28-3.5s1.36-.6 1.14-.6z" transform="translate(-2.92 -2.97)" fill="#57a345"/><path d="M90.28 15.56c-.54.37-1.36-.35-3.66.73A4.6 4.6 0 0 0 85 17.52a.24.24 0 0 0 .06.11.89.89 0 0 0 .44.23c.12 0 .23.1.35.15a1 1 0 0 0 .48 0 1.75 1.75 0 0 1 .72.07 1.17 1.17 0 0 1 .56.47.48.48 0 0 1 0 .45 2.72 2.72 0 0 0-.08.8 3.33 3.33 0 0 1-.14 1.09 3.22 3.22 0 0 0-.27.95 5 5 0 0 0 0 .55 4.81 4.81 0 0 0 3-3.38c.57-1.67.74-2.48.92-2.95a3 3 0 0 0-.06-.89 2.82 2.82 0 0 0-.7.39z" transform="translate(-2.92 -2.97)" fill="#519b44"/><path class="cls-6" d="M89.93 19.05a2.77 2.77 0 0 1-.2.34c0 .05-.14.15-.2.08s-.06-.36-.06-.47 0-1.31-.31-1.21-.17.41-.19.53c0 .29 0 .58-.08.87s-.22 2.32-.69 2.1c-.25-.12-.09-.65-.07-.84a1.62 1.62 0 0 0 0-.58c0-.1-.08-.26-.21-.24s-.21.2-.25.31a4.5 4.5 0 0 0-.17.63 1.7 1.7 0 0 1-.2.53c0 .08-.15.23-.26.23s-.09-.15-.09-.22a2.27 2.27 0 0 0 0-.45c-.07-.33-.36.22-.41.3l-.38.62a2 2 0 0 1-.38.65 2.2 2.2 0 0 1-.67.37 1.76 1.76 0 0 0-.44.15.77.77 0 0 0-.26.28 6.29 6.29 0 0 0 2.14-.35 5 5 0 0 0 3.59-3.62.88.88 0 0 1 0-.15c-.08-.05-.14.09-.21.14z" transform="translate(-2.92 -2.97)"/><path d="M83.9 19.68a7.76 7.76 0 0 0-.22 1.09c-.14 1.11-1.31 2.49-.7 2.32a21 21 0 0 0 3.21-.29l.06-.07a5.24 5.24 0 0 0 .8-1.56c.15-.37.62-1.63-.23-1.53a1.86 1.86 0 0 1-.33 0 .69.69 0 0 1-.29-.07 1.7 1.7 0 0 0-.86-.16c-.32 0-.6.23-.91.29a.77.77 0 0 1-.52 0z" transform="translate(-2.92 -2.97)" fill="#56a446"/><path d="M83.82 20.62a1.82 1.82 0 0 0-.2.45c-.27 1-1.19 2.17-.64 2a20.88 20.88 0 0 0 3.21-.29 1.56 1.56 0 0 0 .33-.8 1 1 0 0 0-.2-.64c-.08-.12-.16-.22-.31-.15l-.33.18c-.2.09-.31.28-.55.27a.61.61 0 0 1-.45-.22c-.12-.14-.05-.3 0-.48a1.2 1.2 0 0 0 0-.38.3.3 0 0 0-.25-.15.57.57 0 0 0-.61.21z" transform="translate(-2.92 -2.97)" fill="#69a546"/><path class="cls-15" d="M92.27 15a4.42 4.42 0 0 0-2 .57c-.54.37-1.36-.35-3.66.73a4.55 4.55 0 0 0-.84.5 2.11 2.11 0 0 1 .44-.17 2.7 2.7 0 0 0 .54-.2 2 2 0 0 1 .64-.13h.7a3 3 0 0 1 .59.06 1.56 1.56 0 0 1 .55.15c.16.08.39.21.45.39a2.06 2.06 0 0 1 0 .43 1.67 1.67 0 0 0 0 .39 1.94 1.94 0 0 1 .14 1.11 3.07 3.07 0 0 0-.05.53 2 2 0 0 1-.34.68 5 5 0 0 0-.25.68s-.09.09-.09.13 0 .07.1.08a7 7 0 0 0 .9-1.82c.87-2.55.81-3.1 1.28-3.5a3.16 3.16 0 0 1 .84-.46l.06-.15z" transform="translate(-2.92 -2.97)"/><path class="cls-6" d="M91.9 15a6.92 6.92 0 0 0-2.4 1.3 5.45 5.45 0 0 0-.5.46l-.24.24-.23.26c-.15.17-.28.35-.42.54l-.4.55-.39.55-.41.54-.42.54-.43.52a9.19 9.19 0 0 1-2 1.83c-.21.14-.2.18 0 0a9.61 9.61 0 0 0 2-1.82c.59-.69 1.15-1.4 1.68-2.14.27-.36.52-.74.82-1.07l.23-.25.24-.24c.15-.16.33-.3.5-.45a6.86 6.86 0 0 1 2.35-1.26c.41-.13.62-.18.62-.22s-.18.04-.6.12z" transform="translate(-2.92 -2.97)"/><path class="cls-6" d="M89.48 16.32a5.17 5.17 0 0 1-2.15.57 4.62 4.62 0 0 0 2.23-.49c.16-.05.08-.16-.08-.08zM89.83 16.24a7 7 0 0 0-.27 1.69 13.43 13.43 0 0 1-.17 1.69c0 .07 0 .08 0 0a10.73 10.73 0 0 0 .23-1.69 9.81 9.81 0 0 1 .3-1.65v-.22c0-.02-.05.04-.09.18zM88.54 17.42a4.28 4.28 0 0 0-.18 1v.52c0 .17 0 .34.06.51a4.37 4.37 0 0 1-.23 2c0 .09 0 .1 0 0a4.39 4.39 0 0 0 .29-2v-.76a2.09 2.09 0 0 1 0-.25 4.13 4.13 0 0 1 .18-1v-.25c0-.01-.06.07-.12.23zM87.83 18.12a4.38 4.38 0 0 1-.88.09 2.14 2.14 0 0 1-.87-.17s-.06 0 0 0a2.45 2.45 0 0 0 .88.24 3.54 3.54 0 0 0 .92-.06c.12 0 .12-.13-.05-.1zM87.13 19.07a3.34 3.34 0 0 1-1.26.07 1.78 1.78 0 0 0-.65 0 3.32 3.32 0 0 0-.62.16c-.06 0 0 .05 0 0a2.44 2.44 0 0 1 1.25-.12 3.12 3.12 0 0 0 1.29 0c.22-.06.18-.18-.01-.11zM87.59 18.75a13 13 0 0 1-.42 2.71c0 .06 0 .07 0 0a10.79 10.79 0 0 0 .49-2.71c.05-.21-.06-.22-.07 0zM86.65 20c-.08.38-.17.77-.28 1.15l-.17.56a1.89 1.89 0 0 1-.26.51s0 .06 0 0a1.75 1.75 0 0 0 .28-.52l.19-.56q.18-.57.3-1.14c.05-.2-.02-.21-.06 0zM85.52 21.2c-.15.34-.27.7-.44 1a6.4 6.4 0 0 0 .49-1c.05-.04-.01-.08-.05 0zM86.44 20a5.87 5.87 0 0 0-1.6.35 7.15 7.15 0 0 1 1.6-.28c.14.03.13-.07 0-.07zM85.68 21c-.41.11-.87.19-1.3.32.44-.11.87-.15 1.32-.28.11-.04.08-.12-.02-.04z" transform="translate(-2.92 -2.97)"/><path class="cls-6" d="M91.42 15.56c.47-.4 1.36-.61 1.14-.6a4.89 4.89 0 0 0-2.28.6.69.69 0 0 1-.4.11c0 .12.22.11.31.11a.86.86 0 0 1 .39 0c.13 0 .12.21.12.32a2.16 2.16 0 0 1 0 .35 3.65 3.65 0 0 1-.18.56 5.5 5.5 0 0 0-.31 1.71c.79-2.25.79-2.78 1.21-3.16z" transform="translate(-2.92 -2.97)"/><path class="cls-15" d="M85.25 19c0-.09-.12-.15-.18-.21s-.39-.28-.29-.48.44-.33.64-.44a4.14 4.14 0 0 0 .8-.57 3.41 3.41 0 0 0 .42-.43.74.74 0 0 0 .2-.38c0-.13-.06-.19-.17-.22a5.45 5.45 0 0 0-2.94 4.48c-.14 1.11-1.31 2.49-.7 2.32.45-.12 1.37 0 2.4-.13a2.25 2.25 0 0 0-.55-.07c-.23 0-.46-.06-.69-.07s-1.06.07-.86-.31c.11-.21.26-.39.35-.61l.28-.75a1.88 1.88 0 0 0 .19-.61 1.41 1.41 0 0 1 .27-.72 5.1 5.1 0 0 1 .77-.62c.01-.03.09-.1.06-.18z" transform="translate(-2.92 -2.97)"/><g id="Layer_1" data-name="Layer 1"><path class="cls-47" d="M56.84 25.12L60 21.93a.41.41 0 0 0 0-.54 10.23 10.23 0 0 0-8.22-3.7c-5.91 0-10.88 5-10.88 10.38S45.82 38.2 51.83 38.2a11.29 11.29 0 0 0 8.71-3.63.4.4 0 0 0 .1-.26V27.4a.41.41 0 0 0-.41-.41h-7.95a.4.4 0 0 0-.4.41v3.4a.4.4 0 0 0 .4.41h2.08a.24.24 0 0 1 .24.24v.34a.39.39 0 0 1-.09.26 3.27 3.27 0 0 1-2.68.91 5 5 0 0 1-4.72-4.89 4.72 4.72 0 0 1 4.83-4.89 6.3 6.3 0 0 1 4.32 1.95.41.41 0 0 0 .58-.01zM81.61 18.3v5a.26.26 0 0 0 .26.26h4.47a.27.27 0 0 1 .26.27v13.76a.27.27 0 0 0 .27.26h5.69a.26.26 0 0 0 .26-.26V23.8a.27.27 0 0 1 .27-.27h4.48a.27.27 0 0 0 .27-.26v-5a.27.27 0 0 0-.27-.26h-15.7a.26.26 0 0 0-.26.29zM114.05 20.54a.26.26 0 0 0 0-.37c-.61-.64-2.84-2.6-7.16-2.6-5.15 0-7.84 3.27-7.84 6.05 0 7.21 8.56 5.91 8.56 8.18 0 1.44-2.18 1.43-2.18 1.43a5.86 5.86 0 0 1-3.43-1.65.26.26 0 0 0-.36 0l-3.31 3.27a.27.27 0 0 0 0 .38 11.22 11.22 0 0 0 7.91 3.17c5.33 0 8.45-2.85 8.45-6.61 0-6.72-8.61-5.88-8.61-7.87 0-1.07 1.52-1.18 1.77-1.18a3.82 3.82 0 0 1 2.54 1.2.27.27 0 0 0 .39 0zM79.73 18.09h-5.41a.29.29 0 0 0-.29.29v11.19a2.88 2.88 0 1 1-5.75 0V18.38a.29.29 0 0 0-.29-.29h-5.4a.28.28 0 0 0-.29.29v10.94c0 3.76 2.11 8.48 8.87 8.48 6.75 0 8.87-4.72 8.87-8.48V18.38a.29.29 0 0 0-.31-.29z" transform="translate(-2.92 -2.97)"/></g><path class="cls-48" d="M37.1 19.59a13.09 13.09 0 0 1 1.38 7.06 14 14 0 0 1-23.21 9.28 13.94 13.94 0 0 1-4-14.91 12.65 12.65 0 0 1 2.38-4.19 2.34 2.34 0 0 1 3.77 2.76v.06A9.1 9.1 0 0 0 19.81 32a8.85 8.85 0 0 0 8.79.46 9.18 9.18 0 0 0 4.22-11v-.06a2.34 2.34 0 0 1 4.3-1.81z" transform="translate(-2.92 -2.97)"/><circle class="cls-48" cx="21.75" cy="21.14" r="6.43"/><path class="cls-49" d="M27.65 42.1c.42-.08 2-1.16.2-2.55a9.51 9.51 0 0 0-5.21-1.95c-1.56-.24-2.59-.81-2.3-.36S22 38.76 23 39.87s2.77 2.57 4.65 2.23z" transform="translate(-2.92 -2.97)"/><path class="cls-50" d="M23.32 38.09c1.79.43 3.41 1.93 2.56 1.75s0 .82.43 1 .39 1.39-1.49.58a4.17 4.17 0 0 0 2.83.64c.42-.08 2-1.16.2-2.55a9.51 9.51 0 0 0-5.21-1.95 12.48 12.48 0 0 1-1.29-.27 10.07 10.07 0 0 0 1.97.8z" transform="translate(-2.92 -2.97)"/><path class="cls-51" d="M20.29 37.14a.19.19 0 0 0 .05.1c.28.46 1.7 1.52 2.63 2.63l.06.07c.61.08 1.09 0 1.44 0 .7.13-.5-.78-1.34-1a18.89 18.89 0 0 1-2.84-1.8z" transform="translate(-2.92 -2.97)"/><path class="cls-52" d="M26.78 39.32c.69.44 1.68 1.5 1.41 2.08a.89.89 0 0 0-.05.44c.52-.41 1-1.26-.29-2.29a7.46 7.46 0 0 0-1.57-1 1 1 0 0 0 .5.77z" transform="translate(-2.92 -2.97)"/><path class="cls-53" d="M21.65 38.09c1 .59 2 1.2 3 1.91a6.24 6.24 0 0 0 1.61.76 17.71 17.71 0 0 0 1.73.47l.55.12a.37.37 0 0 0 .05-.11l-.59-.16a16.22 16.22 0 0 1-1.73-.44 6.3 6.3 0 0 1-1.61-.72c-1-.69-2-1.27-3.05-1.84-.04-.08-.05-.08.04.01z" transform="translate(-2.92 -2.97)"/><path class="cls-54" d="M28.33 41a4 4 0 0 0-.64-1.11l-.22-.21-.11-.1h-.12l-.13-.08-.11-.16h-.27l.13.05h.13l.13.06.12.08h.06l.06.05.11.09a2.29 2.29 0 0 1 .21.23 2.78 2.78 0 0 1 .35.52 3.51 3.51 0 0 1 .26.59c.05.14.09.21.1.2s-.01-.08-.06-.21zM27.81 41.18a5.91 5.91 0 0 1-.74.4 2.38 2.38 0 0 1-.76.23 2.37 2.37 0 0 0 .77-.2 5.22 5.22 0 0 0 .75-.37c.17-.09.17-.16-.02-.06zM27.32 40.8a8.12 8.12 0 0 0-.69-.84 3.9 3.9 0 0 0-.81-.67 3.9 3.9 0 0 1 .78.69 9.42 9.42 0 0 1 .67.86c.08.1.12.14.14.13s-.01-.07-.09-.17zM27.1 41c-.28.13-.56.26-.84.36l-.42.12a1 1 0 0 1-.42 0 1 1 0 0 0 .42 0 3.39 3.39 0 0 0 .43-.11 7.3 7.3 0 0 0 .84-.33c.1 0 .14-.08.14-.1s-.06.06-.15.06zM26.09 40.51a4.09 4.09 0 0 1-.46-.47 2.24 2.24 0 0 1-.37-.57 10087086594972.79 10087086594972.79 0 0 0-.14-.34l-.16-.31a3.2 3.2 0 0 0-.41-.54 2.88 2.88 0 0 1 .4.55c0 .1.11.2.16.31l.06.17a1.22 1.22 0 0 1 .07.17 2.39 2.39 0 0 0 .36.6 3.51 3.51 0 0 0 .46.48c.11.1.18.13.19.12s-.05-.07-.16-.17zM25.67 40.54a4.62 4.62 0 0 1-.62.23 1.19 1.19 0 0 1-.62 0 1.18 1.18 0 0 0 .62 0 3 3 0 0 0 .64-.2c.14-.02.12-.1-.02-.03zM24.92 40a4.14 4.14 0 0 1-.37-.46 3 3 0 0 1-.32-.52c-.1-.19-.14-.42-.23-.61a.83.83 0 0 0-.39-.43.88.88 0 0 1 .37.45c.09.19.12.42.22.61a2.69 2.69 0 0 0 .31.55 5.45 5.45 0 0 0 .37.47c.09.1.15.13.16.12s-.04-.07-.12-.18zM24.46 39.85A2.79 2.79 0 0 1 24 40a1 1 0 0 1-.45 0 1 1 0 0 0 .45 0 3.41 3.41 0 0 0 .53-.13c.1-.01.03-.06-.07-.02zM23.79 39.37h-.44a1.27 1.27 0 0 1-.43 0 .83.83 0 0 0 .21.06h.65c.1 0 .16.05.1 0h-.06zM23.56 39.18a4.83 4.83 0 0 0-.22-.64 1.13 1.13 0 0 0-.31-.43 1.08 1.08 0 0 1 .28.45 4.42 4.42 0 0 1 .17.55c.03.14.12.21.08.07zM23 38.79l-.34-.43-.35-.41c-.12-.13 0 0 0 0l.34.44.32.45h.06zM22.27 38.43a2.49 2.49 0 0 0-.15-.28l-.07-.09L22 38a1.46 1.46 0 0 1 .09.13c0 .07.08.13.11.21s.1.14.07.09zM22.77 38.76a1.46 1.46 0 0 1-.51 0 2.07 2.07 0 0 0 .61 0c.06.06-.04-.01-.1 0z" transform="translate(-2.92 -2.97)"/><path class="cls-54" d="M25.21 39.34a2.64 2.64 0 0 0-.19-.87 2.38 2.38 0 0 1 .15.81c.01.08.05.15.04.06zM26.51 39.84a4.82 4.82 0 0 0-.36-.76 4.26 4.26 0 0 1 .28.7c.09.13.11.14.08.06zM28.18 40.68l-.35-.33-.19-.14a.61.61 0 0 0-.21-.11.59.59 0 0 1 .2.12 1.29 1.29 0 0 1 .17.16 3.61 3.61 0 0 1 .33.35c.08.1.12.04.05-.05zM27.35 41.49a1.47 1.47 0 0 1-.32.38 1.91 1.91 0 0 0 .39-.41c.05-.05-.04-.02-.07.03z" transform="translate(-2.92 -2.97)"/><path class="cls-55" d="M5.55 29.61c2.06 5 9.78 11.24 20 12.12s19.94-5.35 19.94-5.35 1.07-1.7 0-.91-8.85 4.66-13.91 5.53a25.76 25.76 0 0 1-15.46-2.24c-4.94-2.45-9.75-7.07-10.57-9.15z" transform="translate(-2.92 -2.97)"/><path class="cls-54" d="M25.53 41.73a25.29 25.29 0 0 0 4.85-.07 11.76 11.76 0 0 1-1.28-.42 25.62 25.62 0 0 1-13-2.52C11.34 36.39 6.68 32 5.65 29.83c2.18 5.01 9.83 11.03 19.88 11.9zM5.65 29.83l-.1-.22z" transform="translate(-2.92 -2.97)"/><path d="M40.38 38a22.17 22.17 0 0 0 2.68-.3c1.52-.77 2.41-1.34 2.41-1.34s1.07-1.7 0-.91A41.27 41.27 0 0 1 40.38 38z" transform="translate(-2.92 -2.97)" fill="#6b7c35"/><path class="cls-54" d="M18 39.6a18.09 18.09 0 0 0-2.26-.31 7.92 7.92 0 0 0-1.19 0h-.31l-.32.08-.59.16A15.74 15.74 0 0 1 11 40a12.19 12.19 0 0 1-2.26 0c-.13 0-.15 0 0 .06a11.91 11.91 0 0 0 2.25.11 14.18 14.18 0 0 0 2.38-.29l.6-.14h.55a7 7 0 0 1 1.12 0 17.28 17.28 0 0 1 2.17.39c.49.11.79.06.85-.06s-.12-.36-.66-.47zM39.11 38.89a14.76 14.76 0 0 0-2 1 7.18 7.18 0 0 0-.91.68l-.21.2-.19.24-.35.46A12.28 12.28 0 0 1 34 43.11a10.06 10.06 0 0 1-1.75 1.26c-.1.07-.08.13 0 .07A10.72 10.72 0 0 0 34 43.27a13.37 13.37 0 0 0 1.64-1.56l.37-.45.17-.19.2-.18a6.61 6.61 0 0 1 .89-.6 17.13 17.13 0 0 1 1.94-.91c.46-.18.66-.39.62-.52s-.26-.17-.72.03z" transform="translate(-2.92 -2.97)"/><path class="cls-55" d="M24.33 41.31a6.12 6.12 0 0 1-2.07-.66 2.84 2.84 0 0 1-.81-.7 1.9 1.9 0 0 1-.39-1.06c0-.07-.06-.06-.06 0a2.15 2.15 0 0 0 .32 1.17 3 3 0 0 0 .78.84 5.72 5.72 0 0 0 2.08.91c.26.06.43-.06.46-.19s-.06-.27-.31-.31z" transform="translate(-2.92 -2.97)"/><path d="M21.28 39.23c.2-.09.17-.66-.44-1.37s-.12.74-.15 1 .1.58.59.37z" transform="translate(-2.92 -2.97)" fill="#9bc86e"/><path d="M20.94 38c.17.38.09.72-.1.72h-.16a.57.57 0 0 1 0 .12c0 .21.1.62.59.41.19-.11.19-.61-.33-1.25z" transform="translate(-2.92 -2.97)" fill="#7ab74d"/><path d="M19 39.77a7.65 7.65 0 0 1-.79-2.22 4.81 4.81 0 0 1 .08-2.24c0-.06 0-.08 0 0a4.86 4.86 0 0 0-.17 2.26 7.64 7.64 0 0 0 .74 2.3c.12.25.24.35.28.32s-.06-.19-.14-.42z" transform="translate(-2.92 -2.97)" fill="#42793a"/><path class="cls-49" d="M18.14 36.75a1.54 1.54 0 0 1-.3-2c.56-.75 1-1.8 1-1.31s.45 3.64-.7 3.31z" transform="translate(-2.92 -2.97)"/><path d="M18.8 33.43c0-.49-.4.56-1 1.31l-.09.14c.14.36.42.61.48.41s.38-.86.6-1.43c.02-.2.01-.35.01-.43z" transform="translate(-2.92 -2.97)" fill="#92c363"/><path d="M18.89 35.63a.78.78 0 0 1-.47.33c-.52.15-.68-.15-.82-.52 0 .63.29 1.24.54 1.31.52.15.7-.41.75-1.12z" transform="translate(-2.92 -2.97)" fill="#72983e"/><path class="cls-55" d="M24.16 41.48a8.34 8.34 0 0 0-2.12.44 4.36 4.36 0 0 0-1 .51 1.92 1.92 0 0 0-.73.89c0 .06 0 .07.06 0a1.81 1.81 0 0 1 .74-.76 4.4 4.4 0 0 1 1-.37 9.26 9.26 0 0 1 2-.22.37.37 0 0 0 .39-.26c.01-.13-.09-.26-.34-.23z" transform="translate(-2.92 -2.97)"/><path d="M20.75 42.55c-.25-.09-.76.51-.94 1.84s.81-.66 1-.85.54-.75-.06-.99z" transform="translate(-2.92 -2.97)" fill="#6f963e"/><path d="M20.85 43.54l.08-.07a.42.42 0 0 0-.39-.19c-.37 0-.58.58-.74 1.27-.09 1.02.83-.82 1.05-1.01z" transform="translate(-2.92 -2.97)" fill="#6ea943"/><path class="cls-54" d="M12.78 36.7a15.33 15.33 0 0 1-1.6-2.39 10.25 10.25 0 0 1-.56-1.31 6.44 6.44 0 0 1-.3-1.45c0-.09-.05-.08 0 0a7 7 0 0 0 .2 1.45 10.79 10.79 0 0 0 .5 1.38 13.68 13.68 0 0 0 1.49 2.49c.21.26.39.34.46.28s.03-.15-.19-.45z" transform="translate(-2.92 -2.97)"/><path d="M10.2 33.55c.25.29 1.23.38 1.27-.79s-1.21-2.47-1.25-3.6-.28-1.61-.52-.26-.21 3.8.5 4.65z" transform="translate(-2.92 -2.97)" fill="#90b14b"/><path d="M10.58 32.28c-.46-.41-.2-2.37-.51-2.12s.35 2.46 0 2.43-.38-.81-.54-1.48a4.51 4.51 0 0 0 .63 2.44c.25.29 1.23.38 1.27-.79a2.76 2.76 0 0 0-.36-1.31c.11.68-.14 1.15-.49.83z" transform="translate(-2.92 -2.97)" fill="#86a43d"/><path class="cls-66" d="M11.47 32.78a.33.33 0 0 0-.42.19c-.18.51-.43.39-.53.06s-.41-.22-.61 0a1.9 1.9 0 0 0 .29.51c.25.3 1.22.39 1.27-.76z" transform="translate(-2.92 -2.97)"/><path d="M9.63 29.38s.06 0 .13-.17a2.25 2.25 0 0 1 .42-.6c-.09-.7-.28-.81-.48.29l-.07.48z" transform="translate(-2.92 -2.97)" fill="#8bb55a"/><path class="cls-66" d="M10 29.72a11.15 11.15 0 0 0 .75 3.77l.09.24h.12a2.68 2.68 0 0 0-.09-.27 11.07 11.07 0 0 1-.87-3.74c0-.06 0-.06 0 0z" transform="translate(-2.92 -2.97)"/><path class="cls-66" d="M10.64 32.94v-.55a.5.5 0 0 1 0-.12v-.22.11a.76.76 0 0 0 0 .11V32.5a3.47 3.47 0 0 0-.06.45c-.01.11.06.05.06-.01zM10.34 32.17l-.26-.37-.08-.19a1 1 0 0 1-.11-.2 2 2 0 0 0 .1.21l.11.19.24.39c.09.13.06.05 0-.03zM10.18 31.29a2.12 2.12 0 0 1 0-.44 1.14 1.14 0 0 1 .08-.47 1.21 1.21 0 0 0-.12.48 2.33 2.33 0 0 0 0 .46c-.01.1.06.07.04-.03z" transform="translate(-2.92 -2.97)"/><path d="M15.71 38.5a4 4 0 0 1-.48-1.1 2.55 2.55 0 0 1 0-1.26c0-.11.06-.21.1-.33a2 2 0 0 0 .12-.34 3.38 3.38 0 0 0 .14-.69 1.68 1.68 0 0 0-.09-.64 2.07 2.07 0 0 0-.32-.52c-.05-.06-.08 0 0 0a1.83 1.83 0 0 1 .29.53 1.32 1.32 0 0 1 0 .63 2.65 2.65 0 0 1-.16.66c0 .11-.08.22-.13.33a3.42 3.42 0 0 0-.13.34 2.9 2.9 0 0 0 0 1.37 4.85 4.85 0 0 0 .44 1.19c.14.25.3.31.37.26s-.01-.19-.15-.43z" transform="translate(-2.92 -2.97)" fill="#577e3f"/><path d="M14.61 36c.29.27.89.4 1.19-.57s-.45-2.16-1.42-3.46-1.1-1.41-.84-.73a7 7 0 0 1 .71 2.91 2 2 0 0 0 .36 1.85z" transform="translate(-2.92 -2.97)" fill="#84ba4d"/><path d="M15.25 34c.36.64 0 1.57-.53 1.42a.78.78 0 0 1-.53-.66 1.6 1.6 0 0 0 .42 1.2c.29.27.89.4 1.19-.57s-.3-1.89-1.1-3a8.12 8.12 0 0 0 .55 1.61z" transform="translate(-2.92 -2.97)" fill="#8db840"/><path d="M13.54 31.21c.14.36.38.95.55 1.54a2.76 2.76 0 0 0-.51-1.86c-.2-.21-.19-.07-.04.32z" transform="translate(-2.92 -2.97)" fill="#9dcd72"/><path class="cls-72" d="M15.05 34.54s-.15-.44-.18-.42.15.49.17.54a5.4 5.4 0 0 1 .09.6 2.2 2.2 0 0 1 0 .63c0 .11 0 .2-.05.28h.13v-.18a1.61 1.61 0 0 0-.1-1 3 3 0 0 0-.06-.45z" transform="translate(-2.92 -2.97)"/><path class="cls-72" d="M15.17 35.61a1.72 1.72 0 0 1-.51-.65 1.66 1.66 0 0 0 .48.69c.06.08.11.02.03-.04zM15.17 34.86a4.71 4.71 0 0 0-.27-1.26 4.51 4.51 0 0 1 .22 1.27v.11s.05-.04.05-.12z" transform="translate(-2.92 -2.97)"/><path class="cls-55" d="M23.22 41a9 9 0 0 0-1.92-.43 6 6 0 0 0-2.1.11 4.53 4.53 0 0 0-1.91 1 5.41 5.41 0 0 0-1.16 1.51c-.06.1 0 .1 0 0a5.22 5.22 0 0 1 1.21-1.47 4.27 4.27 0 0 1 1.84-.89 5.82 5.82 0 0 1 2 0 8.76 8.76 0 0 1 1.82.37c.39.15.62.18.68.12s-.05-.22-.46-.32z" transform="translate(-2.92 -2.97)"/><path d="M18.35 40.38c.95.08 1.56 1.39-.55 2.79s-4.43 3.34-4.19 4.14-1.42-.23-.73-2.37 2.76-4.78 5.47-4.56z" transform="translate(-2.92 -2.97)" fill="#82c141"/><path d="M13.61 47.31a.66.66 0 0 1 .06-.46c.26-1.41 2-2.77 1.41-3.54s-1.14 0-1.79.64a8 8 0 0 0-.41 1c-.69 2.13.97 3.16.73 2.36z" transform="translate(-2.92 -2.97)" fill="#7ab54f"/><path d="M14 42.75c1.32-1 2.69-1.92 3.31-1.94 1 0-1.07 1.14-.39.82s1.8-.26 1.43.45-2.35 1.7-3.3 2.92a7.15 7.15 0 0 0-.47.7 20.25 20.25 0 0 1 3.22-2.52c2.11-1.4 1.5-2.71.55-2.79A5 5 0 0 0 14 42.75z" transform="translate(-2.92 -2.97)" fill="#6eaa43"/><path d="M12.83 46.76c.1-.72.65-1.58.71-2s-.27-.26-.64.17a.14.14 0 0 1 0 .06 2.92 2.92 0 0 0-.07 1.77z" transform="translate(-2.92 -2.97)" fill="#98bc5d"/><path class="cls-77" d="M18.39 40.94a9.86 9.86 0 0 0-1.82.88A8.56 8.56 0 0 0 15 43l-.16.17-.16.18-.07.08-.07.09-.15.18a8.48 8.48 0 0 0-.48.74 5.46 5.46 0 0 0-.56 1.56c0 .09 0 .09 0 0a5.38 5.38 0 0 1 .65-1.52 6.65 6.65 0 0 1 .49-.73l.15-.18.07-.09.08-.08.15-.17.17-.17a7.91 7.91 0 0 1 1.54-1.17 10.27 10.27 0 0 1 1.8-.86l.66-.21-.11-.08-.61.2z" transform="translate(-2.92 -2.97)"/><path class="cls-77" d="M18 41a3.85 3.85 0 0 0-1.13-.06 2.94 2.94 0 0 0-.59.12l-.28.13a1 1 0 0 0-.24.17l.24-.16a1.59 1.59 0 0 1 .27-.12 2.37 2.37 0 0 1 .58-.11 4 4 0 0 1 1.11.08h.2c.01 0-.01-.05-.16-.05zM18.34 41.13a6.32 6.32 0 0 1-.24.85 2.93 2.93 0 0 1-.45.83 3 3 0 0 0 .49-.83 5.69 5.69 0 0 0 .27-.86c.05-.19-.03-.18-.07.01zM16.54 41.8l-1 .27-.48.18a1.91 1.91 0 0 0-.45.23 2.09 2.09 0 0 1 .45-.22l.48-.16c.32-.1.64-.18 1-.25s.22-.11 0-.05z" transform="translate(-2.92 -2.97)"/><path class="cls-77" d="M16.8 41.83l-.22.47-.23.47-.25.46-.25.47.27-.46.26-.47.25-.46.23-.47c.08-.15.03-.23-.06-.01zM14.9 43.11q-.27.07-.54.18a1.56 1.56 0 0 0-.47.27 1.69 1.69 0 0 1 .48-.25 3.56 3.56 0 0 1 .53-.16c.1-.03.1-.07 0-.04zM14 44.29a5.63 5.63 0 0 0-.46.36 1.27 1.27 0 0 0-.33.42 1.44 1.44 0 0 1 .35-.4 4.17 4.17 0 0 1 .47-.36c.1-.07.07-.1-.03-.02zM15.19 43a8.93 8.93 0 0 1-.43 1.19 7 7 0 0 0 .47-1.19v-.07zM13.71 45l.06.39a1.47 1.47 0 0 1 0 .21.53.53 0 0 1 0 .22.85.85 0 0 0 0-.22.74.74 0 0 0 0-.21 3 3 0 0 0 0-.42z" transform="translate(-2.92 -2.97)"/><path class="cls-55" d="M29 41.35a11.81 11.81 0 0 1-2.94-.8 4.85 4.85 0 0 1-1.24-.79 2.54 2.54 0 0 1-.47-.56 1.84 1.84 0 0 1-.26-.7c0-.08-.08-.07-.07 0a2.12 2.12 0 0 0 .23.75 3.09 3.09 0 0 0 .44.63 4.91 4.91 0 0 0 1.2.92 10.73 10.73 0 0 0 2.93 1c.36.08.59 0 .63-.16s-.06-.23-.45-.29z" transform="translate(-2.92 -2.97)"/><path d="M23.2 38.14c.1.48.89 1.45 1.93.28s-.21-1.58-.65-3.34-.21-1-.6-.27a5.78 5.78 0 0 0-.68 3.33z" transform="translate(-2.92 -2.97)" fill="#74ab42"/><path d="M23.2 38.14c.1.48.89 1.45 1.93.28.67-.77.37-1.21-.05-1.93a7.32 7.32 0 0 1 .08.74c0 .63-.34.52-.49 0s-.43.41-.35.74-.46.58-.72-.17.47-2 .79-3c-.34-1.32-.15-.67-.51.06a5.78 5.78 0 0 0-.68 3.28z" transform="translate(-2.92 -2.97)" fill="#73ab42"/><path d="M24.55 36.42l.25-.47a4.23 4.23 0 0 1-.29-.74 2.32 2.32 0 0 0-.32.86c-.05.58.08.76.36.35z" transform="translate(-2.92 -2.97)" fill="#89b556"/><path class="cls-81" d="M24.13 35.12c-.13.6-.22 1.21-.29 1.82a3.85 3.85 0 0 0 .25 1.79l.11.24h.12l-.12-.29a3.86 3.86 0 0 1-.3-1.73 22.09 22.09 0 0 1 .23-1.83z" transform="translate(-2.92 -2.97)"/><path class="cls-81" d="M24.1 38.34a5.4 5.4 0 0 1 .08-.69 1.89 1.89 0 0 1 .09-.34.85.85 0 0 1 .17-.31 1 1 0 0 0-.19.31 3.57 3.57 0 0 0-.1.35 4.13 4.13 0 0 0-.11.69c-.04.15.05.15.06-.01zM23.86 37a2.54 2.54 0 0 1-.16-.38 1.15 1.15 0 0 1-.08-.41 1.42 1.42 0 0 0 .05.42c0 .14.09.27.14.4s.09.09.05-.03zM24 36l.18-.29.07-.15v-.08-.08V35.55a.64.64 0 0 1-.08.14l-.19.28c-.06.09.02.03.02.03z" transform="translate(-2.92 -2.97)"/><path class="cls-82" d="M12.45 36.76a6.85 6.85 0 0 0-1.94-.3h-2a8.62 8.62 0 0 1-1.88-.25 3.48 3.48 0 0 1-.82-.31 1.75 1.75 0 0 1-.61-.53c-.05-.08-.09-.06 0 0a1.73 1.73 0 0 0 .6.57 3.73 3.73 0 0 0 .81.35 8.6 8.6 0 0 0 1.87.31c.66 0 1.35 0 2 .06a6.68 6.68 0 0 1 1.84.34c.37.14.56.2.63.14s-.09-.23-.5-.38z" transform="translate(-2.92 -2.97)"/><path class="cls-83" d="M5.05 36.09a3.41 3.41 0 0 0 .48.37h.06l-.54-.37z" transform="translate(-2.92 -2.97)"/><path class="cls-84" d="M8.61 35.8c.17.21.06 1.41-1.31 1.27a3.72 3.72 0 0 1-2.76-1.55c-.54-.76-1.1-1.76-.63-1.42a6.09 6.09 0 0 0 2.42.83 2.74 2.74 0 0 1 2.28.87z" transform="translate(-2.92 -2.97)"/><path class="cls-85" d="M4.54 35.52A3.63 3.63 0 0 0 6.71 37c.44-.21.5-.54-.15-.65-1.68-.31-1.27-.81-.68-.77s1.15 0 .22-.22a4.43 4.43 0 0 1-1.43-.84 4 4 0 0 1-.76-.39c-.47-.37.09.63.63 1.39z" transform="translate(-2.92 -2.97)"/><path class="cls-86" d="M7.69 36.41a.5.5 0 0 1 .2.63 1 1 0 0 0 .72-1.24 2.74 2.74 0 0 0-2.28-.87 10.19 10.19 0 0 0 1.32.73c.56.26-.36.56.04.75z" transform="translate(-2.92 -2.97)"/><path class="cls-87" d="M6 35.9a1.72 1.72 0 0 0 .5.27l.57.17c.4.1 1 .24 1.38.3l.09-.16h-.09c-.42-.05-.94-.11-1.34-.19a5.45 5.45 0 0 1-.58-.14 1.6 1.6 0 0 1-.51-.24S6 35.88 6 35.9z" transform="translate(-2.92 -2.97)"/><path class="cls-87" d="M8.23 36.4a1.69 1.69 0 0 0-.23-.49 1.19 1.19 0 0 0-.38-.36 1.12 1.12 0 0 1 .36.39 1.94 1.94 0 0 1 .2.49c0 .06 0 .08.06.07s.01-.04-.01-.1zM8 36.51a2.84 2.84 0 0 1-.53.25 1.31 1.31 0 0 1-.27.06.75.75 0 0 1-.26 0 .67.67 0 0 0 .25 0 1.37 1.37 0 0 0 .28-.05 2.91 2.91 0 0 0 .53-.21c.06 0 .08-.07.08-.08s-.08 0-.08.03zM7.61 36.27a2.39 2.39 0 0 0-.32-.56 1.21 1.21 0 0 0-.52-.39 1.23 1.23 0 0 1 .49.41 2.29 2.29 0 0 1 .29.56c0 .07 0 .09.07.09s.02-.05-.01-.11zM7.15 36.31a2.23 2.23 0 0 1-.65.14 1.87 1.87 0 0 0 .65-.08c.07-.02.07-.08 0-.06zM6.77 36.2a1.45 1.45 0 0 0-.33-.5 1.23 1.23 0 0 1 .25.48s.1.08.08.02z" transform="translate(-2.92 -2.97)"/><path class="cls-82" d="M36.8 40a7.72 7.72 0 0 0-2.13-.85c-.79-.18-1.58-.31-2.33-.51a9.59 9.59 0 0 1-2.09-.77 4.24 4.24 0 0 1-.84-.56 1.87 1.87 0 0 1-.54-.77c0-.1-.08-.08-.05 0a1.89 1.89 0 0 0 .51.8 4.27 4.27 0 0 0 .82.61 10.59 10.59 0 0 0 2.06.85c.75.22 1.54.37 2.29.57a7.62 7.62 0 0 1 2 .86c.38.26.58.37.68.33s.05-.34-.38-.56z" transform="translate(-2.92 -2.97)"/><path class="cls-83" d="M28.49 37.27a3.87 3.87 0 0 0 .43.55h.07c.01-.03-.29-.31-.5-.55z" transform="translate(-2.92 -2.97)"/><path class="cls-84" d="M32.68 37.86c.14.28-.38 1.63-1.91 1.11a4.11 4.11 0 0 1-2.69-2.48c-.38-1-.71-2.3-.27-1.79a6.72 6.72 0 0 0 2.52 1.57 3.09 3.09 0 0 1 2.35 1.59z" transform="translate(-2.92 -2.97)"/><path class="cls-85" d="M28.08 36.49a4 4 0 0 0 2.05 2.21c.57-.12.74-.48 0-.78-1.83-.79-1.2-1.24-.54-1.06s1.33.31.33-.19a4.76 4.76 0 0 1-1.38-1.33 4.87 4.87 0 0 1-.75-.64c-.42-.51-.09.78.29 1.79z" transform="translate(-2.92 -2.97)"/><path class="cls-86" d="M31.43 38.32a.57.57 0 0 1 0 .77 1.2 1.2 0 0 0 1.23-1.23 3.09 3.09 0 0 0-2.35-1.59 10 10 0 0 0 1.29 1.17c.58.45-.6.56-.17.88z" transform="translate(-2.92 -2.97)"/><path class="cls-87" d="M29.69 37.31a1.57 1.57 0 0 0 .49.43 6 6 0 0 0 .61.35c.42.21 1 .51 1.48.69a1.21 1.21 0 0 0 .16-.16h-.09a17.6 17.6 0 0 1-1.49-.56 6 6 0 0 1-.62-.31 1.78 1.78 0 0 1-.52-.41l-.02-.03z" transform="translate(-2.92 -2.97)"/><path class="cls-87" d="M32.06 38.44a2.07 2.07 0 0 0-.12-.61 1.19 1.19 0 0 0-.32-.52 1.11 1.11 0 0 1 .29.53 3 3 0 0 1 .08.61v.1s.07-.04.07-.11zM31.73 38.51a3.38 3.38 0 0 1-.69.14h-.33a.82.82 0 0 1-.29-.07 1.15 1.15 0 0 0 .28.09 1.9 1.9 0 0 0 .34 0 3 3 0 0 0 .71-.13c.08 0 .11-.05.11-.06s-.06 0-.13.03zM31.39 38.13a2.76 2.76 0 0 0-.2-.71 1.32 1.32 0 0 0-.47-.58 1.34 1.34 0 0 1 .43.6 2.44 2.44 0 0 1 .16.71c0 .09 0 .13.05.12s.04-.05.03-.14zM30.83 38.07a2.52 2.52 0 0 1-.78 0 2.19 2.19 0 0 0 .78.07c.08-.02.1-.08 0-.07zM30.43 37.84a1.52 1.52 0 0 0-.22-.66 1.56 1.56 0 0 1 .14.61c-.01.07.09.12.08.05z" transform="translate(-2.92 -2.97)"/><path class="cls-88" d="M11.55 39.73a1.37 1.37 0 0 1-1.3 1.52 6.78 6.78 0 0 1-3.58-.42c-1-.36-3-.52-1.7-.92a20 20 0 0 0 2.77-1c1.05-.5 3.46-.2 3.81.82z" transform="translate(-2.92 -2.97)"/><path class="cls-89" d="M5 39.91a1.79 1.79 0 0 0-.26.1 10.56 10.56 0 0 0 4.67.36c1.13-.2 1.78-.34 2.19-.42a.59.59 0 0 0 0-.22c-.35-1-2.76-1.32-3.81-.83A20 20 0 0 1 5 39.91z" transform="translate(-2.92 -2.97)"/><path class="cls-90" d="M6.67 40.83a9.27 9.27 0 0 0 1.9.47c-.19-.08.73-.39.52-1s-2.74.13-3.29-.06c-.32-.12.13-.48.43-.73l-1.23.4c-1.31.4.62.56 1.67.92z" transform="translate(-2.92 -2.97)"/><path class="cls-91" d="M8.61 39.05c.84 0 3 .53 2.38 1.54a2.28 2.28 0 0 1-.56.62 1.34 1.34 0 0 0 1.12-1.48c-.34-1-2.61-1.3-3.71-.88a1.16 1.16 0 0 0 .77.2z" transform="translate(-2.92 -2.97)"/><path class="cls-92" d="M11.11 40.12a5.26 5.26 0 0 1-1.28.21h-.61c-.19 0-.38-.09-.58-.12l-.3-.06h-.3L7.43 40H6.2c-.08 0-.08 0 0 0h.62a6 6 0 0 1 .61 0l.6.07.29.05.3.06.57.14h.31a1.58 1.58 0 0 0 .31 0 5.61 5.61 0 0 0 1.32-.19c.3-.08.45-.17.44-.2s-.16.07-.46.19z" transform="translate(-2.92 -2.97)"/><path class="cls-92" d="M10 40.3a1.76 1.76 0 0 1-.48-.37.85.85 0 0 1-.17-.25.72.72 0 0 1 0-.33.78.78 0 0 0 0 .34.92.92 0 0 0 .16.27 1.49 1.49 0 0 0 .47.39h.11c.01 0-.09-.02-.09-.05zM8.77 40.22a5.2 5.2 0 0 0-.67.11 2.07 2.07 0 0 0-.33.1l-.17.08a.57.57 0 0 0-.14.13.57.57 0 0 1 .15-.12l.16-.07c.11 0 .22-.06.33-.09s.44-.06.65-.08.17-.07.02-.06zM10.63 40.3l-.48.29-.24.16-.24.16.24-.15.24-.14.49-.27c.12-.06.1-.12-.01-.05zM10.81 40.18a1.87 1.87 0 0 1-.47-.23.86.86 0 0 1-.33-.4.93.93 0 0 0 .31.42 2 2 0 0 0 .47.26h.1s-.02-.03-.08-.05zM9.51 40.38a5.58 5.58 0 0 0-.58.18l-.28.11a1.51 1.51 0 0 0-.28.15 1.47 1.47 0 0 1 .28-.14l.28-.1.58-.15c.13-.02.13-.09 0-.05z" transform="translate(-2.92 -2.97)"/><path class="cls-92" d="M8.93 40.17a1.7 1.7 0 0 1-.53-.68v-.05a1.18 1.18 0 0 0-.19-.11 1.23 1.23 0 0 0-.43-.1 1.18 1.18 0 0 1 .43.11.53.53 0 0 1 .29.3 1.47 1.47 0 0 0 .21.39 2.91 2.91 0 0 0 .3.31c.08.06.13.08.14.06s-.15-.17-.22-.23z" transform="translate(-2.92 -2.97)"/><path class="cls-88" d="M33.2 42.79a1.89 1.89 0 0 1 1 2.58 8.13 8.13 0 0 1-3.33 3.39c-1.27.79-3 2.67-2.5 1a20.48 20.48 0 0 0 .84-3.69c.15-1.48 2.4-3.74 3.99-3.28z" transform="translate(-2.92 -2.97)"/><path class="cls-89" d="M28.33 49.77a2.34 2.34 0 0 0-.08.35 12.06 12.06 0 0 0 4.09-4.55c.62-1.35.94-2.13 1.15-2.62a1.1 1.1 0 0 0-.29-.16c-1.59-.46-3.84 1.8-4 3.29a20.48 20.48 0 0 1-.87 3.69z" transform="translate(-2.92 -2.97)"/><path class="cls-90" d="M30.83 48.76a12.09 12.09 0 0 0 2.09-1.6c-.26.13 0-1.08-.89-1.35-1.13-.34-2 2.95-2.64 3.36-.39.24-.52-.52-.61-1-.11.45-.26.94-.45 1.63-.48 1.63 1.23-.25 2.5-1.04z" transform="translate(-2.92 -2.97)"/><path class="cls-91" d="M30 45.3c.59-.91 3-2.69 3.83-1.23a3.34 3.34 0 0 1 .38 1.08 1.89 1.89 0 0 0-1-2.36c-1.54-.44-3.7 1.66-4 3.15a1.47 1.47 0 0 0 .79-.64z" transform="translate(-2.92 -2.97)"/><path class="cls-92" d="M33.36 43.56a5.69 5.69 0 0 1-.72 1.51l-.25.32-.14.14a.86.86 0 0 1-.14.13l-.62.5-.3.27-.28.28a7.54 7.54 0 0 0-.55.58c-.18.2-.35.4-.51.61l-.13.16-.11.17-.12.16-.1.18c0 .09 0 .1 0 0l.11-.18.11-.16.12-.16.13-.15c.16-.21.35-.41.52-.6s.37-.39.56-.56a3.85 3.85 0 0 1 .3-.27l.3-.26c.2-.17.42-.31.63-.48a.93.93 0 0 0 .15-.13l.15-.15a3.88 3.88 0 0 0 .26-.31 5.94 5.94 0 0 0 .77-1.53c.13-.38.13-.6.09-.62s-.11.18-.23.55z" transform="translate(-2.92 -2.97)"/><path class="cls-92" d="M32.7 44.9a2.58 2.58 0 0 1-.84.2 1.46 1.46 0 0 1-.46 0 1.23 1.23 0 0 1-.45-.21 1.37 1.37 0 0 0 .45.23 2 2 0 0 0 .47.06 2.29 2.29 0 0 0 .87-.17c.1 0 .13-.08.12-.1s-.07-.05-.16-.01zM31.67 46.08a6.26 6.26 0 0 0-.38.78 3 3 0 0 0-.12.43.93.93 0 0 0 0 .24 1.23 1.23 0 0 0 .05.25.67.67 0 0 1 0-.24 1.85 1.85 0 0 1 0-.23 2 2 0 0 1 .14-.41 5.4 5.4 0 0 1 .4-.75c.09-.15.01-.24-.09-.07zM33.22 44.2V45.69v-.37-1.1c.08-.16 0-.22 0-.02zM33.21 43.92a2.72 2.72 0 0 1-.67.31 1.4 1.4 0 0 1-.76 0 1.48 1.48 0 0 0 .78 0 2.23 2.23 0 0 0 .7-.28c.07 0 .09-.09.08-.11s-.06.04-.13.08zM32.45 45.44c-.08.24-.15.49-.21.74l-.08.39a1.4 1.4 0 0 0 0 .41 1.33 1.33 0 0 1 0-.4l.09-.37.25-.72c.09-.23 0-.22-.05-.05z" transform="translate(-2.92 -2.97)"/><path class="cls-92" d="M31.73 45.87a2.72 2.72 0 0 1-1.27 0H30.13a1 1 0 0 0-.3.09 1.4 1.4 0 0 0-.46.38 1.51 1.51 0 0 1 .47-.36.9.9 0 0 1 .61-.06 2.21 2.21 0 0 0 .66.1 3.39 3.39 0 0 0 .64-.06c.14 0 .2-.07.19-.09s-.08-.03-.21 0z" transform="translate(-2.92 -2.97)"/><path class="cls-49" d="M7.13 33.71a1.41 1.41 0 0 0 1.44-2.19 8.45 8.45 0 0 0-3.74-3.81c-1.29-.83-1.94-1.71-1.91-1.23s.79 2 1.08 3.38 1.27 3.41 3.13 3.85z" transform="translate(-2.92 -2.97)"/><path class="cls-50" d="M5.2 28.42c1.41 1.1 2.12 3.08 1.45 2.58s-.39.73-.13 1.09-.33 1.39-1.63-.09a3.75 3.75 0 0 0 2.24 1.7 1.41 1.41 0 0 0 1.44-2.19 8.45 8.45 0 0 0-3.74-3.81 10.25 10.25 0 0 1-1-.76 8.41 8.41 0 0 0 1.37 1.48z" transform="translate(-2.92 -2.97)"/><path class="cls-51" d="M2.93 26.37a.31.31 0 0 0 0 .11c0 .51.79 2 1.08 3.38A.29.29 0 0 1 4 30c.52.31 1 .4 1.28.6.57.4-.06-.89-.69-1.46a16.14 16.14 0 0 1-1.66-2.77z" transform="translate(-2.92 -2.97)"/><path class="cls-52" d="M7.71 30.89c.42.67.79 2 .25 2.42a.88.88 0 0 0-.26.36c.67-.16 1.53-.72.87-2.15A6.3 6.3 0 0 0 7.64 30a.94.94 0 0 0 .07.89z" transform="translate(-2.92 -2.97)"/><path class="cls-53" d="M3.69 27.76a31.87 31.87 0 0 1 1.78 2.89A5.29 5.29 0 0 0 6.55 32a13 13 0 0 0 1.33 1.11c.2.14.34.26.43.33l.1-.08a6.2 6.2 0 0 0-.43-.37 15.8 15.8 0 0 1-1.34-1.08 5.42 5.42 0 0 1-1.1-1.29 34.7 34.7 0 0 0-1.85-2.86z" transform="translate(-2.92 -2.97)"/><path class="cls-54" d="M8.29 33a2.79 2.79 0 0 0 0-.64 2.43 2.43 0 0 0-.07-.61c0-.09-.06-.18-.08-.28l-.06-.12v-.13L8 31.09 7.88 31v-.05l-.11-.09.1.09v.1l.09.11.07.12v.12l.05.13c0 .1.06.18.08.28a3 3 0 0 1 .06.6 3.55 3.55 0 0 1-.06.64v.22s.11-.13.13-.27zM7.73 33a6.36 6.36 0 0 1-.87.06 2.58 2.58 0 0 1-.8-.1 2.63 2.63 0 0 0 .8.13 6.43 6.43 0 0 0 .87 0c.19-.09.2-.16 0-.09zM7.48 32.42a6.85 6.85 0 0 0-.22-1 3.47 3.47 0 0 0-.4-.92 3.16 3.16 0 0 1 .36.93 8.52 8.52 0 0 1 .19 1v.17s.08-.06.07-.18zM7.16 32.54h-.93l-.45-.06a1 1 0 0 1-.39-.15.93.93 0 0 0 .38.16 3.11 3.11 0 0 0 .44.08H7.3s-.04-.03-.14-.03zM6.5 31.67a4 4 0 0 1-.18-.59 2.06 2.06 0 0 1-.05-.66 1.1 1.1 0 0 0 0-.18 1.11 1.11 0 0 0 0-.17 2 2 0 0 0 0-.35 2.32 2.32 0 0 0-.1-.65 2.69 2.69 0 0 1 .08.65v.7a2.12 2.12 0 0 0 0 .67 4 4 0 0 0 .18.62c0 .13.1.18.11.17s.02-.07-.04-.21zM6.11 31.53a3.71 3.71 0 0 1-.67 0 1.11 1.11 0 0 1-.57-.23 1.16 1.16 0 0 0 .56.26 2.93 2.93 0 0 0 .67.07c.15-.03.17-.1.01-.1zM5.7 30.76a4.88 4.88 0 0 1-.12-.55 3.89 3.89 0 0 1 0-.6c0-.2.09-.42.1-.63a.75.75 0 0 0-.14-.54.74.74 0 0 1 .11.54c0 .2-.09.43-.11.64a3.92 3.92 0 0 0 0 .6 4.82 4.82 0 0 0 .1.57c0 .13.07.18.09.17a.43.43 0 0 0-.03-.2zM5.35 30.44a2.53 2.53 0 0 1-.48-.07.79.79 0 0 1-.4-.19.81.81 0 0 0 .39.23 3 3 0 0 0 .54.1c.1.01.07-.07-.05-.07zM5 29.74l-.39-.17a1.48 1.48 0 0 1-.37-.21.75.75 0 0 0 .17.14l.18.11.38.2c.08.06.11.1.08 0zM4.88 29.49a5.09 5.09 0 0 0 .12-.66.9.9 0 0 0-.07-.5 1 1 0 0 1 0 .51 4.09 4.09 0 0 1-.13.56c0 .13.04.22.08.09zM4.55 28.91c0-.17-.07-.35-.1-.52a4.05 4.05 0 0 0-.12-.5 4.67 4.67 0 0 1 .08.52c0 .18 0 .36.07.54a.16.16 0 0 0 0 .06zM4.09 28.3v-.31a.45.45 0 0 0 0-.11v-.05H4v.49c0 .08.08.04.09-.02z" transform="translate(-2.92 -2.97)"/><path class="cls-54" d="M4.37 28.8a1.71 1.71 0 0 1-.46-.19 1.68 1.68 0 0 0 .53.28c.04.02-.01-.08-.07-.09zM6.29 30.28a2.77 2.77 0 0 0 .26-.85 2.68 2.68 0 0 1-.27.78c-.03.07-.03.16.01.07zM7.21 31.25a3.91 3.91 0 0 0 .06-.83 3.87 3.87 0 0 1-.1.73c.02.16.03.18.04.1zM8.3 32.66a3.12 3.12 0 0 0-.15-.43 2 2 0 0 0-.1-.21.43.43 0 0 0-.13-.17A.47.47 0 0 1 8 32a1.8 1.8 0 0 1 .08.21 3.74 3.74 0 0 1 .12.45c.06.14.13.1.1 0zM7.16 33.05a1.51 1.51 0 0 1-.47.21 2.27 2.27 0 0 0 .56-.21s-.04-.05-.09 0z" transform="translate(-2.92 -2.97)"/><path class="cls-49" d="M29.59 42.87c.07-.38-.51-2.07-2.58-1.12a8.17 8.17 0 0 0-3.83 3.63c-.79 1.21-1.75 1.86-1.18 1.8s2.17-.86 3.65-1.22 3.65-1.39 3.94-3.09z" transform="translate(-2.92 -2.97)"/><path class="cls-50" d="M23.93 45c1.07-1.35 3.19-2.13 2.7-1.49s.86.29 1.23 0 1.58.19.08 1.46a3.31 3.31 0 0 0 1.65-2.13c.07-.38-.51-2.07-2.58-1.12a8.17 8.17 0 0 0-3.83 3.63 10 10 0 0 1-.74 1A9.11 9.11 0 0 0 23.93 45z" transform="translate(-2.92 -2.97)"/><path class="cls-51" d="M21.88 47.18H22c.57-.07 2.17-.86 3.65-1.22h.09c.29-.48.34-.92.54-1.19.38-.54-1 .13-1.55.73a18.55 18.55 0 0 1-2.85 1.68z" transform="translate(-2.92 -2.97)"/><path class="cls-52" d="M26.41 42.56c.69-.42 2.14-.85 2.65-.4a1.07 1.07 0 0 0 .43.2c-.24-.59-1-1.31-2.48-.61a7.17 7.17 0 0 0-1.57.94 1.24 1.24 0 0 0 .97-.13z" transform="translate(-2.92 -2.97)"/><path class="cls-53" d="M23.34 46.4c1-.63 2-1.25 3-1.81a5.8 5.8 0 0 0 1.36-1.07 13 13 0 0 0 1.08-1.27l.32-.41-.1-.09-.37.41a14.53 14.53 0 0 1-1.06 1.29 5.56 5.56 0 0 1-1.31 1.08 33.23 33.23 0 0 0-3 1.85c-.02.06 0 .07.08.02z" transform="translate(-2.92 -2.97)"/><path class="cls-54" d="M28.67 41.89a4.19 4.19 0 0 0-.71 0 3.37 3.37 0 0 0-.66.11 2.8 2.8 0 0 0-.31.09l-.13.07h-.13l-.13.07-.1.09h-.06v.05l-.09.11.09-.1h.1l.11-.08.13-.07h.13l.14-.06a2.63 2.63 0 0 1 .3-.09A3.5 3.5 0 0 1 28 42a4.21 4.21 0 0 1 .71 0h.25s-.12-.11-.29-.11zM28.7 42.39a5.5 5.5 0 0 1 .15.77 2 2 0 0 1 0 .73 1.9 1.9 0 0 0 .06-.72 5.34 5.34 0 0 0-.12-.77c-.06-.18-.14-.18-.09-.01zM28.13 42.66a9.64 9.64 0 0 0-1.12.27 4.06 4.06 0 0 0-1 .42 3.8 3.8 0 0 1 1-.4 9.81 9.81 0 0 1 1.13-.24c.13 0 .19 0 .18-.06s-.06-.02-.19.01zM28.29 42.94a5.83 5.83 0 0 1 .08.83 1.79 1.79 0 0 1 0 .4.9.9 0 0 1-.12.36.76.76 0 0 0 .14-.35 1.81 1.81 0 0 0 0-.4 4.68 4.68 0 0 0-.05-.83c0-.1 0-.15-.05-.15s-.01.04 0 .14zM27.4 43.58a4.49 4.49 0 0 1-.65.21 2.72 2.72 0 0 1-.72.1h-.78a3 3 0 0 0-.7.14 3.9 3.9 0 0 1 .71-.12 2.54 2.54 0 0 1 .39 0H26a3 3 0 0 0 .75-.08 4.6 4.6 0 0 0 .66-.2c.15 0 .2-.1.18-.12a.61.61 0 0 0-.19.07zM27.28 43.94a3.16 3.16 0 0 1 0 .61 1 1 0 0 1-.2.53.86.86 0 0 0 .23-.52 2.39 2.39 0 0 0 0-.6c.04-.15-.05-.16-.03-.02zM26.47 44.37a5.26 5.26 0 0 1-.6.15c-.21 0-.43.06-.66.07s-.47-.05-.71 0a1.05 1.05 0 0 0-.59.16 1 1 0 0 1 .59-.15c.23 0 .48.06.72 0a3.63 3.63 0 0 0 .67-.06 6.19 6.19 0 0 0 .62-.13c.14 0 .19-.07.18-.09a.45.45 0 0 0-.22.05zM26.15 44.7a2.13 2.13 0 0 1 0 .44.68.68 0 0 1-.18.38.68.68 0 0 0 .22-.36 2 2 0 0 0 0-.49c.03-.11-.05-.07-.04.03zM25.41 45.08c-.05.12-.09.25-.15.37a1 1 0 0 1-.2.34.48.48 0 0 0 .13-.16l.11-.17.18-.35c.06-.08.1-.12 0-.08h-.09zM25.14 45.2a4.6 4.6 0 0 0-.74-.05 1.18 1.18 0 0 0-.55.09 1.28 1.28 0 0 1 .57-.07 4.85 4.85 0 0 1 .63.07c.14.03.24-.02.09-.04zM24.53 45.54l-.56.12c-.19.05-.37.09-.55.15a4.78 4.78 0 0 1 .58-.11l.58-.1h.07-.12zM23.91 46H23.34h.57zM24.43 45.71a1.14 1.14 0 0 1-.17.43 1.54 1.54 0 0 0 .26-.49s-.08 0-.09.06z" transform="translate(-2.92 -2.97)"/><path class="cls-54" d="M25.87 43.88a3.73 3.73 0 0 0-1-.17 3.2 3.2 0 0 1 .89.18c.12.02.24.02.11-.01zM26.85 43a7 7 0 0 0-.92 0 5.72 5.72 0 0 1 .82 0h.1zM28.31 41.9l-.47.17-.21.1a.67.67 0 0 0-.19.14.62.62 0 0 1 .19-.12l.23-.09.49-.14c.12-.03.07-.09-.04-.06zM28.86 42.89a1.5 1.5 0 0 1 .28.41 1.62 1.62 0 0 0-.29-.48s-.03.03.01.07z" transform="translate(-2.92 -2.97)"/><g id="_Group_" data-name="&lt;Group&gt;"><path class="cls-93" d="M119.81 16.18a8.09 8.09 0 0 0 1.5-.21 1.74 1.74 0 0 0 .62-.28 3.91 3.91 0 0 1 2.22 1.21c.41.78-.43 1.27-1 1.78a10.77 10.77 0 0 0-3.34-2.5z" transform="translate(-2.92 -2.97)"/><path class="cls-94" d="M116.44 25.52c.83-3-.62-6.24-2.54-8.26a9.82 9.82 0 0 1 2.88 3 11.84 11.84 0 0 1 1.85 3.05c0 .6-.44.64-.82.92a1.28 1.28 0 0 0-.34.39 1.74 1.74 0 0 1-.79.75z" transform="translate(-2.92 -2.97)"/><path class="cls-95" d="M114.12 26.8c.56-3.22 1.49-6.9-.43-9.59 2 2 3.54 5.34 2.61 8.44a5.92 5.92 0 0 1-.27.81.83.83 0 0 1-.36.46c-.32.13-.42-.2-.56-.35-.39-.4-.59.17-.99.23z" transform="translate(-2.92 -2.97)"/><path class="cls-96" d="M122.13 15.24c0-.78-1.25-.62-1.23-1.52l.53-.08a5.72 5.72 0 0 1 3.43.84c.46.31 1.53 1.11 1.07 1.77a2.12 2.12 0 0 1-1.67.61 3.89 3.89 0 0 0-2.2-1.19.52.52 0 0 0 .07-.43z" transform="translate(-2.92 -2.97)"/><path class="cls-97" d="M124.3 14a5.57 5.57 0 0 0-2.09-.5 6 6 0 0 1 4 .93c.65.43 2.07 1.47.66 2.41a5.8 5.8 0 0 1-2.06.63c0 .2-.28.59-.39.74a1.62 1.62 0 0 1-.91.5l-.12-.14c.54-.51 1.24-1 1-1.72.7-.06 2.08-.32 1.82-1.3-.29-.64-1.29-1.22-1.91-1.55z" transform="translate(-2.92 -2.97)"/><path class="cls-98" d="M116.65 19.9a8.73 8.73 0 0 0-2.85-2.82c.72-.07 1.36.63 1.88 1l1.72 1.27a17.68 17.68 0 0 0 1.79 1.33 1.55 1.55 0 0 1 .38.95 1.28 1.28 0 0 1 0 .82 1.48 1.48 0 0 1-.84.79 13.73 13.73 0 0 0-2.08-3.34z" transform="translate(-2.92 -2.97)"/><path class="cls-99" d="M113.45 17.34l.13-.09c1.93 2.67 1 6.33.44 9.54a2.92 2.92 0 0 1-1.57-1.16 13.85 13.85 0 0 1 .82-5 6 6 0 0 0 .18-3.29z" transform="translate(-2.92 -2.97)"/><path class="cls-100" d="M114.4 16.26a2.08 2.08 0 0 0 .3-.45 27.86 27.86 0 0 1 3-1.24 21.18 21.18 0 0 1 3.1-.83c0 .57.37.63.74.95 1.27 1.09-1 1.29-1.62 1.34-1.11.08-2.23.19-3.33.19a7.69 7.69 0 0 0-2.29.19 1.3 1.3 0 0 1 .1-.15z" transform="translate(-2.92 -2.97)"/><path class="cls-97" d="M113.94 16.9a12.76 12.76 0 0 1 4.13.77c1.34.51 3.07 1.47 3.61 2.91a2.84 2.84 0 0 1-1.38.41c-1.07-.13-2-1.12-2.86-1.73S115.81 18 115 17.43a1.61 1.61 0 0 0-1.1-.46.46.46 0 0 1 .04-.07z" transform="translate(-2.92 -2.97)"/><path class="cls-101" d="M114 16.79l.18-.25c1.32-.45 2.87-.2 4.21-.28.36 0 .74 0 1.12-.06a10.3 10.3 0 0 1 3.61 2.59l.11-.1.12.14c-.08.6-.86 1.26-1.65 1.69a5.68 5.68 0 0 0-3-2.68 12.23 12.23 0 0 0-4.7-1.05z" transform="translate(-2.92 -2.97)"/><path class="cls-102" d="M113.36 17.42a5.39 5.39 0 0 1 .12 2.12 20 20 0 0 1-.67 2.21 13 13 0 0 0-.47 3.7 6.5 6.5 0 0 1-.69-2.46 6 6 0 0 1 .51-3.93 16.89 16.89 0 0 0 1.2-1.64z" transform="translate(-2.92 -2.97)"/><path d="M112.35 18.35l.79-1.05v.06a.09.09 0 0 0 .06 0c-.23.34-.48.68-.73 1L112 19c-.07.07-.23.38-.25.2s.46-.66.6-.85z" transform="translate(-2.92 -2.97)" fill="#2e435b"/><path class="cls-95" d="M114.45 15.57c-.09-.17.13-.36.27-.44s.11-.06.11 0v.08a.64.64 0 0 0-.08.14h.07s.16-.14.2-.12 0 .14-.07.17a.9.9 0 0 1-.19.2.2.2 0 0 1-.31-.03z" transform="translate(-2.92 -2.97)"/><path d="M113.35 17.17c-.16-.06 0-.21 0-.36a3.24 3.24 0 0 1 .28-.47 3.37 3.37 0 0 1 .68-.73.16.16 0 0 0 0 .07.28.28 0 0 0 .19.1l-.48.74c-.03.06-.44.75-.67.65z" transform="translate(-2.92 -2.97)" fill="#364d6e"/><path class="cls-102" d="M113.1 17.18l-1.26 1.68a5.8 5.8 0 0 1-3.61 1.5 7.29 7.29 0 0 1-2.56 0 13.21 13.21 0 0 0 3.45-1.46c.65-.4 1.26-.92 1.94-1.25a5.7 5.7 0 0 1 2.04-.47z" transform="translate(-2.92 -2.97)"/><path class="cls-99" d="M103.89 19.09c2.94-1.41 6.21-3.31 9.31-2.16l-.06.14a6 6 0 0 0-3.14 1.08 13.73 13.73 0 0 1-4.57 2.14 2.83 2.83 0 0 1-1.54-1.2z" transform="translate(-2.92 -2.97)"/><path class="cls-100" d="M113.8 16a6.52 6.52 0 0 0-.4-2.1c-.32-1.11-.53-2.26-.76-3.4a8.7 8.7 0 0 1-.18-1c0-.18-.1-.66 0-.78a1 1 0 0 1 1-.2c.46.24.57.72 1.19.53a25.07 25.07 0 0 1-.35 6.51 4.89 4.89 0 0 0-.5.44z" transform="translate(-2.92 -2.97)"/><path class="cls-95" d="M104.37 16.59c2.73-1.74 6.36-1.16 8.83.22-3.11-1.12-6.4.77-9.35 2.19 0-.41.44-.75 0-1-.19-.1-.53-.1-.5-.44a.81.81 0 0 1 .35-.48 4.08 4.08 0 0 1 .7-.47z" transform="translate(-2.92 -2.97)"/><path class="cls-94" d="M109.4 14.67a9.66 9.66 0 0 1 3.69 2c-2.46-1.31-5.94-1.83-8.64-.21a1.67 1.67 0 0 0 0-.19v-.25a1.72 1.72 0 0 1 .51-.79c.45-.47.23-1.29.95-1.47a12.48 12.48 0 0 1 3.49.91z" transform="translate(-2.92 -2.97)"/><path class="cls-98" d="M110.12 13.83l1.53 1.17c.55.43 1.51.91 1.64 1.66a8.84 8.84 0 0 0-3.49-2 13.74 13.74 0 0 0-3.8-1.04 1.51 1.51 0 0 1 .48-1 1.29 1.29 0 0 1 .83-.29 1.56 1.56 0 0 1 1 .11 20 20 0 0 0 1.81 1.39z" transform="translate(-2.92 -2.97)"/><path class="cls-96" d="M112.48 8.36a3.94 3.94 0 0 0-1.75-1.79 2.24 2.24 0 0 1 .06-1.65c.52-.73 1.61 0 2.07.43a5.81 5.81 0 0 1 1.75 3.09l.06.51c-.86.27-1-1-1.8-.77a.6.6 0 0 0-.39.18z" transform="translate(-2.92 -2.97)"/><path class="cls-93" d="M112.32 9.14a8.7 8.7 0 0 0 .2 1.5 10.51 10.51 0 0 0-3.32-2.58c.35-.64.6-1.58 1.46-1.4a3.86 3.86 0 0 1 1.76 1.81 1.68 1.68 0 0 0-.1.67z" transform="translate(-2.92 -2.97)"/><path class="cls-97" d="M113.38 16.61a1.57 1.57 0 0 0-.74-1l-2.45-1.9c-.81-.63-2-1.28-2.44-2.28a2.69 2.69 0 0 1 0-1.44c1.53.13 2.92 1.54 3.77 2.69a12.78 12.78 0 0 1 1.87 3.77v.08z" transform="translate(-2.92 -2.97)"/><path class="cls-101" d="M113.51 16.4a12.07 12.07 0 0 0-2.3-4.3 5.74 5.74 0 0 0-3.41-2.18 3.07 3.07 0 0 1 1.17-2l.17.08-.06.12a10.11 10.11 0 0 1 3.48 2.77l.25 1.08c.28 1.32.94 2.75.86 4.14a2.48 2.48 0 0 0-.16.29z" transform="translate(-2.92 -2.97)"/><path class="cls-97" d="M112.31 3.89a6.06 6.06 0 0 1 2.1 3.71 5.65 5.65 0 0 0-.92-1.73c-.47-.58-1.35-1.45-2.18-1.44-1 0-.9 1.42-.76 2.11-.78-.07-1.06.74-1.4 1.41l-.15-.08a1.63 1.63 0 0 1 .23-1c.12-.16.4-.53.61-.57a5.13 5.13 0 0 1 0-2c0-.4.2-.62.67-.66.38-.4.74-.43 1.07-.1a6.08 6.08 0 0 1 .73.35z" transform="translate(-2.92 -2.97)"/><path class="cls-83" d="M112.52 10.64a8.7 8.7 0 0 1-.2-1.5 1.68 1.68 0 0 1 .1-.67 3.86 3.86 0 0 0-1.76-1.81c-.86-.18-1.11.76-1.46 1.4a10.51 10.51 0 0 1 3.32 2.58zm2.08-1.72l-.06-.51a5.81 5.81 0 0 0-1.75-3.09c-.46-.41-1.55-1.16-2.07-.43a2.24 2.24 0 0 0-.06 1.65 3.94 3.94 0 0 1 1.75 1.79.6.6 0 0 1 .32-.21c.83-.18 1.01 1.07 1.87.8zm-1.46 8.38l-.79 1.05c-.14.19-.63.65-.59.88s.18-.13.25-.2l.51-.64c.25-.32.5-.66.73-1a.09.09 0 0 1-.06 0l-.05-.09zm7.76-3.58c0 .9 1.23.74 1.23 1.52a.52.52 0 0 1-.12.37 3.89 3.89 0 0 1 2.2 1.19 2.12 2.12 0 0 0 1.67-.61c.46-.66-.61-1.46-1.07-1.77a5.72 5.72 0 0 0-3.43-.84zm-1.09 2.46a10.77 10.77 0 0 1 3.39 2.5c.52-.51 1.36-1 1-1.78a3.91 3.91 0 0 0-2.22-1.21 1.74 1.74 0 0 1-.62.28 8.09 8.09 0 0 1-1.55.21zm-5.91 1.08c1.92 2 3.37 5.23 2.54 8.26l.24-.12a1.74 1.74 0 0 0 .79-.75 1.28 1.28 0 0 1 .34-.39c.38-.28.83-.32.82-.92a11.84 11.84 0 0 0-1.85-3.05 9.82 9.82 0 0 0-2.88-3.03zm2.4 8.39c.93-3.1-.61-6.44-2.61-8.44 1.92 2.69 1 6.37.43 9.59.4-.06.6-.63 1-.22.14.15.24.48.56.35a.83.83 0 0 0 .36-.46 5.92 5.92 0 0 0 .27-.81zm1.77-8a12.76 12.76 0 0 0-4.13-.77.46.46 0 0 0-.07.07 1.61 1.61 0 0 1 1.1.46l2.49 1.84c.83.61 1.79 1.6 2.86 1.73a2.84 2.84 0 0 0 1.38-.41c-.56-1.43-2.29-2.39-3.63-2.9zm-2.39.42c-.52-.38-1.16-1.08-1.88-1a8.73 8.73 0 0 1 2.85 2.82 13.73 13.73 0 0 1 2.06 3.35 1.48 1.48 0 0 0 .84-.79 1.28 1.28 0 0 0 0-.82 1.55 1.55 0 0 0-.38-.95 17.68 17.68 0 0 1-1.79-1.33zm-1.47-1.55l-.18.25a12.23 12.23 0 0 1 4.73 1.06 5.68 5.68 0 0 1 3 2.68c.79-.43 1.57-1.09 1.65-1.69a1.62 1.62 0 0 0 .91-.5c.11-.15.4-.54.39-.74a5.8 5.8 0 0 0 2.06-.63c1.41-.94 0-2-.66-2.41a6 6 0 0 0-4-.93 5.57 5.57 0 0 1 2.09.5c.62.29 1.62.87 1.82 1.63.26 1-1.12 1.24-1.82 1.3.27.73-.43 1.21-1 1.72l-.11.1a10.3 10.3 0 0 0-3.61-2.59c-.38 0-.76 0-1.12.06-1.34.08-2.89-.17-4.21.28zm3.49-2a27.86 27.86 0 0 0-3 1.24 2.08 2.08 0 0 1-.3.45 1.3 1.3 0 0 0-.1.15 7.69 7.69 0 0 1 2.29-.19c1.1 0 2.22-.11 3.33-.19.64-.05 2.89-.25 1.62-1.34-.37-.32-.76-.38-.74-.95a21.18 21.18 0 0 0-3.1.88zm-5.54 4.49a6 6 0 0 0-.51 3.93 6.5 6.5 0 0 0 .69 2.46 13 13 0 0 1 .47-3.7 20 20 0 0 0 .67-2.21 5.39 5.39 0 0 0-.12-2.12 16.89 16.89 0 0 1-1.2 1.69zm1.42-1.81l-.13.09a6 6 0 0 1-.18 3.31 13.85 13.85 0 0 0-.82 5 2.92 2.92 0 0 0 1.55 1.19c.58-3.21 1.51-6.87-.42-9.54zm-.32-.42zm-2.05-4.73a12.07 12.07 0 0 1 2.3 4.3 2.48 2.48 0 0 1 .19-.26c.08-1.39-.58-2.82-.86-4.14l-.25-1.08a10.11 10.11 0 0 0-3.48-2.77l.06-.12c.34-.67.62-1.48 1.4-1.41-.14-.69-.26-2.09.76-2.11.83 0 1.71.86 2.18 1.44a5.65 5.65 0 0 1 .92 1.73 5.92 5.92 0 0 0-2.76-4.18c-.33-.33-.69-.3-1.07.1-.47 0-.7.26-.67.66a5.13 5.13 0 0 0 0 2c-.21 0-.49.41-.61.57a1.63 1.63 0 0 0-.23 1 3.07 3.07 0 0 0-1.17 2.05 5.74 5.74 0 0 1 3.29 2.27zm2.08 4.57c-.13-.75-1.09-1.23-1.64-1.66l-1.53-1.18a20 20 0 0 1-1.77-1.37 1.56 1.56 0 0 0-1-.11 1.29 1.29 0 0 0-.83.29 1.51 1.51 0 0 0-.48 1 13.74 13.74 0 0 1 3.78 1.07 8.84 8.84 0 0 1 3.47 2.01zm-8.84-.25c2.7-1.62 6.18-1.1 8.64.21a9.66 9.66 0 0 0-3.69-2 12.48 12.48 0 0 0-3.44-.95c-.72.18-.5 1-.95 1.47a1.72 1.72 0 0 0-.51.79v.25a1.67 1.67 0 0 1-.05.28zm10.27-1.29c-.14.08-.36.27-.27.44a.2.2 0 0 0 .28.08.9.9 0 0 0 .19-.2s.12-.16.07-.17-.18.1-.2.12h-.07a.64.64 0 0 1 .08-.14v-.08c0-.01-.05-.02-.08 0zm-2.08.51a1.57 1.57 0 0 1 .74 1v-.08a12.78 12.78 0 0 0-1.87-3.77c-.85-1.15-2.24-2.56-3.77-2.69a2.69 2.69 0 0 0 0 1.44c.41 1 1.63 1.65 2.44 2.28s1.65 1.23 2.46 1.87zm1.75 0a.16.16 0 0 1 0-.07 3.37 3.37 0 0 0-.68.73 3.24 3.24 0 0 0-.28.47c-.07.15-.2.3 0 .36s.62-.45.75-.63.49-.73.48-.74a.28.28 0 0 1-.27-.03zm-.59.32a4.89 4.89 0 0 1 .46-.45 25.07 25.07 0 0 0 .35-6.46c-.62.19-.73-.29-1.19-.53a1 1 0 0 0-1 .2c-.09.12 0 .6 0 .78a8.7 8.7 0 0 0 .18 1c.23 1.14.44 2.29.76 3.4a6.52 6.52 0 0 1 .44 2.15zm-3.8 2.24a6 6 0 0 1 3.15-1.08l.06-.14c-3.1-1.15-6.37.75-9.31 2.16a2.83 2.83 0 0 0 1.54 1.2 13.73 13.73 0 0 0 4.56-2.14zm3.2-1.34c-2.47-1.38-6.1-2-8.83-.22a4.08 4.08 0 0 0-.7.47.81.81 0 0 0-.35.48c0 .34.31.34.5.44.49.26 0 .6 0 1 2.98-1.4 6.27-3.29 9.38-2.17zm1.61-1.81a15 15 0 0 0 1.3-3.06c0-.07.12 0 .09 0a15.68 15.68 0 0 1-1.29 3 .21.21 0 0 1 0 .13.15.15 0 0 1 .13 0 7 7 0 0 1 1.17-1.06c.49-.36.94-.79 1.44-1.12.06 0 .12 0 .06.08-.44.29-.82.67-1.25 1a7.31 7.31 0 0 0-1.36 1.19.32.32 0 0 1-.06.18l-.1.15c3-1.41 7-2.95 10-1.87.88.32 2.76 1.17 2.72 2.38s-2 1.38-2.81 1.52a2.07 2.07 0 0 1-.44.81 1.72 1.72 0 0 1-.91.48c-.13.75-1 1.24-1.59 1.64a2.15 2.15 0 0 1-1.91.52 3.13 3.13 0 0 1-.6-.24 2.21 2.21 0 0 1 .32 1.24 1.54 1.54 0 0 1-1 1.29c0 .46-.2.64-.58.88-.84.53-.44.46-.84.94a.48.48 0 0 1-.16.17c-.24.18-.54.11-.76.35-.11.42-.26 1.25-.77 1.37-.28.06-.33-.14-.5-.29a.7.7 0 0 0-.59-.07l-.14.13a.69.69 0 0 1-.34.09c-1.61-.51-2.16-1.72-2.4-3.35a7.13 7.13 0 0 1 .32-4.28c-.14.11-.25.16-.31.11a.17.17 0 0 1 0-.22 6.87 6.87 0 0 1-4 1.36c-1.63.19-2.93 0-3.87-1.41-.1-.39.31-.8-.16-1.07-.18-.11-.39-.13-.4-.41 0-.52.72-.88 1.1-1.11.18-.29 0-.61.18-.91a.47.47 0 0 1 .15-.19c.35-.39.37-.18.6-1 .12-.42.25-.67.68-.79a1.59 1.59 0 0 1 1-1.34 2.23 2.23 0 0 1 1.28 0 3.21 3.21 0 0 1-.39-.52 2.19 2.19 0 0 1 0-2c.24-.65.46-1.64 1.14-2a1.75 1.75 0 0 1 .22-1 1.9 1.9 0 0 1 .67-.65c-.08-.8-.34-2.8.7-3.12s2.48 1.2 3 2c1.88 2.65 1.45 7 .91 10.27a.85.85 0 0 1 .31-.26h.09zm-6.63 5.38a5.8 5.8 0 0 0 3.61-1.5l1.26-1.68a5.7 5.7 0 0 0-2.09.46c-.68.33-1.29.85-1.94 1.25a13.21 13.21 0 0 1-3.45 1.46 7.29 7.29 0 0 0 2.61 0z" transform="translate(-2.92 -2.97)"/></g></svg>