<?xml version="1.0" encoding="utf-8"?>
<!-- Generator: Adobe Illustrator 22.0.1, SVG Export Plug-In . SVG Version: 6.00 Build 0)  -->
<svg version="1.1" id="LeoVegas_SPORT" xmlns="http://www.w3.org/2000/svg" xmlns:xlink="http://www.w3.org/1999/xlink" x="0px"
	 y="0px" viewBox="0 0 390.1 97.8" style="enable-background:new 0 0 390.1 97.8;" xml:space="preserve">
<style type="text/css">
	.st0{fill:url(#SVGID_1_);}
	.st1{opacity:0.15;}
	.st2{fill:#FFFFFF;}
	.st3{opacity:0.1;}
	.st4{fill:#3B200F;}
	.st5{fill:url(#SVGID_2_);}
	.st6{fill:#E7E3DF;}
	.st7{fill:none;stroke:#FFFFFF;stroke-miterlimit:10;}
</style>
<g>
	<g id="LeoVegas.com">
		<g>
			<g>
				
					<linearGradient id="SVGID_1_" gradientUnits="userSpaceOnUse" x1="218.8978" y1="12.0856" x2="263.4967" y2="89.3333" gradientTransform="matrix(1 0 0 -1 0 100)">
					<stop  offset="0" style="stop-color:#481113"/>
					<stop  offset="1" style="stop-color:#9A382E"/>
				</linearGradient>
				<path class="st0" d="M383.9,53.5c1.8-1.5,2.8-3.8,2.8-7.3c0-2.4-0.9-5.7-2.7-7.5c-3.4-3.4-10.6-5.6-16.5-5.6
					c-8.5,0-14.1,3-17.2,7.1c-0.1-0.2-0.3-0.4-0.4-0.6c-3.4-4.1-9-6.4-17.1-6.4c-2.8,0-5.3,0.3-7.5,0.8v-0.1h-22.1v1.3
					c-1.2-0.8-2.1-2.1-7.8-2.1c-5.8,0-11.1,2.5-14.8,6.6c-3.7-4.1-9.2-6.6-16.6-6.6c-0.2,0-0.5,0-0.7,0V18.3h-61.7v9.4v5.6
					c-0.2,0-0.4,0-0.7,0c-7.7,0-13.8,3-18,7.7c-3.6-4.8-9.5-7.8-17.6-7.8c-12,0-20.3,8-22.4,18.4h-13.3v-13h6.2V18.5h-34.4v20.2h5.4
					v20.2h-5.4v20.2h47.4V73c4.4,4.3,10.8,6.8,18.4,6.8c6.6,0,12.3-1.3,17.1-4.1l1.3-0.9c3.9,3,9,4.9,15.2,4.9
					c9.5,0,16.7-4.7,20.6-11.3l2.9,5.7c1.2,3.3,4.3,5.7,8.7,5.7c4.2,0,7.3-2.4,8.6-5.5l2.6-5.5c4.1,6.9,11.9,11.1,21.8,11.1
					c4.1,0,7.9-0.5,11.4-1.6c0,1.1,0,2.2,0,3.5c0,2.2,0.7,4.2,2.5,6c3.2,3.2,10,5.8,18,5.8c7.4,0,13.4-2.4,17.1-7
					c2.1-2.6,3.5-5.9,4-9.8c2.9,2,6.6,3,10.5,3c2.2,0,4.3-0.3,6.4-0.9V79h19.2v-0.9c3.6,1.3,7.8,2.1,11.9,2.1
					c11.1,0,20.8-5.5,20.8-15.8C387.6,59.4,386.7,56,383.9,53.5z"/>
			</g>
		</g>
		<g id="Dark_Red" class="st1">
			<g>
				<path d="M381.3,54c8.8-11.2-4.9-20.1-18.4-16.9c-8.5,2-14.4,12.1-7.7,20.5c-1.5,1.6-3.3,2.4-3.8,5c-1.9-5,0.7-12.6-1-17.2
					c-4.2-11.1-20.9-10.6-29.5-4c0-0.8,0-3.1,0-3.9c-3.2-0.4-16.4-0.2-16.4-0.2s-0.6,0.5-0.9,0.5c-1.3-0.3-2.5-0.7-3.8-1
					c-4.6-0.8-8.8,0-12.1,1.8c-5.8,3.1-6.2,4.9-7.2,7.2c-3.8-9.8-17.2-10.7-27.4-6.5c0.8-1.8,2.1-4.2,2.1-4.2h4.6V21.7h-24.6v13.4
					h3.2l-5.1,13.1c0,0-3.5-8.6-5.2-13c0.5,0,3,0,3,0V21.7l-24.8-0.1L206,35.2h5c0,0,1.1,2.8,1.7,4.2v0.2c-3.2-2.6-8.2-2.9-11.5-2.9
					c-8.3,0-15.3,4.2-18.4,10.9c-0.1,0.1-0.1,0.3-0.2,0.4c-1.5-8.3-13.3-13.9-24.3-10.5c-7,2.2-12.8,8.4-12.7,17.8
					c-2.5-0.4-9.4-0.3-12.9-0.3c-0.2,1.6-0.3,3.4-0.2,6.7h-6.7V35.2c1.6,0,6.4-0.1,6.4-0.1l0.1-13.4l-26.7,0.1v13.3
					c0,0,2.7,0.2,5.8,0.1v26.6c-1.3,0-3.7,0.1-5.1,0.1c-0.4,1.5-0.6,8.9-0.5,13.4c2.6,0.3,32.2,0.5,40.1,0.4c0.2-3,0.5-8.2,0.8-11.8
					h0.2c1.9,9.1,13.5,13.8,25.5,11.5c3.9-0.7,10.1-4.3,10.1-4.3s-2-5.8-2.4-8.9h1.5C184.2,71.8,197,80,210,74.5
					c6.6-2.8,8.3-7.8,11.1-14.6v-0.4h0.2c2,4.9,4.7,10.8,6.7,15.7c0.6,1.6,7.8,2.3,9.3-0.1c2.4-4.5,5.5-11.8,7.2-15.6h0.2
					c1.4,15,15.7,18.1,29.4,14.9c1.6-0.4,7-3.1,7-3.1s-1.3-4.7-1.9-8.3c1.9,3.2,3.6,5.4,5.6,8.2c-1.2,1.3-3.1,2.4-3.8,4.2
					c-4.2,12.2,15,17.2,25.1,13.4c9.2-3.5,10.3-13.2,10.2-24.9c0,4.6,2.4,9.2,6.8,11c2.8,1.2,13,1.8,14.9-0.6
					c3.5,1.7,11.2,0.9,16.1,0.8c0.8-0.6,1.4-1,1.7-2.1C370.9,80.7,395,71.3,381.3,54z M163,50.4c0,0.6-0.6-0.8,1.7-0.8
					c1.4,0,2.1,0.4,2.7,0.8C165.9,50.5,164.4,50.4,163,50.4z M165,62.2h5.9C169.4,63,166.5,63,165,62.2z M194.7,62.6V62
					c1.5-2,3.9-2.9,5.4-4.8c0.9,2,1.8,3.9,2.7,5.9c0.4,0.4,0.8,0.8,1.3,1.3C201.6,64.2,199.1,62.5,194.7,62.6z M261.7,50.2
					c0.6-0.2,0-0.6,1.7-0.6s2.4,0,2.7,0.6c-1.5,0.1-2.9,0.1-4.4,0.2L261.7,50.2L261.7,50.2z M263.8,62.2c1.9,0.1,3.7,0,5.6,0
					C267.5,63,265.4,63.1,263.8,62.2z M296.2,76.8c-0.2-0.8-0.4-1.5-0.6-2.3c1.8,0,4.2,0.2,5.4-0.4h0.4
					C300.6,76.1,299.2,76.9,296.2,76.8z M302,59.7c-5.7,6.2-13.9-5-4.4-9.6c1.5,0.4,2.9,0.8,4.4,1.3V59.7z M316.4,63.7
					c-0.1-4.3-0.3-8.9-0.4-13.5h2.5c0.5,2,1.5,2.6,2.5,4C318,56.5,316.5,60.1,316.4,63.7z M333.2,49.4c1.7,0.1,2.7,0.6,3.3,1.7v0.2
					H333C333.1,50.7,333.1,50,333.2,49.4z M331.5,63.4c-0.1-0.1-0.3-0.1-0.4-0.2c0.4-0.5,0.4-0.8,0.8-1c0.3-0.2,1-0.2,1.5-0.4
					c0.4,0,1.1-0.2,1.8-0.2c0.7,0,1.4,0.4,1.7,0.4C335.9,63.1,333.5,63.8,331.5,63.4z M366.3,63.4c-0.1-0.2-0.1-0.4-0.2-0.6
					c0.8,0.2,1.7,0.4,2.5,0.6H366.3z"/>
			</g>
		</g>
		<g id="White">
			<g>
				<path class="st2" d="M165.2,39.8c-9.7,0-15.9,7.5-15.9,16.4c0,9.8,7.1,16.2,17.4,16.2c4.6,0,8.6-0.9,11.9-2.9l0.1-0.6l-1.5-5.3
					c-3.1,1.4-6.2,2.2-9.3,2.2c-5.2,0-9.3-2.2-10.3-7h22.7c0.2-1.1,0.4-2.7,0.4-3.9C180.5,46.6,175.2,39.8,165.2,39.8z M157.3,53.3
					c0.9-5.2,4.3-7.2,7.8-7.2c4.6,0,7.4,2.9,7.5,7.2H157.3z M201.2,39.9c-10.3,0-16.7,7.7-16.7,16.3c0,8.8,6.3,16.3,16.7,16.3
					c10.3,0,16.7-7.7,16.7-16.3C217.9,47.4,211.6,39.9,201.2,39.9z M207.3,45.7c0.2,0.5,0.3,0.9,0.2,1.6c-0.2,0-0.4,0-0.5-0.1
					c0,0,0,0-0.1-0.1C207,46.7,207.2,45.9,207.3,45.7z M201.2,43.9c-0.1,0.5-0.2,1-0.3,1.5c-0.2,0-0.4-0.1-0.5-0.1
					C200.5,44.8,200.7,44.1,201.2,43.9z M198.8,47.2c0.3-0.6,0.7-1.1,1.1-1.4c0.3-0.2,0.5-0.2,0.8-0.2c0.1,0.1,0.4,0.3,0.6,0.5
					c0.2,0.3,0.3,0.7,0.5,1.1c0.6,1.3,0.9,3-0.1,3.9c-0.3,0.4-0.8,0.5-1.3,0.6c-0.8-0.5-2-1.1-2.3-2
					C197.8,49.1,198.2,48.1,198.8,47.2z M192.5,45.4c-0.1,0.7,0,1.1,0.2,1.7c0,0,0,0,0,0.1c-0.2,0-0.4,0.1-0.6,0.2
					C191.8,46.9,192.2,45.6,192.5,45.4z M192,47.7c0.4-0.2,0.6-0.3,1.3-0.2c0.6,0.3,1.1,0.6,1.7,0.9c0.4,0.4,0.5,1,0.7,1.6
					c0.5,1.3,1,2.1,0.1,2.8c-0.2,0.1-0.4,0.2-0.7,0.3c-0.5,0.2-0.8,0.8-1.5,0.8C191.4,54.1,191.3,49.4,192,47.7z M204.4,67.8
					c-1.7,0.4-4.7-1.6-6.1-2c-2-0.7-4.2,1.1-5.7,0c-0.7-0.5-1.9-4.3-1.2-5.5c0.4-0.4,0.8-0.7,1.2-1.1c0.8-1,1.6-2.3,2.6-3
					c0.7-0.3,1.4-0.7,2.1-1c0.5-0.3,0.7-0.7,1-1c0.6-0.6,1.2-1,2.9-0.8c0.4,0.2,0.8,0.4,1.3,0.5c0.8,0.6,3,5.8,3.6,7
					c0.3,0.8,1.5,1.2,1.7,2.1C208.2,65.5,206,67.4,204.4,67.8z M207.9,52.8c-0.3,0.3-0.7,0.5-1.2,0.6c-0.3,0-0.7,0.1-1.1,0
					c-0.2-0.1-0.4-0.3-0.7-0.4c-0.2-0.1-0.3-0.2-0.5-0.3c-0.4-1.8,0.7-4.5,2.1-5.2c0.2-0.1,0.5-0.1,0.8-0.1c0.9,0.9,1.3,2.2,1.3,3.3
					c0,0.4,0,0.9-0.1,1.3C208.5,52.3,208.2,52.6,207.9,52.8z M213.4,57.5c-0.1,0.6-0.2,1.3-0.3,1.9c-0.4,0.7-1.1,1.1-2,1.3
					c-0.3,0-0.6,0.2-0.8,0.1c-0.3,0-0.6-0.2-0.9-0.3c-0.3-0.1-0.5-0.3-0.7-0.5c-1.1-1,0.1-3.9,1.1-4.4c1-0.2,2-0.4,3-0.5
					c0.3,0.2,0.5,0.3,0.8,0.5C213.8,56.2,213.6,56.8,213.4,57.5z M213.7,55.4c-0.2-0.1-0.4-0.2-0.6-0.3c0.2-0.5,0.5-1,0.7-1.5
					C213.9,54.1,213.8,54.8,213.7,55.4z M135.9,64.7h-13V31.9h6.2v-7.3h-19.7v7.3h5.4v32.7h-5.4v7.3h34.3V58h-7.8V64.7z M263.7,39.8
					c-9.7,0-15.9,7.5-15.9,16.4c0,9.8,7.1,16.2,17.4,16.2c4.6,0,8.6-0.9,11.9-2.9l0.1-0.7l-1.5-5.3c-3.1,1.4-6.3,2.2-9.4,2.2
					c-5.2,0-9.3-2.2-10.3-7h22.7c0.2-1.1,0.4-2.7,0.4-3.9C279,46.6,273.7,39.8,263.7,39.8z M255.9,53.3c0.9-5.2,4.3-7.2,7.8-7.2
					c4.6,0,7.4,2.9,7.5,7.2H255.9z M347.7,52c0-3.2-0.8-5.9-2.4-7.9c-2.2-2.7-5.9-4.2-11.3-4.2c-8.5,0-12.5,4.1-12.5,8
					c0,2.6,1.8,4.2,4.2,4.2c2.4,0,4.2-1.7,4.2-4.1c0-0.4-0.1-1.1-0.3-1.6c0.7-0.3,1.7-0.5,3.1-0.5c2.8,0,4.9,0.6,6.2,2.3
					c0.8,1,1.2,2.4,1.2,4.3V55c-1.7-0.4-4.7-0.9-8-0.9c-7.5,0-12.6,3.6-12.6,9.5s4.8,8.8,10.2,8.8c4.2,0,8-1.9,10.6-4v3.4h12.1v-6.5
					h-4.7L347.7,52L347.7,52z M340.1,64c-2.4,1.7-5.1,2.8-7.9,2.8s-4.7-1.4-4.7-3.9c0-2.9,2.3-4.6,6.1-4.6c2.4,0,4.7,0.3,6.5,0.7V64
					z M256.6,31.9v-7.3h-18.7v7.3h5.2L233,57.8l-10.2-25.9h5v-7.3h-18.7v7.3h4.3l17.2,40.5h4.6l17.2-40.5
					C252.4,31.9,256.6,31.9,256.6,31.9z M305.2,43.2c-2.1-1.8-5-3.4-9-3.4c-8.2,0-14.7,7-14.7,15.9c0,9.3,6.4,15.4,14.4,15.4
					c4.2,0,6.7-1.7,9-4v4.5c0,2.4-0.5,4.2-1.4,5.5c-1.4,1.9-3.6,2.7-6.4,2.7c-1.9,0-3.4-0.4-4.7-0.8c0.1-0.3,0.1-0.9,0.1-1.2
					c0-2.4-1.9-4.1-4.4-4.1c-2.6,0-4.2,2.2-4.2,4.4c0,1.5,0.5,2.9,1.7,4.1c2.2,2.2,6.9,4,12.4,4c5.1,0,9.2-1.7,11.8-4.8
					c1.9-2.4,2.9-5.6,2.9-9.5V47h4.7v-6.6h-12.2L305.2,43.2L305.2,43.2z M304.9,61.5c-2,1.9-4.4,3.1-7,3.1c-4.8,0-8.3-3.2-8.3-8.9
					c0-6,3.5-9.1,8.3-9.1c2.8,0,5.2,1,7,2.4V61.5z M369.4,52.9c-4.8-1.3-6.6-2.2-6.6-4c0-1.7,1.7-3.2,5.2-3.2c1.6,0,3.2,0.3,4.5,0.8
					c-0.1,0.4-0.1,0.9-0.1,1.4c0,2.4,1.7,3.9,4.2,3.9c2.3,0,3.9-1.7,3.9-4.2c0-1.5-0.6-2.9-1.7-4c-2.2-2.2-6.8-3.6-10.6-3.6
					c-8.8,0-12.9,5.1-12.9,10c0,5.4,3.7,7.5,12.3,9.8c4.8,1.3,6.2,2.2,6.2,3.8c0,2.3-2.6,3.4-5.7,3.4c-2.2,0-4.2-0.4-5.7-1
					c0.1-0.4,0.1-0.9,0.1-1.3c0-2.7-2.1-4.2-4.2-4.2c-2.4,0-4.2,1.9-4.2,4.2c0,1.7,0.5,2.9,1.8,4.2c2.1,2.1,7.3,3.8,12.1,3.8
					c7.1,0,13.3-3.5,13.3-10.1C381.3,56.7,377,54.9,369.4,52.9z"/>
			</g>
		</g>
		<g id="Grey" class="st3">
			<g>
				<path class="st4" d="M255.7,30.6v-5.3h-16.9v5.6h4.8c0.6,1.4-1,6-2.8,10.7c2.3-1,4.7-1.7,7.1-2.2c1.2-2.8,2.4-5.7,3.5-8.5
					C252.4,30.5,254.1,30.5,255.7,30.6z M208.6,47.7c0.4,0.9,1.2,2.9,0.5,4.5c-1,2.1-3.1,2.1-3.4,2c-0.3-0.1-1.5-1.3-1.9-2.2l-1.1,1
					c0.7,0.5,1.7,1.4,2,2.4c0.5,1.6,1.7,4.2,3,5.1c1.3,0.8,1.5,4.9,0,6.1s-3,2.7-4.8,2c-1.7-0.6-3.6-1.5-5.1-1.7s-4.2,0.6-5.3-0.4
					c-0.8-0.7-1.8-1.8-2.2-2.7l-1.4,1.3c2.9,3.8,7.8,6.2,13.9,5.9c5-0.3,8.3-2.8,10.6-5.8c4.6-5.9,4-15.1-1.6-20.4L208.6,47.7z
					 M143,70.8v-7.1c-2.5,2.6-4.6,5.1-6.1,7.1H143z M191.2,46.6c0,0,0.3-2,1-2c1.4,0,1,1.6,1.4,1.8c0.1,0.1,0.3,0.1,0.4,0.2l5.7-5.6
					c-4.8,0.6-10.6,3.3-12.7,9c-0.6,1.5-0.9,3.1-1,4.6l4.9-4.9L191.2,46.6z M256,61.6c-1.4,1.6-2.6,3.1-3.6,4.5
					c1.1,1.3,2.3,2.3,3.7,3c1.5-1.2,3.2-2.1,5.2-3.2C258.9,65.2,257,63.8,256,61.6z M172,42.2c-0.9,0.9-2.2,1.9-4.1,3.2
					c4.1,0.9,5.7,3.9,5.6,8.7c-3.6,0.5-12.4,0.1-17,0c-0.1-0.6-0.1-1.2-0.1-1.7c-2.1,1.4-4.2,2.9-6,4.5c0.3,5.2,3.2,9.7,7.7,12.3
					c0.4-1.5,1-3,1.8-4.6c-1.8-1.3-3-3.3-3.3-6.1c0-0.1,0-1.1,0-1.2c1.9,0,6,0,10.3,0c0.3-0.1,0.5-0.3,0.8-0.4
					c6-2.9,9.7-1.8,11.8-0.4C179.5,49.2,176.9,44.5,172,42.2z M226.9,30.9v-5.6h-9.6c1.3,3.1,0.3,7.8-0.9,11.5
					c2.7,6.3,5.4,12.7,8.1,19c1.1-1.5,2.5-3.2,4.3-5.1c-3.2-7.9-7.2-18.1-7.3-19.8C223,30.8,225.2,30.8,226.9,30.9z M322.7,49.5
					L322.7,49.5c4.5-3.9,9.2-7.2,14.1-8.7C329.7,39.8,321,42.3,322.7,49.5z M346.9,60.1c0-0.1,0-0.2,0-0.3c-1.9,1.4-3.9,2.9-6.1,4.4
					c0,0,0,0.1,0,0.2c-0.5,0.3-1.1,0.7-1.9,1.1c-3,2-6.1,4-9.2,6c1.6,0,3.2-0.3,4.8-0.9c1.9-1,3.9-2.1,5.8-3.1
					c0.1,0,0.5-0.3,0.5-0.3c0,0.9,0.2,2.3,0.1,3.7h10.4v-4.6h-4.6C346.9,64.6,346.9,62.1,346.9,60.1z M270.6,48.4
					c0.9,1.4,1.4,3.2,1.4,5.5c-2,0.1-5.3,0.2-8.7,0.2c-1.3,1.1-2.4,2.3-3.6,3.4c3.5,0,7.9-0.1,11.8-0.1c1.6-1.4,3.8-3,6.3-4.6
					c-0.3-2.8-1.2-5.2-2.6-7C273.7,46.6,272.1,47.5,270.6,48.4z M380.1,59.8c-2.4-5.7-15.6-5.9-18.1-10.4c0.1-0.6,0.1-1.3,0.2-1.9
					c1.2-3.5,7.3-3.4,11.1-2.3c0.4,0.9,0.1,1.7,0.2,2.5s0.6,1.6,1,2.2c1.3,0.4,2.8,0.7,3.8-0.2c1-0.5,1.1-1.1,1.3-2.5
					c0.7-4.5-5.4-6.5-10.9-6.9c-2.2,2.4-6,6.1-12.1,11.4c0.3,1.2,1,2.2,2.1,3c3.9,2.9,13.6,2.7,15.9,7.1c0,0.4,0.3,0.9,0.3,1.3
					c0,0.5-0.3,1-0.3,1.4c-0.9,2-5.3,3-8.9,2.6c-1.4-0.1-2.7-0.3-3.6-1c-1.5-1.2,0.6-3.5-2.9-5.4c-0.9,0.2-1.8,0.4-2.7,0.6
					c-6.8,9.8,17.9,13.2,23,5C381,63.8,380.8,61.5,380.1,59.8z M298.7,40.7c-2.8-0.7-5.4,0-7.5,0.9c-3.5,1.5-6,4.5-7.5,7.9
					c5.7-3.1,12-6,16.9-8.2C300,41.1,299.4,40.9,298.7,40.7z M287.2,74.7c-1.3,0.5-1.7,1.3-2.3,2.5c0,0.7,0.1,1.4,0.3,2
					c1.7-0.9,3.7-2,5.8-3.1c0,0,0,0,0-0.1C290.4,74.9,288.8,74.2,287.2,74.7z M305.9,57.3c0,1.6,0,3.2-0.1,4.5
					c-3.2,2.5-6.2,3.5-8.7,3.5c-2.1,1.7-4.1,3-5.9,4c1.6,0.6,3.3,0.9,5.1,0.9c3-0.1,5.9-1.1,7.9-3.8c0.2,0,0.8-0.7,1-0.7
					s0.3,0.4,0.5,0.4v0.1c0,0,0,0,0.1,0c2-1.7,4.1-3.8,6.3-6.1c0-2.9-0.1-5.9-0.1-8.7C310,53.3,308,55.3,305.9,57.3z"/>
			</g>
		</g>
	</g>
	<g id="Head">
		<path class="st2" d="M48.9,9C71,9,89,27,89,49.1c0,22.2-18,40.1-40.1,40.1S8.8,71.3,8.8,49.1C8.8,27,26.8,9,48.9,9z"/>
		<g>
			<g>
				
					<linearGradient id="SVGID_2_" gradientUnits="userSpaceOnUse" x1="-11.2221" y1="4.8516" x2="-11.2221" y2="97.6516" gradientTransform="matrix(1 0 0 -1 60.1221 100)">
					<stop  offset="0" style="stop-color:#000000"/>
					<stop  offset="0.103" style="stop-color:#000000"/>
					<stop  offset="0.271" style="stop-color:#09010B"/>
					<stop  offset="0.4832" style="stop-color:#2F1B1D"/>
					<stop  offset="0.7286" style="stop-color:#5D3029"/>
					<stop  offset="0.94" style="stop-color:#924330"/>
				</linearGradient>
				<path class="st5" d="M36,22.8c0.7,0.7,1.7,3.1,1.7,3.1s1.3-1.2,5.1-1.2c3.9,0,6.1,2.9,6.1,2.9s1.2-3,5.6-3
					c2.3,0,4.2,1.1,5.3,1.2c0.4,0.1,1.3-1.1,2.3-2.7c0.6-1,2.1-0.7,3.5,0l2.5-4.9c-1.3-0.8-2.6-1.5-4-2.2L59,23.2l0.9-8.8
					c-1.4-0.5-2.9-0.8-4.5-1.1L51.9,23l-1-10.2c-0.7,0-1.4-0.1-2-0.1c-0.9,0-1.7,0-2.6,0.1l-1,10.6l-3.5-10c-1.5,0.3-3,0.7-4.5,1.2
					l0.9,8.3l-5.1-6.7c-1.4,0.7-2.7,1.4-4,2.3l2.7,5C33.6,22.6,35.5,22.2,36,22.8z M54.7,37c-0.3,0.9-1,4.5-0.3,4.7
					c0.5,0.2,0.9-0.6,0.9-0.6s4.4-1,4.8-1.3c0.4-0.3,1.6-1.9,1.6-1.9s0.8,0.3,1.1,0s0.3-0.5,0.1-0.7c-0.9-0.7-2.4-1.7-3.9-1.7
					C57.4,35.6,55,36.1,54.7,37z M44,34.4c-1.3-0.5-3.1-3.4-3.7-3.8c-0.6-0.4-1.1-0.4-1.6-0.5s-2,0-2.7,0c-0.3,0-1.1,0.4-1.6,1.1
					c-0.6,0.7-0.9,1.7-0.9,1.7s0.3,1.1,1.2,0.9c1.3-0.4,3.5-2,5.4,0c1.3,1.3,1.9,2.7,3.1,2.9C45.3,36.9,46.9,35.5,44,34.4z
					 M67.9,24.7c1.4,1.3,2.5,2.3,2.5,4.1c0,0.1,0,0.2,0,0.3l5-5C74.2,23,73.1,22,72,21l-4.2,3.6C67.8,24.6,67.8,24.6,67.9,24.7z
					 M85.3,49.1c0-1.5-0.1-3.1-0.3-4.5l-18.4,1.2L84.2,40c-0.4-1.5-0.9-3-1.4-4.4l-13.5,3.1l11.5-7.2c-0.7-1.3-1.6-2.6-2.5-3.8
					l-11.3,6c0.2,0.7,0.4,1.7,0.6,2.3c0.3,1,0.1,3.9-0.1,5.4s-2.5,2.8-4,3.7c-1.2,0.7-1.9,1.5-2.2,2.7c-0.2,0.6-0.4,1.3-0.5,1.8
					c-0.1,0.4,0,0.7,0,1c0-0.1-0.2-0.4-0.3-0.5c-0.5-0.8-0.9-0.8-1.1-0.6c-0.3,0.2,0.4,0.8,0.8,1.7c0.4,0.8,0.7,1.8,0.8,2.3
					c0.3,1,0.7,3.7,0.2,5.5c-0.4,1.8-1,2.9-2.1,3.8c-0.8,0.7-3.7,1.2-4.6,0.7c-2.2-1.1-3.1-0.4-3.8-1.2s-1.3-2.4-1.3-3.1
					c0.1-0.7,1.2-2.4,3-3.9c1.7-1.5,3-1.6,3.5-2.1c0.3-0.2,0.4-0.5,0.5-0.9c0.1-0.5,0.3-0.8,0-0.9c-0.2-0.1-0.3,0-0.6,0.2
					c-0.4,0.4-0.8,0.8-0.9,0.7c-0.1-0.1,0-0.1-0.1-0.3s-0.2-0.6-0.6-0.9c-0.8-0.7-3.3,1.1-5.3,1.1S45,51,44,51.5
					c-0.5,0.2-0.7,0.5-0.8,0.8s0.1,0.3,0,0.4c-0.2,0.1-0.3-0.3-0.6-0.6s-0.4-0.4-0.7-0.2s0,0.3,0.3,0.9c0.2,0.5,0.6,0.9,0.8,1.2
					c0.4,0.7,1.9,1.7,2.8,2.2c0.9,0.5,2.4,2.4,2.6,3c0.3,0.6-0.7,2.4-0.8,2.6c-0.1,0.1,0,0-0.9,0.9s-2.8,2.3-4,2.6s-2.6,0.8-3.4-0.1
					c-0.7-0.9-2.5-4.1-2.8-6.8c-0.2-1.6,0.3-2.7,0.7-3.9c0.3-0.8,0.4-1.8,0.6-2.4c1-2.8,2.2-3.7,2-3.9c-0.3-0.3-1.8,0.4-2.5,1.7
					c-0.1-0.2-0.2-0.4-0.3-0.6c-0.1-0.2-0.3-0.4-0.5-0.7c-0.1-0.2-0.3-0.4-0.5-0.8c-1-1.3-2.8-2.4-4.2-3.8c-1.4-1.4-0.9-3.4-1-6.6
					c-0.1-2.2,0.3-3.4,0.5-4L19.4,28c-0.9,1.2-1.7,2.5-2.4,3.9L28.4,39L15,35.9c-0.6,1.4-1,2.9-1.4,4.4l16.3,5.3l-17.1-0.9
					c-0.2,1.5-0.3,2.9-0.3,4.4v0.1l18.1,1.1l-17.8,3.4c0.2,1.5,0.5,3,0.9,4.5l17.8-3.5l-16.4,7.8c0.6,1.4,1.2,2.8,2,4.1l16.4-7.8
					l-14,11.6c0.9,1.2,1.9,2.4,2.9,3.5l13.9-11.7l-10.5,15c1.2,1,2.4,1.9,3.7,2.7l8.6-11.2L33.4,82c1.4,0.7,2.8,1.2,4.3,1.7l4.7-9.4
					l-0.3,10.5c1.5,0.3,3,0.5,4.6,0.6l2.2-6.4l2.2,6.4c1.6-0.1,3.1-0.3,4.6-0.6L55,73.7l5.1,10c1.5-0.5,2.9-1,4.3-1.7l-5.5-14.8
					l9.6,12.5c1.3-0.8,2.5-1.7,3.7-2.7l-9.8-13.6l13,10.6c1-1.1,2-2.3,2.9-3.5L64.1,58.8l16.7,7.8c0.7-1.3,1.4-2.7,1.9-4.1L66,54.7
					l18.1,3.4c0.4-1.5,0.6-3,0.8-4.5l-18.1-3.4L85.3,49.1z M56.1,70.3c-0.7,1.9-3.7,3.4-4.7,4.4s-2.5,3.8-2.5,3.8s-2.1-2.7-2.8-3.7
					s-1.7-0.9-2.8-1.9s-2.6-3.3-3.1-4.2c-0.4-1-0.5-1.1,0.1-1.6s1.9-0.6,3.4-1.1c1.6-0.5,1.4-2.1,5.1-2.1c1.5,0,3.1,0.8,3.8,1.1
					c1.5,0.7,3.8-0.1,4.8,0.6C58.4,66.3,56.8,68.4,56.1,70.3z M38.9,36.3c-1.4,0-2.8,1-3.7,1.6c-0.2,0.2-0.2,0.4,0.1,0.7
					c0.3,0.2,1,0,1,0s0.3,0.3,0.9,0.7c0.3,0,1.3-0.1,2.8,0.8c0.6,0.4,0.7,1,1.2,1.3c0.4,0.2,0.9,0.1,1.1,0.2
					c0.3,0.2,0.4,0.8,0.9,0.6s0.2-0.6,0.2-1.1c0-1.1-0.3-2.7-0.5-3.3C42.6,36.8,40.3,36.4,38.9,36.3z M48.9,2.7
					C23.3,2.7,2.5,23.5,2.5,49.1s20.8,46.4,46.4,46.4s46.4-20.8,46.4-46.4S74.5,2.7,48.9,2.7z M48.9,89.2
					c-22.1,0-40.1-17.9-40.1-40.1C8.8,27,26.8,9,48.9,9S89,27,89,49.1C89,71.3,71,89.2,48.9,89.2z M29.7,25.2l-4.2-3.9
					c-1.2,1-2.3,2-3.3,3.1l4.9,4.4C27.4,27.7,28.5,26.3,29.7,25.2z M63.4,36.5c0.2,0,0.3-0.1,0.3-0.5c0.1-1.2-0.4-2.7-0.6-3.1
					c-0.3-0.5-1-1.7-1.7-2c-0.7-0.2-1.9-0.2-3.1-0.2c-2.1,0.1-2.4,0.2-4.1,1.8c-0.7,0.7-1.4,0.7-1.7,1.3s0,1,0.1,1.3s0.6,0,0.6,0
					s2.4-1.8,5.2-2.4c3.9-0.8,4.8,3.5,4.8,3.5S63.3,36.5,63.4,36.5z"/>
			</g>
		</g>
		<g>
			<g>
				<path class="st6" d="M87.1,39.4c-0.5-1.6-1.8-5.6-3.1-8.4c-0.5-0.8-1.9,0.2-1.7,0.5l0,0l0.2,0.2l-7.3,4.4l8.5-1.8
					c0,0,0.5,1.2,0.9,2.9c0.4,1.6,0.8,3.6,0.8,3.6l-11.8,3.4l8.1-0.4c1.2-0.5,2.6-0.5,3.7-0.8c0.8-0.3,2.1-0.4,2.1-1.3l0,0
					C87.5,41,87.3,40.2,87.1,39.4z M66.9,37.2c-0.3-2.2-1.4,0.7-2.2,1c-0.8,0.4-1.6,0.8-2.4,1.2c-0.7,0.4-1.7,1-2.4,1.4
					c-1,0.6-2.3,1.2-3.1,1.8c-3.9,2.9-6.2,6-7.7,8.8h0.1c1.2-0.3,3.4-1.5,4.4-1.5s1.5,0.9,2.1,0.8c0.6-0.1,1.6,0,1.1,1.4
					c-0.4,1.5-1.5,1.6-2.9,2.7c-1.4,1.1-3,2.3-3.4,3.4c-0.3,1.2-0.3,2.8,0.9,3.4c1.2,0.6,3.5,1.9,5.8,1s3.8-4.6,3.4-7
					c-0.4-2.4-1.3-5.1-1.9-5.8c-0.7-0.7-0.3-1.7,0.1-1.8c0.4,0,1.2,0.8,1.5,0.1s0.8-3,2.3-3.9c1.5-0.9,4.2-2.4,4.3-4.7
					C67.1,38.7,67,37.9,66.9,37.2L66.9,37.2z M40.9,65.1c1.5-0.1,5.5-2.3,6-3.1s1.3-2.6,0.3-3.7c-0.3-0.3-0.6-0.6-0.9-0.8l0,0
					c-0.3-0.1-0.2,0.5-0.4,0.7c-0.4,0.7-0.8,1.4-1.3,1.9c-1,1.1-5.5,3.1-5.3,3.9l0,0C39.6,64.8,40.1,65.2,40.9,65.1z M35.8,83.7
					c-1.6-0.6-3.2-1.5-3.2-1.5l3.4-9.5l-6.5,8.2c0,0-1.4-1-2.7-2c-1.3-1.1-2.5-2.2-2.5-2.2l6.2-7.5c-0.7,0.4-1.4,0.8-2.1,1.2
					l-5.7,4.5l-0.5-0.5c-0.7,0.5-2.1,0.2-1.8,1.4c1.5,1.5,4.5,4.5,8,6.4c3.8,2.2,7.1,3.5,9.1,4.2c0,0,0,0,0-0.1
					c1.1-0.1,1.7-0.9,2.5-1.8c0.6-0.7,1-2.4,1.5-3.3l0.3-4.3l-3.6,7.6C38.3,84.6,37.1,84.3,35.8,83.7z M53.4,66
					c-1.2-0.3-2.3-1.1-4.4-1.1c-2.1,0-2.6,1.3-4.2,2c-1.6,0.6-4-0.2-3.8,1.1c0.3,1.4,2.6,3.7,3.7,4.4c1,0.6,2.4,1.5,2.9,2.9
					c1.7-1.2,3.3-2,5.1-2.8c0.6-0.3,1.3-0.9,2-1.7c0.2-0.2,0.3-0.5,0.4-0.7c0.5-1,2.3-3.4,1.8-4C56.5,65.5,54.6,66.3,53.4,66z"/>
			</g>
			<g>
				<path class="st7" d="M87.1,39.4c-0.5-1.6-1.8-5.6-3.1-8.4c-0.5-0.8-1.9,0.2-1.7,0.5l0,0l0.2,0.2l-7.3,4.4l8.5-1.8
					c0,0,0.5,1.2,0.9,2.9c0.4,1.6,0.8,3.6,0.8,3.6l-11.8,3.4l8.1-0.4c1.2-0.5,2.6-0.5,3.7-0.8c0.8-0.3,2.1-0.4,2.1-1.3l0,0
					C87.5,41,87.3,40.2,87.1,39.4z M66.9,37.2c-0.3-2.2-1.4,0.7-2.2,1c-0.8,0.4-1.6,0.8-2.4,1.2c-0.7,0.4-1.7,1-2.4,1.4
					c-1,0.6-2.3,1.2-3.1,1.8c-3.9,2.9-6.2,6-7.7,8.8h0.1c1.2-0.3,3.4-1.5,4.4-1.5s1.5,0.9,2.1,0.8c0.6-0.1,1.6,0,1.1,1.4
					c-0.4,1.5-1.5,1.6-2.9,2.7c-1.4,1.1-3,2.3-3.4,3.4c-0.3,1.2-0.3,2.8,0.9,3.4c1.2,0.6,3.5,1.9,5.8,1s3.8-4.6,3.4-7
					c-0.4-2.4-1.3-5.1-1.9-5.8c-0.7-0.7-0.3-1.7,0.1-1.8c0.4,0,1.2,0.8,1.5,0.1s0.8-3,2.3-3.9c1.5-0.9,4.2-2.4,4.3-4.7
					C67.1,38.7,67,37.9,66.9,37.2L66.9,37.2z M40.9,65.1c1.5-0.1,5.5-2.3,6-3.1s1.3-2.6,0.3-3.7c-0.3-0.3-0.6-0.6-0.9-0.8l0,0
					c-0.3-0.1-0.2,0.5-0.4,0.7c-0.4,0.7-0.8,1.4-1.3,1.9c-1,1.1-5.5,3.1-5.3,3.9l0,0C39.6,64.8,40.1,65.2,40.9,65.1z M35.8,83.7
					c-1.6-0.6-3.2-1.5-3.2-1.5l3.4-9.5l-6.5,8.2c0,0-1.4-1-2.7-2c-1.3-1.1-2.5-2.2-2.5-2.2l6.2-7.5c-0.7,0.4-1.4,0.8-2.1,1.2
					l-5.7,4.5l-0.5-0.5c-0.7,0.5-2.1,0.2-1.8,1.4c1.5,1.5,4.5,4.5,8,6.4c3.8,2.2,7.1,3.5,9.1,4.2c0,0,0,0,0-0.1
					c1.1-0.1,1.7-0.9,2.5-1.8c0.6-0.7,1-2.4,1.5-3.3l0.3-4.3l-3.6,7.6C38.3,84.6,37.1,84.3,35.8,83.7z M53.4,66
					c-1.2-0.3-2.3-1.1-4.4-1.1c-2.1,0-2.6,1.3-4.2,2c-1.6,0.6-4-0.2-3.8,1.1c0.3,1.4,2.6,3.7,3.7,4.4c1,0.6,2.4,1.5,2.9,2.9
					c1.7-1.2,3.3-2,5.1-2.8c0.6-0.3,1.3-0.9,2-1.7c0.2-0.2,0.3-0.5,0.4-0.7c0.5-1,2.3-3.4,1.8-4C56.5,65.5,54.6,66.3,53.4,66z"/>
			</g>
		</g>
	</g>
</g>
</svg>
