<?xml version="1.0" encoding="utf-8"?>
<!-- Generator: Adobe Illustrator 22.1.0, SVG Export Plug-In . SVG Version: 6.00 Build 0)  -->
<svg version="1.1" id="icons" xmlns="http://www.w3.org/2000/svg" xmlns:xlink="http://www.w3.org/1999/xlink" x="0px" y="0px"
	 viewBox="0 0 35.4 28" style="enable-background:new 0 0 35.4 28;" xml:space="preserve">
<style type="text/css">
	.st0{fill:#262626;}
</style>
<title>menu-icon_slots</title>
<g>
	<path class="st0" d="M8.8,17.7H7.4c0-1.8,0.6-3.6,1.7-5l0,0c-0.3-0.1-0.6-0.1-0.9-0.1c-0.2,0-0.4,0.1-0.6,0.3
		c-0.3,0.3-0.6,0.4-1,0.4H5.9v-2.3h1.5v0.2c0.2-0.1,0.5-0.2,0.7-0.2c0.4,0,0.9,0,1.3,0.1c0.4,0.1,0.9,0.1,1.3,0l0,0l0.8,1.2l0,0
		C9.8,13.6,8.8,15.6,8.8,17.7z"/>
</g>
<g>
	<path class="st0" d="M17.7,17.7h-1.5c0-1.8,0.6-3.6,1.7-5l0,0c-0.3-0.1-0.6-0.1-0.9-0.1c-0.2,0-0.4,0.1-0.5,0.3
		c-0.3,0.3-0.6,0.4-1,0.4h-0.7v-2.3h1.5v0.2c0.2-0.1,0.5-0.2,0.7-0.2c0.4,0,0.9,0,1.3,0.1c0.4,0.1,0.9,0.1,1.3,0l0,0l0.8,1.2l0,0
		C18.6,13.6,17.7,15.6,17.7,17.7z"/>
</g>
<g>
	<path class="st0" d="M26.5,17.7H25c0-1.8,0.6-3.6,1.7-5l0,0c-0.3-0.1-0.6-0.1-0.9-0.1c-0.2,0-0.4,0.1-0.5,0.3
		c-0.3,0.3-0.6,0.4-1,0.4h-0.7v-2.3H25v0.2c0.2-0.1,0.5-0.2,0.7-0.2c0.4,0,0.9,0,1.3,0.1c0.4,0.1,0.9,0.1,1.3,0l0,0l0.8,1.2l0,0
		C27.5,13.6,26.5,15.6,26.5,17.7z"/>
</g>
<g>
	<rect x="12.5" y="7.4" class="st0" width="1.5" height="13.3"/>
</g>
<g>
	<rect x="21.4" y="7.4" class="st0" width="1.5" height="13.3"/>
</g>
<g>
	<path class="st0" d="M32,23.1H3.4V4.9H32V23.1z M5.4,21.1H30V6.9H5.4V21.1z"/>
</g>
<g>
	<path class="st0" d="M32.4,28H3c-1.6,0-3-1.3-3-3V3c0-1.7,1.3-3,3-3h29.4c1.6,0,3,1.4,3,3v22.1C35.3,26.7,34,28,32.4,28z M3,1.5
		c-0.8,0-1.5,0.6-1.5,1.4c0,0,0,0.1,0,0.1v22.1c0,0.8,0.7,1.5,1.5,1.4c0,0,0,0,0,0h29.4c0.8,0,1.5-0.7,1.5-1.5c0,0,0,0,0,0V3
		c0-0.8-0.6-1.5-1.5-1.5c0,0,0,0,0,0L3,1.5z"/>
</g>
</svg>
