<svg id="icons" xmlns="http://www.w3.org/2000/svg" viewBox="0 0 31.3 30"><defs><style>.cls-1{fill:#262626;}</style></defs><title>menu-icon_livecasino</title><metadata><?xpacket begin="﻿" id="W5M0MpCehiHzreSzNTczkc9d"?>
<x:xmpmeta xmlns:x="adobe:ns:meta/" x:xmptk="Adobe XMP Core 5.6-c143 79.161356, 2017/09/07-01:11:22        ">
   <rdf:RDF xmlns:rdf="http://www.w3.org/1999/02/22-rdf-syntax-ns#">
      <rdf:Description rdf:about=""
            xmlns:dc="http://purl.org/dc/elements/1.1/"
            xmlns:xmp="http://ns.adobe.com/xap/1.0/"
            xmlns:xmpMM="http://ns.adobe.com/xap/1.0/mm/"
            xmlns:stEvt="http://ns.adobe.com/xap/1.0/sType/ResourceEvent#">
         <dc:title>
            <rdf:Alt>
               <rdf:li xml:lang="x-default">menu-icon_livecasino</rdf:li>
            </rdf:Alt>
         </dc:title>
         <xmp:Rating>3</xmp:Rating>
         <xmp:MetadataDate>2018-04-12T14:32:08+03:00</xmp:MetadataDate>
         <xmpMM:InstanceID>xmp.iid:535218af-fba0-134b-bee9-74631fa7aa27</xmpMM:InstanceID>
         <xmpMM:DocumentID>xmp.did:4dfebbd6-2b28-a442-91e4-3a714944fbc4</xmpMM:DocumentID>
         <xmpMM:OriginalDocumentID>xmp.did:4dfebbd6-2b28-a442-91e4-3a714944fbc4</xmpMM:OriginalDocumentID>
         <xmpMM:History>
            <rdf:Seq>
               <rdf:li>
                  <rdf:Description>
                     <stEvt:action>saved</stEvt:action>
                     <stEvt:instanceID>xmp.iid:4dfebbd6-2b28-a442-91e4-3a714944fbc4</stEvt:instanceID>
                     <stEvt:when>2018-04-12T14:30:52+03:00</stEvt:when>
                     <stEvt:softwareAgent>Adobe Bridge CC 2018 (Windows)</stEvt:softwareAgent>
                     <stEvt:changed>/metadata</stEvt:changed>
                  </rdf:Description>
               </rdf:li>
               <rdf:li>
                  <rdf:Description>
                     <stEvt:action>saved</stEvt:action>
                     <stEvt:instanceID>xmp.iid:535218af-fba0-134b-bee9-74631fa7aa27</stEvt:instanceID>
                     <stEvt:when>2018-04-12T14:32:08+03:00</stEvt:when>
                     <stEvt:softwareAgent>Adobe Bridge CC 2018 (Windows)</stEvt:softwareAgent>
                     <stEvt:changed>/metadata</stEvt:changed>
                  </rdf:Description>
               </rdf:li>
            </rdf:Seq>
         </xmpMM:History>
      </rdf:Description>
   </rdf:RDF>
</x:xmpmeta>
                                                                                                    
                                                                                                    
                                                                                                    
                                                                                                    
                                                                                                    
                                                                                                    
                                                                                                    
                                                                                                    
                                                                                                    
                                                                                                    
                                                                                                    
                                                                                                    
                                                                                                    
                                                                                                    
                                                                                                    
                      
<?xpacket end="w"?></metadata>
<path class="cls-1" d="M16.31,21.9a1.24,1.24,0,0,1-.5-.1A1.29,1.29,0,0,1,15,20.6V16.85q-.77-.13-1.47-.33l.34-1.26a17,17,0,0,0,1.89.4l.54.09V20.6l4.91-4.91.21,0C26.79,14.81,30,12.12,30,8.48,30,4.12,25.65,1.3,18.91,1.3,12,1.3,7.17,4.25,7.17,8.48a5.76,5.76,0,0,0,.12,1.18L6,9.91a7.46,7.46,0,0,1-.14-1.43c0-5,5.36-8.48,13-8.48S31.3,3.33,31.3,8.48c0,4.29-3.53,7.43-9.47,8.43l-4.6,4.61A1.31,1.31,0,0,1,16.31,21.9Z"/><path class="cls-1" d="M8.48,21.5C7.11,21.5,3.91,21,3.91,16s3.2-5.54,4.57-5.54h0a4.3,4.3,0,0,1,3.25,1.31A6.09,6.09,0,0,1,13,16C13,21,9.85,21.5,8.48,21.5Zm0-9.76c-2.17,0-3.26,1.42-3.26,4.23s1.09,4.22,3.26,4.22,3.26-1.42,3.26-4.22a4.89,4.89,0,0,0-1-3.35,3,3,0,0,0-2.29-.88Z"/><path class="cls-1" d="M17,30H0V27.39c0-2.56,3.17-5.22,8.48-5.22S17,24.83,17,27.39ZM1.3,28.7H15.65V27.39c0-1.64-2.49-3.91-7.17-3.91S1.3,25.75,1.3,27.39Z"/><path class="cls-1" d="M20.22,13.58a.39.39,0,0,1-.15,0l-.19,0a5.84,5.84,0,0,0-1.29-.23,5.93,5.93,0,0,0-1.3.23l-.19,0a.65.65,0,0,1-.78-.48.67.67,0,0,1,.49-.79l.16,0A7.52,7.52,0,0,1,18.59,12a7.62,7.62,0,0,1,1.62.26l.16,0a.66.66,0,0,1,.48.79A.65.65,0,0,1,20.22,13.58Z"/><path class="cls-1" d="M20,11.52a3.43,3.43,0,0,1-1.44-.29,3.61,3.61,0,0,1-2.7,0,2.65,2.65,0,0,1-1.54-2.54c0-1.35,1.22-2.33,2.3-3.19A4.73,4.73,0,0,0,18,4.25a.64.64,0,0,1,.62-.45.65.65,0,0,1,.62.45c.1.33.75.85,1.31,1.3,1.08.86,2.31,1.84,2.31,3.19a2.65,2.65,0,0,1-1.55,2.54A3,3,0,0,1,20,11.52ZM18.59,9.8A.65.65,0,0,1,19,10a2.21,2.21,0,0,0,1.69.14,1.37,1.37,0,0,0,.81-1.37c0-.72-1-1.49-1.81-2.17a11.17,11.17,0,0,1-1.12-1,14,14,0,0,1-1.12,1c-.85.68-1.82,1.45-1.82,2.17a1.37,1.37,0,0,0,.81,1.37A2.21,2.21,0,0,0,18.15,10,.66.66,0,0,1,18.59,9.8Z"/></svg>