<svg xmlns="http://www.w3.org/2000/svg" viewBox="0 0 320.44 144.11"><title>Mr Green</title><g id="Layer_2" data-name="Layer 2"><g id="Mr_Green" data-name="Mr Green"><path d="M104.25,94.75a11.87,11.87,0,0,1,11.8-12.28c3.92,0,7,1.42,8.92,3.82a13.41,13.41,0,0,1,3.2,9.26,12.69,12.69,0,0,1-3.44,8.55,11.6,11.6,0,0,1-8.61,3.38c-6.14,0-11.87-4.81-11.85-12.64Zm38.58-24.48H128.05V74.9c-2.86-4.27-8.31-6.23-13.83-6.23-12.82,0-24.85,9.7-24.73,26.62.1,15.84,11.66,26,25.1,26,7.75,0,11.93-4.18,13.61-7l0,2.93c0,8.55-6.34,12-11.94,12a12.39,12.39,0,0,1-4-.62,8.31,8.31,0,0,1-4.74-4.27H90.5c1.08,7,7.6,17.36,24.78,17.36,12.19,0,21.21-5.44,25-11.67,2.31-4.18,2.83-8.9,2.75-16.29Zm1.92,49.41h14.78l-.19-26.53c0-7,3.49-9.7,11.06-9.7h.53l-.09-14.87c-8.54,0-11.06,4.54-12.5,7.21V70.27H144.46Zm33.48-30.8c.36-2.32,3.31-7.84,11-7.84s10.76,5.52,11.12,7.84Zm36.69,11.21c1.11-9.08-.85-17-7.12-23.68A25.53,25.53,0,0,0,189,68.58c-15,0-25.78,12.73-25.72,26.53a26.48,26.48,0,0,0,26.38,26.17,23.78,23.78,0,0,0,14-4.45,28.31,28.31,0,0,0,10-12.64H198.52a9.76,9.76,0,0,1-8.91,4.63c-5.78,0-10.81-3.48-11.46-8.73Zm11.15-11.21c.35-2.32,3.3-7.84,11-7.84s10.76,5.52,11.11,7.84Zm36.68,11.21c1.11-9.08-.85-17-7.11-23.68a25.54,25.54,0,0,0-18.77-7.83c-15.05,0-25.78,12.73-25.72,26.53a26.47,26.47,0,0,0,26.37,26.17,23.79,23.79,0,0,0,14-4.45,28.38,28.38,0,0,0,10-12.64H246.36a9.76,9.76,0,0,1-8.91,4.63c-5.79,0-10.81-3.48-11.46-8.73Zm-.93,19.59h14.77l-.16-26.89c0-5.07,1.05-10.32,8.35-10.32,6.59,0,7.78,4.8,7.84,10.23l.18,27h14.77l-.21-30.89c0-6.68-1.82-20.21-18.47-20.21-8.81,0-11.86,4.54-13.54,6.94l0-5.25H261.53ZM67,72.39H81.77l-.13-26.26a15.67,15.67,0,0,1,1-6.59c1.05-2.4,3.08-4.36,7.27-4.36,3.73,0,5.61,1.87,6.58,4.18a17.27,17.27,0,0,1,.91,6.14l.16,26.89H112.3l-.18-27a13.92,13.92,0,0,1,1-6.14c1-2.22,3-4.09,7-4.09,3.83,0,5.76,1.69,6.64,4a18.63,18.63,0,0,1,1.07,7l.13,26.26h14.78l-.18-27c0-10.95-.77-14.24-5.45-19.14-4-4.18-9.59-5-13.06-5a17.24,17.24,0,0,0-12,4.54,18.71,18.71,0,0,0-3.54,4.27A17.77,17.77,0,0,0,105.65,26a15.32,15.32,0,0,0-11.41-4.72,16.31,16.31,0,0,0-10.73,3.47,12.17,12.17,0,0,0-3,3.47l0-5.25H66.7Zm77.76,0h14.78l-.18-26.53c0-6.94,3.48-9.7,11.05-9.7h.53l-.09-14.87c-8.54,0-11.06,4.54-12.5,7.21V23H144.46Zm170,1.65-.08-5.18L316.2,74h1.17l1.47-5.18,0,5.18h1.63l0-6.92H318l-1.23,4.46-1.33-4.46h-2.37l0,6.92Zm-6.14,0h1.77l0-5.37h1.36V67.12h-4.49v1.55h1.37ZM0,141.08v1c2.18-1.58,11.63-23.45,13.74-28.47,1.11-2.66,2.86-8.94,3.88-10.68,6.82-.32,12.8,6.48,15.87,12,1.12,2,.94,2.77,1.07,5.13.26,4.74.13,9.41.57,14.17a16.06,16.06,0,0,1,.07,4c-.74,3.95-.57,3.55,1.13,5.89h2.49c1.35-.91,3.58-.94,4.25-2.29.79-1.61,0-4-.09-5.52a115.52,115.52,0,0,1,.72-11.91A36.87,36.87,0,0,1,49.62,127c2.47,1.15,3.51,1.14,4.53,3.28,3.76,7.82,1.26,4.27,2.24,9.54a3.26,3.26,0,0,0,.5,1.46c.7,1.13.3.53,1,1.06,4.28-3.1,2.77-11,3.18-16.58,1.66-1.13,1.36-.57,1.7-3,.21-1.42.53-2.54-.2-3.62-1.16-.9-2.62-.49-4.19-.75-2.57-.44-5.78-1-7.53-3.13-2.51-3-4.15-5.75-3.95-9.8,0-.76.17-1.86,1.11-1.8a3.32,3.32,0,0,0,1.49-.21c2.16-7.91,2.8-23.24,3.28-32.1.25-4.72-.06-3.7,3-6C60.66,61.62,71.71,52,73,46.12c.67-3-8-8.69-10.28-10.59-1.74-2-2.71-6-4.18-7.09C57.49,27.65,52,27,50,26.14c-2.65-1.07-5.37-2.57-6.44-5.34,1-1.25,2.11-.83,2.61-3.45.51-3.55-.21-5.82-.69-9.21-.11-.77,1.67-1.46,2-2.89.21-1-.9-1.58-1.65-2-1.24,1.14-.45,1.19-1.93,1.5C42.64,2.35,43,.86,39.89.1c-2.23-.43-8.38.47-9.38,3a11.57,11.57,0,0,0,.13,5.2c-1.39-.38-1.77-.81-2.77.32-.42.51-.44.42-.05,1.26.51,1.13,1.8,1.39,2.89,1.69a16.58,16.58,0,0,0,1,4.45c.89,2.09,1.74.39,2.06,3.56a6.36,6.36,0,0,1-5,6.19c-1.86.49-9.47,1.77-10.39,2.83-1.13,1.3-2.89,16.11-3.11,18.7a116.62,116.62,0,0,0-.22,18.12c.21,2.93.94,5.46.95,8.49v.5c0,3.78.57,2.23,1.28,4.17.29.8-1.64,12.38-1.83,13.72-2.24,15.79.9,4-4.45,17ZM52.79,56.9c.21-4.48,2-7.94,3.5-11.13a7.08,7.08,0,0,1,4.8.86c-.19,2-2.63,4.64-3.74,5.68C56,53.61,54.17,56.23,52.79,56.9Z" style="fill:#2ca354"/></g></g></svg>