<?xml version="1.0" encoding="utf-8"?>
<!-- Generator: Adobe Illustrator 22.0.1, SVG Export Plug-In . SVG Version: 6.00 Build 0)  -->
<svg version="1.1" id="Ebene_1" xmlns="http://www.w3.org/2000/svg" xmlns:xlink="http://www.w3.org/1999/xlink" x="0px" y="0px"
	 viewBox="0 0 684 144.7" style="enable-background:new 0 0 684 144.7;" xml:space="preserve">
<style type="text/css">
	.st0{fill:#FFFFFF;}
</style>
<g>
	<path class="st0" d="M396.8,60.9l-24.3-4.7l13.8-20.6L362,40.5l4.9-24.3L346.3,30l-4.8-24.3l-13.7,20.7L314.2,5.7L309.5,30
		l-20.6-13.8l4.9,24.3l-24.3-4.9l13.8,20.6L259,60.9l20.7,13.7L259,88.3l24.3,4.7l-13.8,20.6l24.3-4.9l-4.9,24.3l20.6-13.8l4.7,24.3
		l13.7-20.7l13.7,20.7l4.8-24.3L367,133l-4.9-24.3l24.3,4.9L372.5,93l24.3-4.7l-20.7-13.7L396.8,60.9L396.8,60.9z M365.7,74.6
		c0,20.9-16.9,37.8-37.8,37.8c-5.8,0-11.4-1.4-16.3-3.7l5.1-21.4h12.4c4.3-0.2,8.4-0.2,12.7-2c7.2-3.1,12.4-9.8,12.4-19
		c0-3.8-0.9-7.6-3.1-10.6c-4.5-5.8-11.4-6.2-15.6-6.3h-24.3l-11.3,50.5c-6-6.7-9.8-15.5-9.8-25.3c0-20.9,16.9-37.8,37.8-37.8
		C348.8,36.8,365.7,53.7,365.7,74.6L365.7,74.6z M323.2,59.4h7.4c3.7,0,9.6,0.5,9.6,7.4c0,3-1.4,6.4-4.1,8.3
		c-2.4,1.8-4.7,1.8-6.9,1.9h-10L323.2,59.4L323.2,59.4z"/>
	<path class="st0" d="M33.7,58.3h2.6c4.6,0,6.9,2.1,6.9,6.3c0,2.7-1,4.9-2.9,6.5s-4.5,2.4-7.9,2.4h-2L33.7,58.3L33.7,58.3z
		 M49.6,53.1c-2.9-2.5-7.2-3.7-12.9-3.7H24.9L14,100.8h10.7l3.8-18.3h3c7,0,12.5-1.6,16.4-4.8c4-3.2,6-7.7,6-13.3
		C54,59.4,52.5,55.6,49.6,53.1L49.6,53.1z M81.6,100.8l1.9-9h-18l9-42.4H63.7l-10.9,51.4H81.6L81.6,100.8z M120.2,100.8h10.4
		l-5.2-51.6h-13.1l-26.9,51.6h11.2l6-12.2h16.6L120.2,100.8L120.2,100.8z M107.1,79.4l6.6-13.5c1.5-3.1,2.8-6.1,3.8-8.9v1.3
		c0,2.9,0.1,5.8,0.4,8.9l0.9,12.3L107.1,79.4L107.1,79.4z M158.2,58.5h12.4l1.9-9.1H137l-1.9,9.1h12.4l-8.9,42.3h10.7L158.2,58.5
		L158.2,58.5z M178.6,100.8l11-51.4h-10.7l-11,51.4H178.6L178.6,100.8z M242.4,49.4h-9.6c-3.6,16.9-5.7,26.9-6.3,30.2
		s-1.1,5.8-1.4,7.6H225l-12-37.9h-12.5l-10.9,51.4h9.7l5.1-24.2c0.8-4,1.6-8.5,2.3-13.6l0.1-1.1h0.2l12.5,38.9h12L242.4,49.4
		L242.4,49.4z"/>
	<path class="st0" d="M444.8,58.3c1.6,0.4,3.7,1.4,6.2,2.7l4.1-8.8c-2.6-1.4-5-2.4-7.3-2.9s-4.9-0.8-7.8-0.8c-5.3,0-10,1.3-14.1,4
		s-7.3,6.6-9.8,11.8s-3.7,10.8-3.7,17c0,6.4,1.7,11.4,5,14.9s7.9,5.3,13.9,5.3c4.7,0,9.4-0.9,14.1-2.7v-9.1
		c-4.5,1.8-8.5,2.7-11.9,2.7c-3.5,0-6.1-0.9-7.7-2.8s-2.4-4.8-2.4-8.7c0-4.2,0.8-8.2,2.2-11.9s3.5-6.5,6-8.4s5.3-2.8,8.3-2.8
		C441.5,57.7,443.2,57.9,444.8,58.3L444.8,58.3z M482.6,100.8H493l-5.2-51.6h-13.1l-26.9,51.6H459l6-12.2h16.6L482.6,100.8
		L482.6,100.8z M469.6,79.4l6.6-13.5c1.5-3.1,2.8-6.1,3.8-8.9v1.3c0,2.9,0.1,5.8,0.4,8.9l0.9,12.3L469.6,79.4L469.6,79.4z
		 M527.1,77.7c-1.4-2.3-3.5-4.3-6.4-6.2c-2.7-1.8-4.4-3.2-5.2-4.2c-0.8-1.1-1.2-2.3-1.2-3.7c0-1.7,0.6-3.1,1.9-4.2
		c1.2-1.1,2.8-1.6,4.8-1.6c3.1,0,6.5,0.9,10.1,2.6l3.8-8.2c-4.2-2.3-8.9-3.5-14-3.5c-3.5,0-6.6,0.7-9.3,2s-4.8,3.2-6.2,5.6
		c-1.5,2.4-2.2,5.1-2.2,8.1c0,2.6,0.7,5.1,2,7.3c1.3,2.3,3.6,4.6,6.8,6.9c2.3,1.7,3.8,2.9,4.4,3.6c0.6,0.7,1,1.4,1.4,2.1
		c0.3,0.8,0.5,1.6,0.5,2.7c0,1.7-0.7,3.1-2.2,4.1s-3.5,1.5-6.2,1.5c-3.9,0-8.1-1.3-12.6-3.8v9.6c3.2,2.1,7.3,3.2,12.5,3.2
		c5.9,0,10.6-1.4,14.1-4.3c3.5-2.8,5.2-6.7,5.2-11.6C529.2,82.6,528.5,79.9,527.1,77.7L527.1,77.7z M545.2,100.8l11-51.4h-10.7
		l-11,51.4H545.2L545.2,100.8z M607.7,49.4H598c-3.6,16.9-5.7,26.9-6.3,30.2s-1.1,5.8-1.4,7.6h-0.1l-12-37.9h-12.6l-10.9,51.4h9.7
		l5.1-24.2c0.8-4,1.6-8.5,2.3-13.6l0.1-1.1h0.2l12.5,38.9h12L607.7,49.4L607.7,49.4z M649.8,53.6c-3.3-3.4-7.9-5.1-13.9-5.1
		c-5.3,0-10.1,1.4-14.1,4.2c-4.1,2.8-7.3,6.8-9.6,12s-3.5,10.9-3.5,17.1c0,6.1,1.7,10.9,5,14.4c3.4,3.5,8,5.2,14,5.2
		c5.2,0,9.9-1.3,13.9-4s7.2-6.6,9.5-11.9c2.3-5.2,3.5-11.2,3.5-17.8C654.8,61.7,653.1,57,649.8,53.6L649.8,53.6z M641.5,60.4
		c1.5,1.8,2.3,4.4,2.3,7.7c0,4.6-0.7,8.8-2,12.6c-1.3,3.7-3.1,6.6-5.5,8.6c-2.3,2-4.9,3.1-7.8,3.1c-2.8,0-5-0.9-6.6-2.6
		c-1.6-1.8-2.3-4.4-2.3-7.8c0-4.4,0.7-8.4,2-12.2c1.3-3.7,3.2-6.7,5.6-8.8c2.4-2.1,5-3.2,7.8-3.2C637.8,57.7,640,58.6,641.5,60.4
		L641.5,60.4z"/>
</g>
<g>
	<path class="st0" d="M660.3,58h-1.8l1.5-7.1H658l0.3-1.5h5.9l-0.3,1.5h-2.1L660.3,58z"/>
	<path class="st0" d="M668.3,55.8l3.2-6.4h2.5l-1.8,8.6h-1.6l0.8-4.1c0.2-1,0.4-1.8,0.6-2.6h0l-3.3,6.6H667l-0.4-6.6h0
		c0,0.3-0.1,0.8-0.2,1.4s-0.5,2.3-1.1,5.3h-1.6l1.8-8.6h2.4L668.3,55.8L668.3,55.8z"/>
</g>
</svg>
