<svg xmlns="http://www.w3.org/2000/svg" viewBox="0 0 225.07 69.6"><defs><style>.cls-1{fill:#ffe500;}</style></defs><title>rizk-logo-original</title><g id="Layer_2" data-name="Layer 2"><g id="LOGOS"><path d="M218.79,11.83,204.19,0l-28,5.3L169.72,0,148.33,2.83,144.85,0,98.09,3.28,94.07,0,69.31,12.26,59.52,4.19c.13.11-31.88,7.33-31.88,7.33L0,57.78,14.6,69.6Q24.88,68,35.17,66.68q1.47-4.53,3-9.06l9.31,7.53q9.36-1.08,18.75-2l-1.62-4.44,5.09,4.11q10.29-1,20.6-1.69l1.2-3.26,3.63,2.93q22.77-1.44,45.53-1.77c.38-1,.77-2,1.15-2.93L145.34,59c1.9,0,15.6,0,20.56.12,1-2.65,2.07-5.3,3.11-7.94l10.24,8.29q10.26.36,20.51,1Q197,48.66,194.14,37C202.12,29,210.86,20.07,218.79,11.83Z"/><path class="cls-1" d="M45.74,0H4.26C8.14,3.13,15.78,9.21,15.75,9.29,15.38,10.4,1.27,53.74,0,57.78q10.27-1.58,20.57-2.91,3.11-9.54,6.28-19.09,3,8.78,6,17.56,9.36-1.1,18.75-2c-2.13-5.81-6.28-17.42-6.28-17.42C63.51,31.4,74.3,0,45.74,0Zm-6.86,22.1c-4.55.24-7,.41-7.55.43Q33,17.6,34.72,12.63c2-.06,4-.13,6-.13C46.4,12.5,45.9,21.76,38.88,22.12Z"/><path class="cls-1" d="M73.84,0l0,.08C72.37,3.9,56.58,46.75,55.07,51q10.29-1,20.6-1.7C77.17,45.2,89.37,12.36,94.07,0,87.34,0,80.58,0,73.84,0Z"/><path class="cls-1" d="M144.85,0H99.35C98.93,1.1,96,8.8,94.9,11.54q9.59-.09,19.17-.13C111.6,13.52,87.33,34.93,85,37.12Q82.71,43,80.5,49q22.77-1.44,45.53-1.78,2.21-5.61,4.42-11.22-9.6.06-19.19.26c4.77-4.18,26.54-22.75,29-24.8Z"/><path class="cls-1" d="M204.19,0H181.57c-1.7,1.7-16.25,16.23-19.39,19.35,2.45-6.29,5.09-13,7.54-19.35C163,0,156.18.06,149.45,0c-.37.93-12.93,32.51-18.71,47.13,1.9,0,18.08.07,20.56.11,1.44-3.66,7.19-18.37,8.63-22q2.35,11.17,4.73,22.4,10.25.36,20.5,1-2.81-11.75-5.62-23.43C181.54,23.15,198.24,6.19,204.19,0Z"/><polygon points="215.1 1.17 216.27 1.17 216.27 4.88 217.66 4.88 217.66 1.17 218.83 1.17 218.83 0.01 215.1 0.01 215.1 1.17"/><polygon points="224.71 0.01 223.09 0.01 222.26 2.67 221.41 0.01 219.81 0.01 219.44 4.88 220.81 4.88 220.94 2.42 221.72 4.88 222.79 4.88 223.56 2.44 223.7 4.88 225.07 4.88 224.71 0.01"/></g></g></svg>